<svg width="38" height="49" viewBox="0 0 38 49" fill="none" xmlns="http://www.w3.org/2000/svg">
<path d="M37.5 37L37.5 18.5C37.5 8.28274 29.2173 1.41726e-05 19 1.28328e-05C8.78274 1.1493e-05 0.500011 8.28274 0.50001 18.5L0.500008 37L37.5 37Z" fill="#6938EF"/>
<path d="M8.28921 36.9999C8.28921 30.9054 13.2298 25.9648 19.3243 25.9648C25.4188 25.9648 30.3594 30.9054 30.3594 36.9999L8.28921 36.9999Z" fill="#F0276C"/>
<path d="M8.28921 37.0001C8.28921 43.0946 13.2298 48.0352 19.3243 48.0352C25.4188 48.0352 30.3594 43.0946 30.3594 37.0001L8.28921 37.0001Z" fill="#EDB500"/>
<path d="M19 22.0703C22.0473 22.0703 24.5176 19.6 24.5176 16.5528C24.5176 13.5055 22.0473 11.0352 19 11.0352C15.9528 11.0352 13.4825 13.5055 13.4825 16.5528C13.4825 19.6 15.9528 22.0703 19 22.0703Z" fill="#FAFAFF"/>
</svg>
