<svg width="40" height="24" viewBox="0 0 40 24" fill="none" xmlns="http://www.w3.org/2000/svg">
<mask id="mask0_435_7323" style="mask-type:luminance" maskUnits="userSpaceOnUse" x="0" y="0" width="40" height="24">
<path d="M0.160156 0.824459H39.297V23.6731H0.160156V0.824459Z" fill="white"/>
</mask>
<g mask="url(#mask0_435_7323)">
<path d="M32.8871 22.3154C32.6374 22.2533 32.4171 22.1389 32.2601 21.9283C31.9963 21.5738 31.9547 21.1907 32.1558 20.7947C32.3156 20.4802 32.4943 20.1756 32.6498 19.8587C33.3614 18.4085 33.8526 16.8868 34.1129 15.2899C34.216 14.6569 34.2819 14.0204 34.3109 13.3793C34.337 12.8065 34.337 12.234 34.3018 11.6625C34.2047 10.0891 33.8939 8.55946 33.3558 7.07774C33.0426 6.21528 32.6635 5.38365 32.2086 4.58771C31.9717 4.17346 31.9647 3.76797 32.2426 3.3725C32.4001 3.14824 32.6268 3.02649 32.8871 2.96185H33.2575C33.5796 3.04026 33.8267 3.216 33.994 3.51053C34.663 4.68849 35.1982 5.92466 35.5969 7.22093C36.0676 8.75101 36.3361 10.3171 36.3959 11.917C36.4288 12.8001 36.4058 13.683 36.3088 14.5635C36.2265 15.3089 36.1075 16.0471 35.9395 16.7775C35.5451 18.4914 34.9143 20.1121 34.0638 21.6486C33.8776 21.9849 33.6377 22.2297 33.2575 22.3154H32.8871Z" fill="white"/>
<path d="M21.0703 9.3478C21.129 9.09553 21.2429 8.87659 21.4486 8.71305C21.9364 8.32509 22.6235 8.43386 22.9674 8.95546C23.4101 9.62731 23.7209 10.3569 23.9031 11.1422C24.0338 11.7056 24.096 12.2773 24.0728 12.8548C24.0227 14.1017 23.6639 15.2528 22.9826 16.2974C22.7277 16.6883 22.362 16.8631 21.9038 16.7745C21.4682 16.6904 21.197 16.4101 21.0844 15.9767C21.0804 15.9609 21.0751 15.9456 21.0703 15.9301V15.5567C21.1181 15.3817 21.1997 15.224 21.2946 15.0698C21.7923 14.2612 22.0299 13.3831 21.9869 12.4285C21.9512 11.6358 21.7209 10.9062 21.3099 10.2331C21.2107 10.0705 21.1188 9.90681 21.0703 9.7212V9.3478Z" fill="white"/>
<path d="M32.1318 12.6384C32.1224 14.7599 31.6877 16.7873 30.8066 18.7161C30.6218 19.1208 30.4216 19.5177 30.1977 19.9019C29.9506 20.3259 29.4656 20.5195 29.0071 20.3821C28.5465 20.2442 28.2421 19.8169 28.2606 19.3293C28.2676 19.1459 28.3272 18.9775 28.4179 18.8188C28.8569 18.0498 29.2082 17.2418 29.474 16.3962C29.7228 15.6048 29.8924 14.7967 29.9782 13.9705C30.0301 13.4721 30.0599 12.9727 30.0512 12.4717C30.0219 10.7787 29.6751 9.15524 28.9955 7.60529C28.8155 7.19464 28.6043 6.80026 28.3924 6.40573C28.0532 5.77411 28.3994 5.02417 29.0914 4.87331C29.5181 4.78035 29.9666 4.97691 30.1922 5.36596C30.6047 6.07709 30.9489 6.82108 31.2329 7.59324C31.5752 8.52283 31.8201 9.47809 31.9674 10.4581C32.0422 10.9562 32.0926 11.457 32.1143 11.9609C32.1239 12.1868 32.1283 12.4123 32.1318 12.6384Z" fill="white"/>
<path d="M28.0376 12.5734C28.027 14.3798 27.6105 16.0852 26.7807 17.6873C26.7222 17.8004 26.6604 17.912 26.5967 18.0223C26.3726 18.4107 25.9188 18.6134 25.4887 18.519C25.0441 18.4214 24.7225 18.0632 24.6698 17.6175C24.6426 17.3872 24.6877 17.1747 24.7987 16.9753C25.1727 16.3043 25.4654 15.5997 25.6597 14.8548C25.7944 14.3381 25.8829 13.8138 25.9256 13.2806C25.9603 12.849 25.9679 12.4175 25.9377 11.9864C25.856 10.8108 25.5656 9.6907 25.0436 8.63419C24.961 8.4672 24.8708 8.30413 24.7857 8.1384C24.4277 7.44136 24.8928 6.62147 25.6708 6.59784C26.0705 6.58563 26.3922 6.76263 26.5945 7.11553C27.1514 8.08629 27.545 9.12199 27.782 10.2175C27.9143 10.8289 27.9978 11.4468 28.0225 12.0731C28.0291 12.2399 28.0317 12.4066 28.0376 12.5734Z" fill="white"/>
</g>
<mask id="mask1_435_7323" style="mask-type:luminance" maskUnits="userSpaceOnUse" x="2" y="8" width="14" height="10">
<path d="M2.89453 17.1946H15.5214V8.5783H2.89453V17.1946Z" fill="white"/>
</mask>
<g mask="url(#mask1_435_7323)">
<path d="M14.94 11.8372L10.0331 8.76562C9.82904 8.63776 9.60991 8.57986 9.39621 8.57986C8.92424 8.57986 8.48022 8.86312 8.28516 9.30476L10.3984 10.6276C11.1749 11.1137 11.6387 11.9538 11.6387 12.8749C11.6387 13.7961 11.1749 14.6363 10.3984 15.1224L8.28516 16.4451C8.48022 16.8866 8.92424 17.1702 9.39621 17.1702C9.60991 17.1702 9.82904 17.1121 10.0331 16.9841L14.94 13.9127C15.7034 13.4347 15.7034 12.315 14.94 11.8372Z" fill="#008041"/>
</g>
<mask id="mask2_435_7323" style="mask-type:luminance" maskUnits="userSpaceOnUse" x="0" y="0" width="40" height="24">
<path d="M0.160156 0.824459H39.297V23.6731H0.160156V0.824459Z" fill="white"/>
</mask>
<g mask="url(#mask2_435_7323)">
<path d="M9.6534 11.8374L4.74654 8.76587C4.54263 8.63801 4.32318 8.58011 4.10964 8.58011C3.47755 8.58011 2.89453 9.08778 2.89453 9.80376V15.9466C2.89453 16.6627 3.47755 17.1704 4.10964 17.1704C4.32318 17.1704 4.54232 17.1123 4.74654 16.9843L9.6534 13.9131C10.417 13.435 10.417 12.3152 9.6534 11.8374Z" fill="#F4832C"/>
</g>
</svg>
