<svg width="20" height="18" viewBox="0 0 20 18" fill="none" xmlns="http://www.w3.org/2000/svg">
<path fill-rule="evenodd" clip-rule="evenodd" d="M19.75 16.5C19.75 16.9142 19.4142 17.25 19 17.25H1C0.585786 17.25 0.25 16.9142 0.25 16.5V1.5C0.25 1.08579 0.585786 0.75 1 0.75C1.41421 0.75 1.75 1.08579 1.75 1.5V2.68969L7 7.93969L9.46937 5.46937C9.61005 5.32854 9.80094 5.24941 10 5.24941C10.1991 5.24941 10.3899 5.32854 10.5306 5.46937L14.875 9.81469L16.2194 8.46937C16.4339 8.25463 16.7567 8.19034 17.0371 8.30653C17.3175 8.42272 17.5002 8.69647 17.5 9V12.75C17.5 13.1642 17.1642 13.5 16.75 13.5H13C12.6965 13.5002 12.4227 13.3175 12.3065 13.0371C12.1903 12.7567 12.2546 12.4339 12.4694 12.2194L13.8147 10.875L10 7.06031L7.53063 9.53063C7.38995 9.67146 7.19906 9.75059 7 9.75059C6.80094 9.75059 6.61005 9.67146 6.46937 9.53063L1.75 4.81031V15.75H19C19.4142 15.75 19.75 16.0858 19.75 16.5Z" fill="url(#paint0_linear_1009_18941)"/>
<defs>
<linearGradient id="paint0_linear_1009_18941" x1="-2" y1="9" x2="22" y2="9" gradientUnits="userSpaceOnUse">
<stop stop-color="#3725EA"/>
<stop offset="1" stop-color="#5E0FCD"/>
</linearGradient>
</defs>
</svg>
