<svg width="40" height="40" viewBox="0 0 40 40" fill="none" xmlns="http://www.w3.org/2000/svg">
<path d="M28.5609 22.8894C24.616 22.8894 21.418 26.0875 21.418 30.0324C21.418 33.9773 24.616 37.1753 28.5609 37.1753C32.5059 37.1753 35.7039 33.9773 35.7039 30.0324C35.7039 26.0875 32.5059 22.8894 28.5609 22.8894ZM28.5609 34.3179C26.1977 34.3179 24.2754 32.3953 24.2754 30.0324C24.2754 27.6695 26.198 25.7468 28.5609 25.7468C30.9242 25.7468 32.8465 27.6695 32.8465 30.0324C32.8465 32.3953 30.9242 34.3179 28.5609 34.3179Z" fill="#6311CB"/>
<path d="M29.6316 27.0696H27.4887V30.4786L30.1996 33.1657L31.7074 31.6435L29.6316 29.5856V27.0696ZM8.57422 18.5532H17.1457V21.4103H8.57422V18.5532Z" fill="#6311CB"/>
<path d="M7.1334 14.2915H30.0092V21.3024H32.8662V5.67231C32.8662 4.11138 31.5967 2.84106 30.0357 2.84106H28.967C27.8271 2.84106 26.817 3.49458 26.3936 4.50474C26.1705 5.03755 25.3068 5.03833 25.0822 4.50396C24.658 3.4938 23.6482 2.84106 22.5088 2.84106H21.7994C20.6596 2.84106 19.6494 3.49458 19.226 4.50474C19.0029 5.03755 18.1393 5.03833 17.9146 4.50396C17.4904 3.4938 16.4807 2.84106 15.3412 2.84106H14.6604C13.5205 2.84106 12.5104 3.49458 12.0869 4.50474C11.8639 5.03755 11.0002 5.03833 10.7756 4.50396C10.3514 3.4938 9.3416 2.84106 8.20215 2.84106H7.1252C5.56426 2.84106 4.29395 4.11138 4.29395 5.67231V37.1231H19.9662V34.2661H7.1502L7.1334 14.2915ZM8.1416 5.60825C8.69824 6.93989 9.99004 7.80005 11.4318 7.80005C12.8729 7.80005 14.1646 6.93989 14.6607 5.69849L15.2803 5.60864C15.8369 6.94028 17.1287 7.80044 18.5705 7.80044C20.0115 7.80044 21.3033 6.94028 21.7994 5.69888L22.4475 5.60903C23.0041 6.94067 24.2959 7.80083 25.7377 7.80083C27.1787 7.80083 28.4705 6.94067 28.9666 5.69927L30.0088 5.67349V11.4352H7.13066L7.12559 5.69927L8.1416 5.60825Z" fill="#6311CB"/>
</svg>
