<svg width="40" height="40" viewBox="0 0 40 40" fill="none" xmlns="http://www.w3.org/2000/svg">
<g clip-path="url(#clip0_1009_19673)">
<path d="M20.1512 0C16.2633 0.00280997 12.4593 1.12178 9.19783 3.222C5.93634 5.32221 3.35661 8.31399 1.76971 11.8366C0.182818 15.3592 -0.343489 19.2622 0.254254 23.0749C0.851998 26.8877 2.54827 30.4475 5.13853 33.325C5.53306 33.7897 5.95353 34.2321 6.39798 34.65C6.67506 34.9125 6.96473 35.175 7.267 35.425C7.56927 35.675 8.01007 36 8.37531 36.25H7.55667C7.22265 36.25 6.9023 36.3817 6.66611 36.6161C6.42992 36.8505 6.29722 37.1685 6.29722 37.5C6.29722 37.8315 6.42992 38.1495 6.66611 38.3839C6.9023 38.6183 7.22265 38.75 7.55667 38.75H11.335C11.669 38.75 11.9894 38.6183 12.2256 38.3839C12.4618 38.1495 12.5945 37.8315 12.5945 37.5V33.75C12.5945 33.4185 12.4618 33.1005 12.2256 32.8661C11.9894 32.6317 11.669 32.5 11.335 32.5C11.001 32.5 10.6806 32.6317 10.4445 32.8661C10.2083 33.1005 10.0756 33.4185 10.0756 33.75V34.3375C9.69773 34.075 9.30731 33.8 8.90428 33.4875C8.50126 33.175 8.4131 33.0625 8.1864 32.8375C7.9597 32.6125 7.39294 32.075 7.01511 31.6625C4.32448 28.6749 2.74838 24.8614 2.55018 20.8591C2.35197 16.8569 3.54366 12.9083 5.92613 9.67324C8.30859 6.43819 11.7375 4.11261 15.6399 3.08511C19.5423 2.05761 23.6818 2.39042 27.3667 4.02794C31.0516 5.66546 34.0586 8.50848 35.8854 12.082C37.7121 15.6554 38.2479 19.7429 37.4032 23.6613C36.5586 27.5797 34.3845 31.0917 31.2445 33.6105C28.1044 36.1293 24.1885 37.5023 20.1512 37.5C18.9666 37.5049 17.7848 37.3876 16.6247 37.15C16.4593 37.1172 16.289 37.117 16.1236 37.1495C15.9581 37.182 15.8007 37.2465 15.6604 37.3393C15.52 37.4322 15.3995 37.5516 15.3056 37.6907C15.2118 37.8298 15.1464 37.9858 15.1134 38.15C15.0803 38.3142 15.0801 38.4832 15.1128 38.6474C15.1456 38.8116 15.2106 38.9678 15.3041 39.1071C15.3977 39.2464 15.518 39.366 15.6581 39.4592C15.7983 39.5523 15.9555 39.6172 16.1209 39.65C18.865 40.1648 21.6869 40.1078 24.4076 39.4828C27.1283 38.8578 29.6884 37.6783 31.9255 36.0193C34.1626 34.3602 36.0278 32.2578 37.4028 29.8453C38.7778 27.4329 39.6326 24.7631 39.9129 22.0054C40.1932 19.2477 39.8929 16.4623 39.0311 13.8259C38.1693 11.1895 36.7647 8.75968 34.9066 6.69057C33.0485 4.62147 30.7773 2.95827 28.2372 1.80651C25.6971 0.654748 22.9435 0.0395679 20.1512 0Z" fill="#6311CB"/>
<path d="M32.7456 20C32.7456 17.5277 32.007 15.111 30.6231 13.0554C29.2392 10.9998 27.2722 9.39761 24.9708 8.45151C22.6695 7.50542 20.1372 7.25787 17.6941 7.74019C15.251 8.2225 13.0069 9.41301 11.2455 11.1612C9.48411 12.9093 8.28461 15.1366 7.79865 17.5614C7.31268 19.9861 7.5621 22.4995 8.51534 24.7835C9.46859 27.0676 11.0829 29.0199 13.154 30.3934C15.2252 31.7669 17.6602 32.5 20.1511 32.5C23.4914 32.5 26.6948 31.183 29.0568 28.8388C31.4187 26.4946 32.7456 23.3152 32.7456 20ZM10.0755 20C10.0755 18.0222 10.6665 16.0888 11.7736 14.4443C12.8807 12.7998 14.4543 11.5181 16.2954 10.7612C18.1364 10.0043 20.1623 9.8063 22.1168 10.1922C24.0712 10.578 25.8665 11.5304 27.2756 12.9289C28.6847 14.3275 29.6443 16.1093 30.0331 18.0491C30.4219 19.9889 30.2224 21.9996 29.4598 23.8268C28.6972 25.6541 27.4057 27.2159 25.7488 28.3147C24.0919 29.4135 22.1439 30 20.1511 30C17.4789 30 14.9162 28.9464 13.0266 27.0711C11.1371 25.1957 10.0755 22.6522 10.0755 20Z" fill="#6311CB"/>
<path d="M21.4108 26.25V26.025C22.2438 25.725 22.944 25.144 23.3891 24.3836C23.8343 23.6231 23.9959 22.7316 23.8459 21.8649C23.6958 20.9981 23.2436 20.2113 22.5683 19.6419C21.8929 19.0725 21.0375 18.7568 20.1514 18.75C19.8174 18.75 19.497 18.6183 19.2608 18.3839C19.0246 18.1495 18.8919 17.8315 18.8919 17.5C18.8919 17.1685 19.0246 16.8505 19.2608 16.6161C19.497 16.3817 19.8174 16.25 20.1514 16.25H22.6703C23.0043 16.25 23.3247 16.1183 23.5609 15.8839C23.797 15.6495 23.9297 15.3315 23.9297 15C23.9297 14.6685 23.797 14.3505 23.5609 14.1161C23.3247 13.8817 23.0043 13.75 22.6703 13.75H21.4108C21.4108 13.4185 21.2781 13.1005 21.042 12.8661C20.8058 12.6317 20.4854 12.5 20.1514 12.5C19.8174 12.5 19.497 12.6317 19.2608 12.8661C19.0246 13.1005 18.8919 13.4185 18.8919 13.75V13.975C18.059 14.275 17.3587 14.856 16.9136 15.6164C16.4685 16.3769 16.3069 17.2684 16.4569 18.1351C16.607 19.0019 17.0592 19.7887 17.7345 20.3581C18.4098 20.9275 19.2653 21.2432 20.1514 21.25C20.4854 21.25 20.8058 21.3817 21.042 21.6161C21.2781 21.8505 21.4108 22.1685 21.4108 22.5C21.4108 22.8315 21.2781 23.1495 21.042 23.3839C20.8058 23.6183 20.4854 23.75 20.1514 23.75H17.6325C17.2985 23.75 16.9781 23.8817 16.7419 24.1161C16.5057 24.3505 16.373 24.6685 16.373 25C16.373 25.3315 16.5057 25.6495 16.7419 25.8839C16.9781 26.1183 17.2985 26.25 17.6325 26.25H18.8919C18.8919 26.5815 19.0246 26.8995 19.2608 27.1339C19.497 27.3683 19.8174 27.5 20.1514 27.5C20.4854 27.5 20.8058 27.3683 21.042 27.1339C21.2781 26.8995 21.4108 26.5815 21.4108 26.25Z" fill="#6311CB"/>
</g>
<defs>
<clipPath id="clip0_1009_19673">
<rect width="40" height="40" fill="white"/>
</clipPath>
</defs>
</svg>
