<svg width="46" height="50" viewBox="0 0 46 50" fill="none" xmlns="http://www.w3.org/2000/svg">
<path fill-rule="evenodd" clip-rule="evenodd" d="M22.6228 49.1689C32.779 49.1689 41.4968 43.0104 45.2455 34.224C41.7403 32.4345 39.3402 28.7894 39.3402 24.5838C39.3402 20.3783 41.7401 16.7334 45.245 14.9438C41.496 6.15802 32.7786 0 22.6228 0C12.4669 0 3.7494 6.1581 0.000493148 14.944C3.50523 16.7337 5.90492 20.3785 5.90492 24.5838C5.90492 28.7893 3.505 32.4342 0 34.2238C3.74864 43.0103 12.4665 49.1689 22.6228 49.1689ZM22.6228 41.3018C31.8556 41.3018 39.3402 33.8172 39.3402 24.5844C39.3402 15.3516 31.8556 7.86696 22.6228 7.86696C13.39 7.86696 5.90535 15.3516 5.90535 24.5844C5.90535 33.8172 13.39 41.3018 22.6228 41.3018Z" fill="white"/>
</svg>
