<svg width="67" height="25" viewBox="0 0 67 25" fill="none" xmlns="http://www.w3.org/2000/svg">
<path d="M24.322 7.8658C23.2694 8.02257 22.4586 8.35852 21.7688 8.91843C21.0342 9.51417 20.5505 10.3787 20.3982 11.3775C20.3668 11.5746 20.3578 11.9554 20.3713 12.2958C20.4071 13.223 20.6221 13.8322 21.1641 14.5489C21.9077 15.5343 23.126 16.1301 24.6669 16.2644C26.378 16.4078 27.9681 15.8882 28.9222 14.8759C29.6523 14.1054 29.9345 13.3887 29.9748 12.2286C29.9928 11.7225 29.9838 11.494 29.9211 11.1984C29.6434 9.82772 28.6848 8.72582 27.3142 8.20622C26.6378 7.94642 26.2033 7.87476 25.285 7.86132C24.8282 7.85236 24.3981 7.85684 24.322 7.8658ZM26.3287 9.22302C27.4709 9.52313 28.2862 10.3518 28.4698 11.3955C28.546 11.8389 28.5012 12.7169 28.3802 13.0483C28.1204 13.7784 27.6501 14.3115 26.9782 14.6385C26.4093 14.9117 26.0286 14.9834 25.1507 14.9789C24.4788 14.9744 24.3758 14.9654 24.0085 14.8535C22.9021 14.5175 22.2033 13.8277 21.948 12.8333C21.8674 12.5242 21.8584 11.7404 21.9301 11.3507C21.9525 11.2073 22.0644 10.9027 22.172 10.6788C22.3332 10.3473 22.4273 10.2219 22.705 9.95762C23.1843 9.49625 23.6546 9.28573 24.5236 9.11999C24.5863 9.11104 24.9401 9.10656 25.3074 9.11552C25.8091 9.12447 26.0689 9.15135 26.3287 9.22302Z" fill="white"/>
<path d="M45.8562 8.11291C45.6053 8.23833 45.4844 8.43542 45.4844 8.73105C45.4844 8.99981 45.5605 9.17002 45.7531 9.33127C46.1428 9.66274 46.864 9.58659 47.1283 9.18794C47.2671 8.98637 47.2671 8.6549 47.1327 8.4175C46.9267 8.05468 46.2862 7.89791 45.8562 8.11291Z" fill="white"/>
<path d="M56.3937 8.30469C56.2056 8.38532 56.0219 8.61376 55.9861 8.80189C55.9368 9.07513 56.004 9.27669 56.2145 9.48274C56.649 9.89483 57.3971 9.83212 57.6345 9.35732C57.8047 9.03481 57.6793 8.6048 57.3523 8.3898C57.1955 8.28677 57.1059 8.26438 56.8461 8.25094C56.6445 8.24646 56.4788 8.26438 56.3937 8.30469Z" fill="white"/>
<path d="M59.227 8.33127C59.012 8.39398 58.8418 8.55076 58.7657 8.75681C58.5507 9.31672 59.0747 9.86767 59.7601 9.796C60.4454 9.72433 60.6828 8.98077 60.1632 8.52388C59.9213 8.30888 59.5495 8.23273 59.227 8.33127Z" fill="white"/>
<path d="M48.666 8.9898C48.666 9.28096 48.6884 10.244 48.7108 11.1309C48.7332 12.0178 48.7646 13.478 48.778 14.3784C48.7914 15.2787 48.8138 16.0984 48.8273 16.2014L48.8497 16.394H49.526H50.2024L50.1711 14.7725L50.1352 13.1555L52.6033 13.1869L55.0714 13.2227L55.0445 12.6225C55.0266 12.2731 54.9908 12.0133 54.9639 11.9954C54.937 11.9775 54.4801 11.9596 53.9516 11.9596C53.423 11.9596 52.339 11.9461 51.5507 11.9282L50.1128 11.9013L50.077 10.8263C50.0591 10.2395 50.0635 9.73784 50.0859 9.71992C50.1039 9.70201 51.2326 9.71097 52.5854 9.73784C53.9426 9.7692 55.0624 9.77815 55.0803 9.76472C55.0983 9.75128 55.1027 9.48252 55.0848 9.17345L55.0579 8.60906L54.3816 8.58219C53.6246 8.55531 49.5529 8.46573 49.0154 8.46573H48.666V8.9898Z" fill="white"/>
<path d="M40.7438 9.25928C40.6408 9.57731 40.5109 9.94461 40.4616 10.0835L40.3765 10.3298L39.727 10.4821L39.082 10.6299V10.93V11.2302L39.7136 11.257C40.063 11.2705 40.3541 11.2929 40.3631 11.3018C40.3721 11.3108 40.39 12.0319 40.4079 12.9054C40.4303 14.2447 40.4482 14.5448 40.5199 14.8405C40.6677 15.472 40.9947 15.8931 41.5412 16.1708C41.9309 16.3634 42.325 16.444 42.9297 16.444C43.4762 16.4485 43.7897 16.4037 44.2825 16.2649C44.7976 16.117 44.7707 16.1574 44.7707 15.5482C44.7707 15.257 44.7573 15.0107 44.7438 14.9927C44.7259 14.9793 44.6722 14.9927 44.6184 15.0286C44.3631 15.1943 43.9868 15.2839 43.4224 15.3063C42.7102 15.3377 42.4415 15.2705 42.1548 14.9927C41.8368 14.6882 41.8144 14.5627 41.783 12.7979L41.7562 11.2839L43.1716 11.3153L44.5915 11.3466V10.8494C44.5915 10.5762 44.5736 10.3433 44.5512 10.3298C44.5288 10.3119 43.8928 10.2895 43.1403 10.2716L41.7696 10.2447L41.7606 9.61314C41.7562 9.26376 41.7517 8.91885 41.7472 8.84718L41.7427 8.71281L41.3441 8.69937L40.9409 8.69041L40.7438 9.25928Z" fill="white"/>
<path d="M35.1146 10.0168C35.0653 10.0257 34.913 10.0571 34.7786 10.084C34.0888 10.2228 33.296 10.7827 32.8615 11.4322C32.8033 11.5263 32.7361 11.6024 32.7226 11.6024C32.7047 11.6024 32.6958 11.2665 32.6958 10.8499V10.1019L31.9925 10.0885L31.2848 10.075V11.1859C31.2848 11.7995 31.2714 13.5823 31.2534 15.15L31.2266 18.0078H31.9477H32.6734V16.3281C32.6734 15.4054 32.6868 14.6484 32.7092 14.6484C32.7271 14.6528 32.7988 14.7469 32.8705 14.8589C33.2064 15.3874 33.9052 15.9653 34.4516 16.1713C35.2982 16.4893 36.324 16.4535 37.081 16.0728C37.7529 15.7368 38.2725 15.1276 38.5278 14.3572C38.6398 14.0257 38.6487 13.9406 38.6532 13.2598C38.6532 12.6596 38.6353 12.4669 38.5681 12.2295C38.3262 11.3964 37.7663 10.7021 37.0631 10.3572C36.8525 10.2542 36.5614 10.1377 36.4136 10.0974C36.1493 10.0302 35.2937 9.97199 35.1146 10.0168ZM35.5849 11.1142C36.5524 11.2665 37.175 11.9787 37.2646 13.0448C37.3184 13.6584 37.1302 14.2407 36.7405 14.6708C36.1269 15.3426 35.0787 15.4725 34.156 14.9843C33.5961 14.6887 33.1795 14.2363 32.8212 13.542L32.6286 13.1657L32.8615 12.7133C33.3094 11.8354 34.0395 11.2486 34.8369 11.1142C35.1638 11.0605 35.2534 11.0605 35.5849 11.1142Z" fill="white"/>
<path d="M45.7241 11.6281C45.7421 12.3672 45.7689 13.7289 45.7824 14.6561L45.8137 16.3492H46.508H47.1978L47.1709 15.6415C47.1575 15.2563 47.1351 14.132 47.1217 13.1466C47.1082 12.1611 47.0858 11.1174 47.0724 10.8308L47.0455 10.3022L46.8574 10.3381C46.611 10.3784 46.1855 10.3784 45.9168 10.3291L45.6973 10.2888L45.7241 11.6281Z" fill="white"/>
<path d="M56.2515 11.0953C56.2649 11.4357 56.3142 12.775 56.3545 14.0696L56.4351 16.4301L56.6591 16.457C56.7845 16.4704 57.0846 16.4839 57.3265 16.4839H57.761V16.1479C57.761 15.8389 57.5953 11.0908 57.5684 10.6832C57.5594 10.4861 57.5818 10.4906 57.1249 10.5668C56.9816 10.5936 56.8069 10.5936 56.7218 10.5712C56.6412 10.5533 56.4934 10.522 56.3993 10.5041L56.2246 10.4727L56.2515 11.0953Z" fill="white"/>
<path d="M58.9802 10.871C58.9981 11.0636 59.0519 12.3895 59.1056 13.8184C59.1594 15.2472 59.2131 16.4298 59.2311 16.4477C59.2445 16.4611 59.5491 16.4835 59.9029 16.4925L60.5435 16.5059L60.5166 15.7668C60.4853 14.9337 60.427 13.5899 60.3509 11.8027C60.324 11.1353 60.2926 10.5843 60.2837 10.5754C60.2747 10.5619 60.118 10.5754 59.9388 10.6067C59.6835 10.6425 59.558 10.6425 59.3251 10.5933C59.1639 10.5574 59.016 10.5306 58.9937 10.5261C58.9713 10.5261 58.9668 10.6784 58.9802 10.871Z" fill="white"/>
<path fill-rule="evenodd" clip-rule="evenodd" d="M11.0669 -9.53674e-06C6.09855 -9.53674e-06 1.83384 3.01256 -0.000225067 7.31066C1.68898 8.17209 2.85409 9.91417 2.89001 11.9318C2.94082 7.45869 6.58273 3.84822 11.0679 3.84822C15.5781 3.84822 19.2356 7.49911 19.2463 12.0068C19.2545 9.95865 20.4262 8.18496 22.1348 7.31247C20.3011 3.0134 16.0359 -9.53674e-06 11.0669 -9.53674e-06ZM22.1339 16.7438C20.2997 21.0418 16.0351 24.0542 11.0669 24.0542C6.09906 24.0542 1.83471 21.0423 0.000339508 16.7449C1.6895 15.8832 2.85445 14.1409 2.89003 12.123C2.94168 16.5954 6.58325 20.2051 11.0679 20.2051C15.5774 20.2051 19.2345 16.5553 19.2463 12.0486C19.254 14.097 20.4254 15.871 22.1339 16.7438Z" fill="white"/>
<path d="M63.7039 8.16658C62.7938 8.23536 62.0023 8.83449 61.6863 9.69379C61.5497 10.0616 61.5098 10.4983 61.5766 10.8871C61.7172 11.7135 62.2924 12.4063 63.0769 12.6954C63.6192 12.8948 64.2522 12.8808 64.7856 12.6565C65.3837 12.4063 65.8572 11.9118 66.0805 11.3028C66.2161 10.9369 66.2559 10.4963 66.1902 10.1095C66.0645 9.36981 65.591 8.7328 64.9251 8.40483C64.63 8.26028 64.3738 8.1905 64.0429 8.16558C63.8943 8.15461 63.8575 8.15461 63.7039 8.16658ZM64.1874 8.351C64.4187 8.3839 64.637 8.45268 64.8454 8.55636C65.0697 8.669 65.2371 8.78963 65.4196 8.97205C65.7545 9.309 65.9659 9.73267 66.0326 10.2062C66.0546 10.3627 66.0546 10.6348 66.0326 10.7904C65.9649 11.2659 65.7535 11.6895 65.4146 12.0295C65.0756 12.3674 64.6629 12.5748 64.1824 12.6465C64.0299 12.6705 63.7398 12.6705 63.5893 12.6475C63.2005 12.5877 62.8686 12.4482 62.5525 12.2099C62.4499 12.1322 62.2495 11.9318 62.1717 11.8291C61.9325 11.5121 61.7879 11.1692 61.7341 10.7904C61.7122 10.6338 61.7122 10.3627 61.7341 10.2062C61.7879 9.82638 61.9325 9.48545 62.1717 9.16744C62.2495 9.06476 62.4499 8.86439 62.5525 8.78664C62.9204 8.50851 63.2872 8.37094 63.7638 8.33106C63.8415 8.32408 64.0837 8.33605 64.1874 8.351Z" fill="white"/>
<path d="M62.1289 9.66568V9.77035H62.413H62.6971V10.6127V11.4551H62.8267H62.9563V10.6127V9.77035H63.2404H63.5245V9.66568V9.56101H62.8267H62.1289V9.66568Z" fill="white"/>
<path d="M63.8015 9.57696C63.8015 9.60487 63.6829 11.3265 63.6769 11.3923L63.6699 11.4551H63.7905H63.9102L63.9152 11.4122C63.9231 11.3484 63.97 10.535 63.9809 10.2588C63.9869 10.1242 63.9939 9.97671 63.9969 9.92986L64.0029 9.84512L64.0457 10.0016C64.1016 10.206 64.0916 10.1731 64.3179 10.854L64.5143 11.4451H64.61C64.6927 11.4451 64.7077 11.4421 64.7137 11.4272C64.7525 11.3285 65.1114 10.3117 65.1782 10.1093C65.226 9.96375 65.2659 9.85409 65.2669 9.86506C65.2669 9.87602 65.2719 9.99066 65.2769 10.1193C65.2908 10.4492 65.3357 11.3404 65.3427 11.4022L65.3477 11.4551H65.4723H65.5959L65.5899 11.3973C65.5869 11.3664 65.563 10.9746 65.5361 10.528C65.5092 10.0814 65.4842 9.68064 65.4803 9.63777L65.4743 9.56101L65.3148 9.563L65.1553 9.56599L65.0067 9.96973C64.8233 10.4662 64.7446 10.6935 64.6837 10.9068C64.6249 11.1161 64.6279 11.1082 64.617 11.0663C64.5332 10.7433 64.4654 10.532 64.2371 9.885L64.1245 9.56599L63.963 9.563C63.8195 9.56101 63.8015 9.56201 63.8015 9.57696Z" fill="white"/>
</svg>
