<svg width="67" height="27" viewBox="0 0 67 27" fill="none" xmlns="http://www.w3.org/2000/svg">
<path fill-rule="evenodd" clip-rule="evenodd" d="M12.3932 26.9357C17.9573 26.9357 22.7333 23.5615 24.7867 18.7476C22.8679 17.7668 21.5543 15.7707 21.5543 13.4678C21.5543 11.1649 22.8679 9.16885 24.7867 8.18804C22.7333 3.3742 17.9573 0 12.3932 0C6.82938 0 2.05358 3.37382 0 8.18722C1.91088 9.16323 3.22199 11.146 3.23399 13.4361C3.25102 8.39275 7.34471 4.30957 12.3921 4.30957C17.45 4.30957 21.5502 8.40981 21.5502 13.4677C21.5502 18.5256 17.45 22.6258 12.3921 22.6258C7.34476 22.6258 3.25111 18.5427 3.23399 13.4994C3.22203 15.7896 1.91091 17.7724 7.38801e-07 18.7485C2.05358 23.5619 6.82938 26.9357 12.3932 26.9357Z" fill="url(#paint0_linear_1717_8290)"/>
<path d="M27.7683 8.71208C26.651 8.87849 25.7904 9.23508 25.0582 9.8294C24.2785 10.4618 23.765 11.3794 23.6033 12.4397C23.57 12.6489 23.5605 13.053 23.5748 13.4143C23.6128 14.3985 23.841 15.0452 24.4163 15.8059C25.2056 16.8519 26.4988 17.4843 28.1344 17.6269C29.9506 17.779 31.6385 17.2275 32.6512 16.153C33.4262 15.3352 33.7258 14.5745 33.7686 13.343C33.7876 12.8058 33.7781 12.5633 33.7115 12.2495C33.4167 10.7946 32.3992 9.62496 30.9444 9.07343C30.2264 8.79766 29.7652 8.72159 28.7905 8.70732C28.3056 8.69782 27.8491 8.70257 27.7683 8.71208ZM29.8983 10.1527C31.1108 10.4713 31.9761 11.3509 32.171 12.4587C32.2519 12.9294 32.2043 13.8613 32.0759 14.2131C31.8002 14.9881 31.3009 15.5539 30.5878 15.901C29.9839 16.191 29.5798 16.2671 28.6479 16.2623C27.9347 16.2576 27.8254 16.2481 27.4355 16.1292C26.2611 15.7726 25.5194 15.0404 25.2484 13.9849C25.1628 13.6568 25.1533 12.8248 25.2294 12.4111C25.2531 12.259 25.372 11.9357 25.4861 11.6979C25.6573 11.3461 25.7571 11.213 26.0519 10.9325C26.5606 10.4427 27.0599 10.2193 27.9823 10.0434C28.0488 10.0338 28.4244 10.0291 28.8143 10.0386C29.3468 10.0481 29.6226 10.0766 29.8983 10.1527Z" fill="url(#paint1_linear_1717_8290)"/>
<path d="M50.629 8.97378C50.3627 9.10691 50.2344 9.31611 50.2344 9.62991C50.2344 9.91518 50.3152 10.0959 50.5196 10.267C50.9333 10.6189 51.6988 10.538 51.9793 10.1149C52.1267 9.90092 52.1267 9.54908 51.9841 9.29709C51.7653 8.91197 51.0854 8.74556 50.629 8.97378Z" fill="url(#paint2_linear_1717_8290)"/>
<path d="M61.8123 9.17788C61.6126 9.26346 61.4177 9.50594 61.3796 9.70563C61.3273 9.99566 61.3986 10.2096 61.6221 10.4283C62.0833 10.8657 62.8773 10.7992 63.1293 10.2952C63.31 9.95287 63.1768 9.49643 62.8298 9.26821C62.6633 9.15886 62.5683 9.13508 62.2925 9.12082C62.0785 9.11607 61.9026 9.13508 61.8123 9.17788Z" fill="url(#paint3_linear_1717_8290)"/>
<path d="M64.8209 9.20711C64.5927 9.27368 64.412 9.44009 64.3312 9.6588C64.1029 10.2531 64.6592 10.8379 65.3867 10.7619C66.1141 10.6858 66.3661 9.89653 65.8146 9.41156C65.5578 9.18334 65.1632 9.10251 64.8209 9.20711Z" fill="url(#paint4_linear_1717_8290)"/>
<path d="M53.6094 9.90584C53.6094 10.2149 53.6331 11.2371 53.6569 12.1785C53.6807 13.1199 53.714 14.6699 53.7282 15.6256C53.7425 16.5813 53.7663 17.4513 53.7805 17.5607L53.8043 17.7651H54.5223H55.2402L55.2069 16.044L55.1689 14.3276L57.7886 14.3609L60.4084 14.3989L60.3799 13.7618C60.3609 13.3909 60.3228 13.1152 60.2943 13.0962C60.2658 13.0771 59.7808 13.0581 59.2198 13.0581C58.6587 13.0581 57.5081 13.0439 56.6713 13.0248L55.1451 12.9963L55.1071 11.8552C55.088 11.2324 55.0928 10.6999 55.1166 10.6808C55.1356 10.6618 56.3337 10.6713 57.7696 10.6999C59.2103 10.7331 60.3989 10.7426 60.4179 10.7284C60.4369 10.7141 60.4417 10.4288 60.4227 10.1008L60.3941 9.50171L59.6762 9.47318C58.8727 9.44465 54.5508 9.34956 53.9802 9.34956H53.6094V9.90584Z" fill="url(#paint5_linear_1717_8290)"/>
<path d="M45.1975 10.1913C45.0882 10.5289 44.9503 10.9187 44.898 11.0661L44.8077 11.3276L44.1183 11.4893L43.4336 11.6462V11.9647V12.2833L44.104 12.3118C44.4748 12.3261 44.7839 12.3499 44.7934 12.3594C44.8029 12.3689 44.8219 13.1344 44.8409 14.0615C44.8647 15.4831 44.8837 15.8017 44.9598 16.1155C45.1167 16.7859 45.4638 17.2328 46.0438 17.5276C46.4575 17.732 46.8759 17.8176 47.5178 17.8176C48.0978 17.8224 48.4306 17.7748 48.9536 17.6274C49.5004 17.4705 49.4719 17.5133 49.4719 16.8667C49.4719 16.5577 49.4576 16.2962 49.4434 16.2771C49.4243 16.2629 49.3673 16.2771 49.3102 16.3152C49.0392 16.4911 48.6398 16.5862 48.0408 16.61C47.2848 16.6432 46.9995 16.5719 46.6952 16.2771C46.3577 15.9538 46.3339 15.8207 46.3006 13.9474L46.2721 12.3404L47.7745 12.3736L49.2817 12.4069V11.8792C49.2817 11.5891 49.2627 11.3419 49.2389 11.3276C49.2151 11.3086 48.54 11.2848 47.7412 11.2658L46.2863 11.2373L46.2768 10.5669C46.2721 10.196 46.2673 9.82995 46.2626 9.75387L46.2578 9.61124L45.8346 9.59697L45.4067 9.58746L45.1975 10.1913Z" fill="url(#paint6_linear_1717_8290)"/>
<path d="M39.2266 10.9944C39.1743 11.0039 39.0126 11.0372 38.87 11.0657C38.1378 11.2131 37.2962 11.8075 36.835 12.4969C36.7732 12.5967 36.7019 12.6775 36.6876 12.6775C36.6686 12.6775 36.6591 12.3209 36.6591 11.8788V11.0848L35.9126 11.0705L35.1614 11.0562V12.2354C35.1614 12.8867 35.1472 14.7791 35.1281 16.4432L35.0996 19.4766H35.8651H36.6353V17.6936C36.6353 16.7142 36.6496 15.9106 36.6734 15.9106C36.6924 15.9154 36.7685 16.0152 36.8445 16.1341C37.2011 16.6951 37.9428 17.3085 38.5229 17.5272C39.4215 17.8648 40.5103 17.8267 41.3138 17.4226C42.027 17.066 42.5785 16.4194 42.8495 15.6016C42.9684 15.2498 42.9779 15.1594 42.9827 14.4367C42.9827 13.7996 42.9637 13.5952 42.8923 13.3432C42.6356 12.4588 42.0413 11.7219 41.2948 11.3558C41.0713 11.2464 40.7623 11.1228 40.6054 11.08C40.3249 11.0087 39.4168 10.9469 39.2266 10.9944ZM39.7258 12.1593C40.7528 12.3209 41.4137 13.0769 41.5088 14.2085C41.5658 14.8599 41.3661 15.478 40.9525 15.9344C40.3011 16.6476 39.1885 16.7855 38.2091 16.2672C37.6148 15.9534 37.1726 15.4732 36.7922 14.7363L36.5878 14.3369L36.835 13.8567C37.3105 12.9248 38.0855 12.3019 38.9318 12.1593C39.2789 12.1022 39.374 12.1022 39.7258 12.1593Z" fill="url(#paint7_linear_1717_8290)"/>
<path d="M50.4856 12.7055C50.5046 13.49 50.5331 14.9354 50.5474 15.9196L50.5806 17.7168H51.3176H52.0498L52.0213 16.9656C52.007 16.5567 51.9832 15.3633 51.969 14.3173C51.9547 13.2713 51.9309 12.1635 51.9167 11.8592L51.8882 11.2981L51.6885 11.3362C51.427 11.379 50.9753 11.379 50.69 11.3267L50.457 11.2839L50.4856 12.7055Z" fill="url(#paint8_linear_1717_8290)"/>
<path d="M61.6594 12.1401C61.6737 12.5015 61.726 13.9231 61.7687 15.2972L61.8543 17.8028L62.0921 17.8313C62.2252 17.8456 62.5437 17.8599 62.8005 17.8599H63.2617V17.5033C63.2617 17.1752 63.0858 12.1354 63.0572 11.7027C63.0477 11.4935 63.0715 11.4983 62.5865 11.5791C62.4344 11.6076 62.249 11.6076 62.1586 11.5838C62.073 11.5648 61.9161 11.5315 61.8163 11.5125L61.6309 11.4792L61.6594 12.1401Z" fill="url(#paint9_linear_1717_8290)"/>
<path d="M64.5588 11.9021C64.5778 12.1065 64.6349 13.5139 64.6919 15.0306C64.749 16.5473 64.806 17.8025 64.8251 17.8215C64.8393 17.8358 65.1626 17.8595 65.5382 17.869L66.2181 17.8833L66.1896 17.0988C66.1563 16.2144 66.0945 14.7881 66.0137 12.891C65.9852 12.1826 65.9519 11.5978 65.9424 11.5883C65.9329 11.574 65.7665 11.5883 65.5763 11.6215C65.3053 11.6596 65.1721 11.6596 64.9249 11.6073C64.7537 11.5692 64.5968 11.5407 64.5731 11.536C64.5493 11.536 64.5445 11.6976 64.5588 11.9021Z" fill="url(#paint10_linear_1717_8290)"/>
<defs>
<linearGradient id="paint0_linear_1717_8290" x1="12.3933" y1="2.96653e-08" x2="12.3907" y2="34.1185" gradientUnits="userSpaceOnUse">
<stop stop-color="#5E0FCD"/>
<stop offset="0.553414" stop-color="#C942AB"/>
<stop offset="1" stop-color="#3725EA"/>
</linearGradient>
<linearGradient id="paint1_linear_1717_8290" x1="23.5684" y1="13.177" x2="33.7772" y2="13.177" gradientUnits="userSpaceOnUse">
<stop stop-color="#6311CB"/>
<stop offset="1" stop-color="#C33FAD"/>
</linearGradient>
<linearGradient id="paint2_linear_1717_8290" x1="50.2344" y1="9.67908" x2="52.0904" y2="9.67908" gradientUnits="userSpaceOnUse">
<stop stop-color="#6311CB"/>
<stop offset="1" stop-color="#C33FAD"/>
</linearGradient>
<linearGradient id="paint3_linear_1717_8290" x1="61.3633" y1="9.91943" x2="63.2099" y2="9.91943" gradientUnits="userSpaceOnUse">
<stop stop-color="#6311CB"/>
<stop offset="1" stop-color="#C33FAD"/>
</linearGradient>
<linearGradient id="paint4_linear_1717_8290" x1="64.2793" y1="9.96526" x2="66.1134" y2="9.96526" gradientUnits="userSpaceOnUse">
<stop stop-color="#6311CB"/>
<stop offset="1" stop-color="#C33FAD"/>
</linearGradient>
<linearGradient id="paint5_linear_1717_8290" x1="53.6094" y1="13.5573" x2="60.4348" y2="13.5573" gradientUnits="userSpaceOnUse">
<stop stop-color="#6311CB"/>
<stop offset="1" stop-color="#C33FAD"/>
</linearGradient>
<linearGradient id="paint6_linear_1717_8290" x1="43.4336" y1="13.7027" x2="49.4721" y2="13.7027" gradientUnits="userSpaceOnUse">
<stop stop-color="#6311CB"/>
<stop offset="1" stop-color="#C33FAD"/>
</linearGradient>
<linearGradient id="paint7_linear_1717_8290" x1="35.0996" y1="15.2271" x2="42.9827" y2="15.2271" gradientUnits="userSpaceOnUse">
<stop stop-color="#6311CB"/>
<stop offset="1" stop-color="#C33FAD"/>
</linearGradient>
<linearGradient id="paint8_linear_1717_8290" x1="50.457" y1="14.5003" x2="52.0498" y2="14.5003" gradientUnits="userSpaceOnUse">
<stop stop-color="#6311CB"/>
<stop offset="1" stop-color="#C33FAD"/>
</linearGradient>
<linearGradient id="paint9_linear_1717_8290" x1="61.6309" y1="14.6696" x2="63.2617" y2="14.6696" gradientUnits="userSpaceOnUse">
<stop stop-color="#6311CB"/>
<stop offset="1" stop-color="#C33FAD"/>
</linearGradient>
<linearGradient id="paint10_linear_1717_8290" x1="64.5508" y1="14.7096" x2="66.2181" y2="14.7096" gradientUnits="userSpaceOnUse">
<stop stop-color="#6311CB"/>
<stop offset="1" stop-color="#C33FAD"/>
</linearGradient>
</defs>
</svg>
