<svg width="112" height="46" viewBox="0 0 112 46" fill="none" xmlns="http://www.w3.org/2000/svg">
<path fill-rule="evenodd" clip-rule="evenodd" d="M20.9607 45.557C30.371 45.557 38.4486 39.8506 41.9217 31.7094C38.6746 30.0511 36.4513 26.6741 36.4513 22.7778C36.4513 18.8817 38.6744 15.5049 41.9213 13.8465C38.4479 5.70589 30.3706 0 20.9607 0C11.5511 0 3.47408 5.7055 0.000457089 13.8457C3.22516 15.492 5.4404 18.8332 5.4717 22.6949C5.51677 14.1789 12.4342 7.28926 20.9608 7.28926C29.5154 7.28926 36.4502 14.2241 36.4502 22.7786C36.4502 31.3332 29.5154 38.268 20.9608 38.268C12.4339 38.268 5.51625 31.3778 5.47169 22.8614C5.44016 26.723 3.22477 30.0641 0 31.7102C3.47337 39.8509 11.5507 45.557 20.9607 45.557Z" fill="url(#paint0_linear_1816_8383)"/>
<path d="M46.9677 14.7348C45.078 15.0162 43.6225 15.6194 42.3841 16.6245C41.0653 17.6941 40.1968 19.2461 39.9234 21.0393C39.8671 21.3932 39.851 22.0767 39.8751 22.6878C39.9394 24.3524 40.3254 25.4461 41.2985 26.7327C42.6334 28.5018 44.8206 29.5714 47.5869 29.8126C50.6588 30.0699 53.5135 29.1371 55.2263 27.3197C56.5371 25.9366 57.0437 24.65 57.1161 22.5672C57.1483 21.6585 57.1322 21.2484 57.0196 20.7177C56.521 18.257 54.8001 16.2788 52.3394 15.3459C51.1252 14.8795 50.3452 14.7509 48.6966 14.7267C47.8764 14.7107 47.1044 14.7187 46.9677 14.7348ZM50.5703 17.1714C52.6209 17.7101 54.0845 19.1978 54.4142 21.0715C54.5509 21.8676 54.4704 23.4437 54.2533 24.0388C53.7869 25.3496 52.9426 26.3065 51.7363 26.8935C50.7151 27.3841 50.0315 27.5127 48.4554 27.5047C47.2492 27.4967 47.0642 27.4806 46.4048 27.2795C44.4186 26.6764 43.1641 25.438 42.7057 23.6528C42.561 23.098 42.5449 21.6907 42.6736 20.9911C42.7138 20.7338 42.9148 20.1869 43.1078 19.7849C43.3973 19.1898 43.5662 18.9646 44.0647 18.4902C44.9252 17.6619 45.7695 17.2839 47.3296 16.9864C47.4422 16.9703 48.0775 16.9623 48.7369 16.9784C49.6375 16.9945 50.1039 17.0427 50.5703 17.1714Z" fill="url(#paint1_linear_1816_8383)"/>
<path d="M85.6313 15.1771C85.181 15.4022 84.9639 15.7561 84.9639 16.2868C84.9639 16.7693 85.1006 17.0749 85.4464 17.3644C86.146 17.9594 87.4407 17.8227 87.9151 17.107C88.1644 16.7452 88.1644 16.1501 87.9231 15.7239C87.5532 15.0725 86.4033 14.7911 85.6313 15.1771Z" fill="url(#paint2_linear_1816_8383)"/>
<path d="M104.546 15.523C104.208 15.6678 103.878 16.0779 103.814 16.4156C103.725 16.9062 103.846 17.268 104.224 17.6379C105.004 18.3778 106.347 18.2652 106.773 17.4128C107.079 16.8338 106.853 16.0618 106.266 15.6758C105.985 15.4909 105.824 15.4507 105.358 15.4265C104.996 15.4185 104.698 15.4507 104.546 15.523Z" fill="url(#paint3_linear_1816_8383)"/>
<path d="M109.636 15.5715C109.25 15.6841 108.944 15.9655 108.807 16.3354C108.421 17.3406 109.362 18.3297 110.593 18.2011C111.823 18.0724 112.249 16.7375 111.316 15.9173C110.882 15.5313 110.215 15.3946 109.636 15.5715Z" fill="url(#paint4_linear_1816_8383)"/>
<path d="M90.6738 16.753C90.6738 17.2757 90.714 19.0047 90.7542 20.5969C90.7945 22.1891 90.8507 24.8106 90.8749 26.427C90.899 28.0433 90.9392 29.5149 90.9633 29.6999L91.0035 30.0457H92.2178H93.4321L93.3758 27.1346L93.3114 24.2316L97.7423 24.2879L102.173 24.3523L102.125 23.2747C102.093 22.6475 102.028 22.1811 101.98 22.1489C101.932 22.1167 101.112 22.0846 100.163 22.0846C99.2139 22.0846 97.2679 22.0604 95.8526 22.0283L93.2712 21.98L93.2069 20.0501C93.1747 18.9966 93.1828 18.096 93.223 18.0638C93.2552 18.0316 95.2816 18.0477 97.7101 18.096C100.147 18.1523 102.157 18.1684 102.189 18.1442C102.221 18.1201 102.229 17.6376 102.197 17.0827L102.149 16.0695L100.935 16.0213C99.5758 15.973 92.266 15.8122 91.3011 15.8122H90.6738V16.753Z" fill="url(#paint5_linear_1816_8383)"/>
<path d="M76.4473 17.2361C76.2623 17.8071 76.0291 18.4665 75.9407 18.7158L75.7879 19.1581L74.6218 19.4315L73.4639 19.6968V20.2356V20.7744L74.5977 20.8226C75.225 20.8468 75.7477 20.887 75.7637 20.9031C75.7798 20.9191 75.812 22.2138 75.8442 23.7819C75.8844 26.1863 75.9165 26.7251 76.0452 27.2559C76.3106 28.3897 76.8976 29.1456 77.8787 29.6442C78.5783 29.99 79.2859 30.1347 80.3715 30.1347C81.3526 30.1428 81.9155 30.0623 82.8001 29.8131C83.7248 29.5477 83.6766 29.6201 83.6766 28.5264C83.6766 28.0037 83.6525 27.5614 83.6283 27.5293C83.5962 27.5051 83.4997 27.5293 83.4032 27.5936C82.9448 27.8911 82.2693 28.052 81.2561 28.0922C79.9775 28.1485 79.495 28.0278 78.9803 27.5293C78.4094 26.9824 78.3692 26.7573 78.3129 23.5889L78.2646 20.8709L80.8058 20.9272L83.3549 20.9835V20.0909C83.3549 19.6003 83.3228 19.1822 83.2825 19.1581C83.2423 19.1259 82.1004 19.0857 80.7495 19.0535L78.2888 19.0053L78.2727 17.8714C78.2646 17.2442 78.2566 16.625 78.2486 16.4963L78.2405 16.2551L77.5248 16.2309L76.8011 16.2149L76.4473 17.2361Z" fill="url(#paint6_linear_1816_8383)"/>
<path d="M66.3472 18.5951C66.2588 18.6112 65.9853 18.6675 65.7441 18.7157C64.5057 18.965 63.0824 19.9702 62.3023 21.1362C62.1978 21.3051 62.0772 21.4418 62.0531 21.4418C62.0209 21.4418 62.0048 20.8387 62.0048 20.0908V18.7479L60.7423 18.7238L59.4717 18.6997V20.6939C59.4717 21.7956 59.4476 24.9962 59.4154 27.8107L59.3672 32.9412H60.6619H61.9646V29.9256C61.9646 28.269 61.9887 26.91 62.0289 26.91C62.0611 26.9181 62.1898 27.0869 62.3184 27.288C62.9215 28.2369 64.176 29.2742 65.1571 29.6441C66.6769 30.2151 68.5184 30.1508 69.8774 29.4672C71.0837 28.8641 72.0165 27.7705 72.4748 26.3873C72.6759 25.7923 72.692 25.6395 72.7 24.4172C72.7 23.3396 72.6678 22.9938 72.5472 22.5676C72.113 21.0719 71.1078 19.8255 69.8453 19.2063C69.4673 19.0213 68.9446 18.8122 68.6793 18.7399C68.2048 18.6192 66.6689 18.5147 66.3472 18.5951ZM67.1916 20.5653C68.9285 20.8387 70.0463 22.1173 70.2071 24.0312C70.3036 25.1329 69.9659 26.1783 69.2663 26.9502C68.1646 28.1565 66.2829 28.3897 64.6263 27.5131C63.6211 26.9824 62.8733 26.1702 62.23 24.9238L61.8842 24.2483L62.3023 23.4361C63.1065 21.86 64.4173 20.8065 65.8486 20.5653C66.4357 20.4688 66.5965 20.4688 67.1916 20.5653Z" fill="url(#paint7_linear_1816_8383)"/>
<path d="M85.391 21.4893C85.4232 22.8162 85.4714 25.2608 85.4956 26.9254L85.5519 29.9651H86.7983H88.0367L87.9884 28.6945C87.9643 28.003 87.9241 25.9845 87.9 24.2154C87.8758 22.4463 87.8356 20.5726 87.8115 20.058L87.7633 19.1091L87.4255 19.1734C86.9832 19.2458 86.2193 19.2458 85.7368 19.1573L85.3428 19.0849L85.391 21.4893Z" fill="url(#paint8_linear_1816_8383)"/>
<path d="M104.288 20.5329C104.312 21.144 104.4 23.5484 104.472 25.8724L104.617 30.1103L105.019 30.1585C105.244 30.1827 105.783 30.2068 106.217 30.2068H106.997V29.6037C106.997 29.0488 106.7 20.5248 106.652 19.793C106.636 19.4392 106.676 19.4473 105.856 19.584C105.598 19.6322 105.285 19.6322 105.132 19.592C104.987 19.5598 104.722 19.5035 104.553 19.4714L104.239 19.4151L104.288 20.5329Z" fill="url(#paint9_linear_1816_8383)"/>
<path d="M109.192 20.1304C109.224 20.4762 109.321 22.8564 109.417 25.4217C109.514 27.9869 109.61 30.1099 109.643 30.142C109.667 30.1662 110.214 30.2064 110.849 30.2225L111.999 30.2466L111.951 28.9197C111.894 27.424 111.79 25.0116 111.653 21.803C111.605 20.6048 111.548 19.6157 111.532 19.5996C111.516 19.5755 111.235 19.5996 110.913 19.6559C110.455 19.7203 110.23 19.7203 109.811 19.6318C109.522 19.5675 109.257 19.5192 109.216 19.5112C109.176 19.5112 109.168 19.7846 109.192 20.1304Z" fill="url(#paint10_linear_1816_8383)"/>
<defs>
<linearGradient id="paint0_linear_1816_8383" x1="20.9608" y1="5.01736e-08" x2="20.9564" y2="57.7055" gradientUnits="userSpaceOnUse">
<stop stop-color="#5E0FCD"/>
<stop offset="0.553414" stop-color="#C942AB"/>
<stop offset="1" stop-color="#3725EA"/>
</linearGradient>
<linearGradient id="paint1_linear_1816_8383" x1="39.8643" y1="22.2864" x2="57.1307" y2="22.2864" gradientUnits="userSpaceOnUse">
<stop stop-color="#6311CB"/>
<stop offset="1" stop-color="#C33FAD"/>
</linearGradient>
<linearGradient id="paint2_linear_1816_8383" x1="84.9639" y1="16.37" x2="88.1031" y2="16.37" gradientUnits="userSpaceOnUse">
<stop stop-color="#6311CB"/>
<stop offset="1" stop-color="#C33FAD"/>
</linearGradient>
<linearGradient id="paint3_linear_1816_8383" x1="103.786" y1="16.7772" x2="106.909" y2="16.7772" gradientUnits="userSpaceOnUse">
<stop stop-color="#6311CB"/>
<stop offset="1" stop-color="#C33FAD"/>
</linearGradient>
<linearGradient id="paint4_linear_1816_8383" x1="108.72" y1="16.8538" x2="111.822" y2="16.8538" gradientUnits="userSpaceOnUse">
<stop stop-color="#6311CB"/>
<stop offset="1" stop-color="#C33FAD"/>
</linearGradient>
<linearGradient id="paint5_linear_1816_8383" x1="90.6738" y1="22.9289" x2="102.218" y2="22.9289" gradientUnits="userSpaceOnUse">
<stop stop-color="#6311CB"/>
<stop offset="1" stop-color="#C33FAD"/>
</linearGradient>
<linearGradient id="paint6_linear_1816_8383" x1="73.4639" y1="23.1751" x2="83.677" y2="23.1751" gradientUnits="userSpaceOnUse">
<stop stop-color="#6311CB"/>
<stop offset="1" stop-color="#C33FAD"/>
</linearGradient>
<linearGradient id="paint7_linear_1816_8383" x1="59.3672" y1="25.754" x2="72.7" y2="25.754" gradientUnits="userSpaceOnUse">
<stop stop-color="#6311CB"/>
<stop offset="1" stop-color="#C33FAD"/>
</linearGradient>
<linearGradient id="paint8_linear_1816_8383" x1="85.3428" y1="24.525" x2="88.0367" y2="24.525" gradientUnits="userSpaceOnUse">
<stop stop-color="#6311CB"/>
<stop offset="1" stop-color="#C33FAD"/>
</linearGradient>
<linearGradient id="paint9_linear_1816_8383" x1="104.239" y1="24.8109" x2="106.997" y2="24.8109" gradientUnits="userSpaceOnUse">
<stop stop-color="#6311CB"/>
<stop offset="1" stop-color="#C33FAD"/>
</linearGradient>
<linearGradient id="paint10_linear_1816_8383" x1="109.179" y1="24.8789" x2="111.999" y2="24.8789" gradientUnits="userSpaceOnUse">
<stop stop-color="#6311CB"/>
<stop offset="1" stop-color="#C33FAD"/>
</linearGradient>
</defs>
</svg>
