<svg width="51" height="8" viewBox="0 0 51 8" fill="none" xmlns="http://www.w3.org/2000/svg">
<path d="M0.614031 7.56738L1.78733 0.500004H4.30646C4.854 0.500004 5.29111 0.600079 5.61779 0.800229C5.94677 1.00038 6.17223 1.273 6.29416 1.61809C6.41839 1.96317 6.44485 2.35312 6.37353 2.78793C6.29991 3.22274 6.14347 3.61384 5.90421 3.96123C5.66725 4.30631 5.35092 4.58008 4.95522 4.78253C4.55952 4.98268 4.08906 5.08276 3.54382 5.08276H1.80803L1.95642 4.17863H3.59213C3.93952 4.17863 4.23169 4.11881 4.46865 3.99918C4.70791 3.87725 4.89541 3.71161 5.03114 3.50226C5.16688 3.29061 5.25545 3.0525 5.29686 2.78793C5.34057 2.51876 5.32907 2.2818 5.26235 2.07705C5.19563 1.87 5.06335 1.70781 4.8655 1.59048C4.66995 1.47315 4.39618 1.41448 4.04419 1.41448H2.70526L1.68035 7.56738H0.614031ZM6.81093 7.56738L7.98422 0.500004H9.05054L8.02908 6.64945H11.2315L11.0797 7.56738H6.81093ZM13.2537 7.56738H12.1218L15.8384 0.500004H17.0704L18.4404 7.56738H17.3085L16.2767 1.78373H16.2214L13.2537 7.56738ZM13.9025 4.79979H17.5742L17.4223 5.69701H13.7506L13.9025 4.79979ZM19.2988 1.41794L19.4506 0.500004H24.9202L24.7684 1.41794H22.5633L21.5418 7.56738H20.479L21.5004 1.41794H19.2988ZM27.1952 0.500004L26.0219 7.56738H24.9556L26.1289 0.500004H27.1952ZM34.4524 0.500004L33.2791 7.56738H32.299L29.5694 2.38418H29.5073L28.6411 7.56738H27.5748L28.7481 0.500004H29.735L32.4681 5.69011H32.5337L33.3964 0.500004H34.4524ZM40.5527 0.500004H41.6224L40.8529 5.14832C40.7724 5.64295 40.5837 6.08121 40.2869 6.4631C39.9902 6.8427 39.6129 7.14178 39.1551 7.36033C38.6972 7.57659 38.1865 7.68471 37.6229 7.68471C37.0569 7.68471 36.5819 7.57659 36.1977 7.36033C35.8135 7.14178 35.5362 6.8427 35.366 6.4631C35.1981 6.08121 35.1555 5.64295 35.2383 5.14832L36.0079 0.500004H37.0742L36.3184 5.06205C36.2678 5.38183 36.292 5.66595 36.3909 5.91442C36.4921 6.16288 36.6601 6.35843 36.8947 6.50106C37.1317 6.6414 37.4296 6.71157 37.7885 6.71157C38.1474 6.71157 38.4683 6.6414 38.7513 6.50106C39.0366 6.35843 39.2689 6.16288 39.4484 5.91442C39.6301 5.66595 39.7463 5.38183 39.7969 5.06205L40.5527 0.500004ZM43.1727 0.500004H44.4668L45.8126 5.99379H45.8955L49.0496 0.500004H50.3436L49.1703 7.56738H48.1558L49.0081 2.4532H48.9426L46.0093 7.55703H45.1639L43.9354 2.44974H43.8698L43.014 7.56738H41.9994L43.1727 0.500004Z" fill="white"/>
</svg>
