<svg width="239" height="141" viewBox="0 0 239 141" fill="none" xmlns="http://www.w3.org/2000/svg">
<path d="M238.999 107.473L166.963 140.337V138.878L238.991 106.014L238.999 107.473Z" fill="#37474F"/>
<path d="M98.2189 17.631L82.3478 24.8964L72.594 29.3404C72.2801 29.4676 71.9739 29.6129 71.6753 29.7643C69.7719 30.6844 68.2015 31.9778 67.1164 33.5191C66.0312 35.0604 65.468 36.7974 65.4815 38.5615V74.6161C65.4879 76.2219 65.0149 77.8062 64.101 79.2402C63.187 80.6741 61.8579 81.9172 60.2218 82.8683C57.953 84.2216 55.193 84.9605 52.3513 84.9753C50.0592 84.9715 47.809 84.489 45.8283 83.5767C39.8578 80.8486 34.9 76.9262 31.453 72.2033C28.006 67.4805 26.191 62.1235 26.1904 56.6705V19.2597C26.1918 13.804 24.3769 8.44414 20.9284 3.71894C17.4799 -1.00624 12.5191 -4.93027 6.54492 -7.65865L78.5964 -40.5286C84.5694 -37.7986 89.5295 -33.8744 92.9791 -29.1497C96.4286 -24.425 98.2462 -19.0659 98.2495 -13.6102V2.6764C98.2266 7.33837 98.2189 17.631 98.2189 17.631Z" fill="#F5F5F5"/>
<path d="M124.41 119.443C118.439 116.719 113.479 112.799 110.03 108.078C106.582 103.357 104.766 98.001 104.765 92.549V56.4702C104.774 52.3265 103.733 48.2234 101.702 44.4035C98.3744 38.1638 92.5593 32.9549 85.1423 29.57C83.1511 28.6623 80.8928 28.1851 78.5945 28.1864C76.2961 28.1877 74.0387 28.6675 72.0492 29.5775C70.0597 30.4875 68.4081 31.7957 67.2606 33.3705C66.1131 34.9453 65.5101 36.7313 65.5121 38.5488V74.5792C65.5124 76.3976 64.9078 78.1841 63.7589 79.7593C62.61 81.3344 60.9574 82.6429 58.9669 83.5533C56.9763 84.4636 54.718 84.9439 52.4186 84.9458C50.1191 84.9477 47.8595 84.4712 45.8666 83.5641C39.896 80.836 34.9383 76.9135 31.4913 72.1907C28.0443 67.4678 26.2293 62.1109 26.2287 56.6578V19.2591C26.2262 13.8005 24.4056 8.43864 20.9501 3.71319C17.4947 -1.01227 12.5263 -4.93463 6.54492 -7.65918V-6.16977C12.0477 -3.503 16.5944 0.234643 19.7508 4.68638C22.9073 9.13812 24.5682 14.1554 24.575 19.2591V56.6578C24.5878 62.333 26.483 67.9062 30.0714 72.8209C33.6597 77.7356 38.8157 81.8199 45.0244 84.666C47.2548 85.6994 49.7931 86.2441 52.3781 86.2441C54.9631 86.2441 57.5014 85.6994 59.7318 84.666C60.015 84.5388 60.2907 84.4056 60.5663 84.2603C62.5879 83.2075 64.2453 81.7724 65.3883 80.0851C66.5314 78.3978 67.1239 76.5115 67.1122 74.5973V38.5428C67.1109 36.9481 67.6406 35.3813 68.6481 33.9998C69.6555 32.6184 71.1051 31.4711 72.8511 30.6734C74.5971 29.8756 76.578 29.4554 78.5945 29.4552C80.611 29.4549 82.5921 29.8746 84.3384 30.6719C90.0591 33.2901 94.8097 37.0507 98.115 41.5771C101.42 46.1036 103.164 51.2372 103.172 56.4641V92.5429C103.184 98.2174 105.079 103.79 108.668 108.704C112.256 113.618 117.413 117.701 123.622 120.545L166.978 140.331V138.86L124.41 119.443Z" fill="#455A64"/>
<path d="M238.995 106.015L166.966 138.86L124.414 119.425C118.442 116.701 113.482 112.781 110.034 108.06C106.585 103.339 104.769 97.9832 104.768 92.5311V56.4705C104.777 52.3268 103.736 48.2238 101.706 44.4038C101.066 43.2141 100.338 42.0556 99.5236 40.9346C96.0751 36.2143 91.1163 32.2949 85.1455 29.5703C83.2542 28.6956 81.1135 28.2141 78.9232 28.1707C76.7329 28.1273 74.5644 28.5234 72.6201 29.3221L82.374 24.8781L101.997 15.9174L143.998 -3.25723L144.097 -3.30567C146.081 -4.22228 148.338 -4.70532 150.636 -4.70532C152.933 -4.70532 155.19 -4.22228 157.174 -3.30567C163.145 -0.579941 168.104 3.34113 171.551 8.06323C174.999 12.7853 176.813 18.142 176.812 23.5945V59.6673C176.812 65.1203 178.627 70.4772 182.074 75.2001C185.521 79.9229 190.479 83.8454 196.45 86.5735L238.995 106.015Z" fill="#FAFAFA"/>
<path d="M103.152 56.4703C103.144 51.2434 101.4 46.1098 98.0943 41.5834C94.789 37.0569 90.0383 33.2964 84.3177 30.6781C82.5714 29.8808 80.5903 29.4612 78.5738 29.4614C76.5573 29.4617 74.5764 29.8818 72.8304 30.6796C71.0844 31.4774 69.6348 32.6247 68.6274 34.0061C67.6199 35.3875 67.0902 36.9543 67.0915 38.549V74.6036C67.1052 76.5108 66.5191 78.3909 65.3858 80.0745C64.2524 81.7581 62.6076 83.1924 60.5992 84.2484C60.3236 84.3937 60.0479 84.5269 59.7646 84.6541L103.182 64.8256L103.152 56.4703Z" fill="#E0E0E0"/>
<path opacity="0.15" d="M103.152 56.4703C103.144 51.2434 101.4 46.1098 98.0943 41.5834C94.789 37.0569 90.0383 33.2964 84.3177 30.6781C82.5714 29.8808 80.5903 29.4612 78.5738 29.4614C76.5573 29.4617 74.5764 29.8818 72.8304 30.6796C71.0844 31.4774 69.6348 32.6247 68.6274 34.0061C67.6199 35.3875 67.0902 36.9543 67.0915 38.549V74.6036C67.1052 76.5108 66.5191 78.3909 65.3858 80.0745C64.2524 81.7581 62.6076 83.1924 60.5992 84.2484C60.3236 84.3937 60.0479 84.5269 59.7646 84.6541L103.182 64.8256L103.152 56.4703Z" fill="black"/>
<mask id="mask0_1009_18805" style="mask-type:luminance" maskUnits="userSpaceOnUse" x="6" y="-41" width="93" height="126">
<path d="M98.2209 17.6318L82.3498 24.8972L72.596 29.3412C72.2821 29.4683 71.9758 29.6136 71.6772 29.765C69.7739 30.6851 68.2035 31.9785 67.1183 33.5198C66.0331 35.0612 65.47 36.7981 65.4834 38.5622V74.6168C65.4899 76.2226 65.0169 77.8069 64.1029 79.2409C63.1889 80.6749 61.8598 81.918 60.2237 82.8691C57.955 84.2224 55.195 84.9612 52.3533 84.976C50.0611 84.9722 47.8109 84.4897 45.8303 83.5774C39.8597 80.8493 34.902 76.9269 31.455 72.2041C28.0079 67.4812 26.193 62.1243 26.1924 56.6712V19.2604C26.1937 13.8047 24.3789 8.44487 20.9304 3.71968C17.4818 -1.00551 12.5211 -4.92953 6.54688 -7.65792L78.5983 -40.5278C84.5714 -37.7979 89.5315 -33.8737 92.981 -29.149C96.4305 -24.4242 98.2482 -19.0652 98.2515 -13.6095V2.67713C98.2285 7.3391 98.2209 17.6318 98.2209 17.6318Z" fill="white"/>
</mask>
<g mask="url(#mask0_1009_18805)">
<path opacity="0.4" d="M33.0506 20.9192C32.979 20.9184 32.9089 20.9029 32.8472 20.8743C32.7855 20.8456 32.7342 20.8048 32.6984 20.7558C32.6459 20.6818 32.6326 20.5945 32.6613 20.5128C32.69 20.4311 32.7584 20.3618 32.8515 20.3198L91.1526 -6.31999C91.2452 -6.36198 91.3549 -6.37346 91.4581 -6.35193C91.5613 -6.3304 91.6496 -6.2776 91.7039 -6.20496C91.7312 -6.16893 91.7491 -6.12893 91.7566 -6.08733C91.7641 -6.04573 91.7609 -6.00336 91.7474 -5.96274C91.7338 -5.92211 91.7101 -5.88405 91.6777 -5.85078C91.6452 -5.81751 91.6047 -5.78972 91.5584 -5.76904L33.2496 20.8708C33.1902 20.9012 33.1213 20.918 33.0506 20.9192Z" fill="black"/>
<path opacity="0.4" d="M33.0506 23.7644C32.979 23.7636 32.9089 23.7481 32.8472 23.7195C32.7855 23.6908 32.7342 23.65 32.6984 23.6009C32.6459 23.527 32.6326 23.4397 32.6613 23.358C32.69 23.2763 32.7584 23.207 32.8515 23.165L91.1526 -3.47481C91.2461 -3.5163 91.3565 -3.52685 91.4598 -3.50416C91.5631 -3.48147 91.6508 -3.42739 91.7039 -3.35372C91.731 -3.31815 91.7488 -3.27861 91.7562 -3.23748C91.7636 -3.19634 91.7604 -3.15444 91.7468 -3.11431C91.7332 -3.07417 91.7095 -3.03662 91.6772 -3.00389C91.6448 -2.97116 91.6044 -2.94394 91.5584 -2.92385L33.2496 23.716C33.189 23.7442 33.1208 23.7607 33.0506 23.7644Z" fill="black"/>
<path opacity="0.4" d="M33.0506 26.6105C32.979 26.6097 32.9089 26.5942 32.8472 26.5656C32.7855 26.5369 32.7342 26.4961 32.6984 26.447C32.6459 26.3731 32.6326 26.2858 32.6613 26.2041C32.69 26.1224 32.7584 26.053 32.8515 26.0111L91.1526 -0.628718C91.246 -0.671271 91.357 -0.682741 91.4611 -0.6606C91.5652 -0.638459 91.6539 -0.584525 91.7077 -0.51066C91.7615 -0.436795 91.776 -0.349048 91.748 -0.266728C91.72 -0.184409 91.6518 -0.114257 91.5584 -0.0717046L33.2496 26.5681C33.1883 26.5942 33.1202 26.6087 33.0506 26.6105Z" fill="black"/>
<path opacity="0.4" d="M33.053 29.4557C32.9814 29.4549 32.9113 29.4394 32.8496 29.4108C32.7879 29.3821 32.7366 29.3413 32.7008 29.2923C32.674 29.2563 32.6566 29.2164 32.6498 29.1751C32.6429 29.1337 32.6468 29.0916 32.6611 29.0514C32.6754 29.0112 32.6999 28.9738 32.733 28.9413C32.7662 28.9088 32.8073 28.882 32.8539 28.8624L91.155 2.22256C91.2463 2.19093 91.349 2.18694 91.4437 2.21135C91.5384 2.23577 91.6185 2.28688 91.6686 2.35495C91.7187 2.42302 91.7355 2.50329 91.7156 2.58048C91.6957 2.65766 91.6406 2.72637 91.5608 2.77351L33.252 29.4134C33.1922 29.4422 33.1231 29.4569 33.053 29.4557Z" fill="black"/>
<path opacity="0.4" d="M33.0505 16.7778C32.9537 16.7886 32.8553 16.7709 32.774 16.728C32.6926 16.6852 32.6341 16.6201 32.6095 16.5453C32.5849 16.4705 32.596 16.3912 32.6406 16.3224C32.6852 16.2536 32.7602 16.2002 32.8514 16.1724L63.7131 2.07749C63.7589 2.05042 63.8115 2.03132 63.8673 2.02143C63.9231 2.01154 63.9809 2.0111 64.0369 2.02013C64.093 2.02915 64.146 2.04744 64.1925 2.07379C64.2389 2.10015 64.2778 2.13398 64.3066 2.17306C64.3354 2.21214 64.3534 2.2556 64.3595 2.30057C64.3655 2.34554 64.3595 2.39101 64.3418 2.43401C64.324 2.47701 64.295 2.51656 64.2566 2.55007C64.2182 2.58358 64.1713 2.61029 64.1189 2.62845L33.2496 16.7233C33.1913 16.7565 33.1221 16.7754 33.0505 16.7778Z" fill="black"/>
<path d="M32.1789 0.436358C34.6321 4.19648 36.0614 8.32152 36.3744 12.5454C36.365 12.6355 36.3893 12.7258 36.4444 12.8051C36.4995 12.8843 36.5829 12.949 36.6842 12.991C36.7854 13.033 36.9001 13.0504 37.0139 13.0412C37.1277 13.0319 37.2354 12.9963 37.3238 12.9389L39.0388 12.1579C39.2861 12.0242 39.4862 11.8429 39.6202 11.631C39.7541 11.4191 39.8175 11.1837 39.8044 10.947C39.6144 8.74977 39.145 6.57329 38.4033 4.4505C37.6823 2.53156 36.7577 0.664175 35.6394 -1.13176C35.5773 -1.22334 35.4923 -1.304 35.3897 -1.36888C35.287 -1.43376 35.1688 -1.48151 35.0421 -1.50924C34.9154 -1.53697 34.783 -1.5441 34.6527 -1.53021C34.5225 -1.51632 34.3972 -1.4817 34.2843 -1.42843L32.5923 -0.659506C32.3642 -0.549656 32.1956 -0.376816 32.1193 -0.174405C32.0429 0.0280057 32.0642 0.245612 32.1789 0.436358Z" fill="#6311CB"/>
<path d="M37.2561 -5.19954C38.9801 -3.01724 40.3681 -0.679757 41.3904 1.76314C42.4164 4.23089 43.0365 6.79281 43.2355 9.38577C43.2235 9.47525 43.2454 9.56553 43.2984 9.64514C43.3515 9.72476 43.4332 9.79012 43.5333 9.83293C43.6334 9.87575 43.7473 9.89408 43.8605 9.88561C43.9738 9.87714 44.0814 9.84225 44.1695 9.78537L45.8845 8.99828C46.1403 8.8689 46.3495 8.68942 46.4917 8.47725C46.6339 8.26507 46.7043 8.02742 46.696 7.78738C46.4604 5.21298 45.8358 2.67016 44.8356 0.213192C43.8323 -2.21809 42.454 -4.54236 40.7319 -6.70711C40.58 -6.88619 40.3491 -7.014 40.0843 -7.06551C39.8195 -7.11702 39.5399 -7.08853 39.3002 -6.98562L37.5929 -6.23485C37.481 -6.18738 37.3827 -6.12205 37.3043 -6.04301C37.2259 -5.96396 37.169 -5.87292 37.1374 -5.77562C37.1057 -5.67833 37.0999 -5.57689 37.1204 -5.47774C37.1408 -5.37858 37.187 -5.28386 37.2561 -5.19954Z" fill="#6311CB"/>
<path d="M50.8243 -2.53592L49.14 -1.76701C48.9013 -1.64776 48.7173 -1.47098 48.6153 -1.26276C48.5133 -1.05455 48.4986 -0.825913 48.5734 -0.610595C49.4084 1.62524 49.9221 3.92838 50.1047 6.25521C50.0944 6.34419 50.1176 6.43359 50.1713 6.5122C50.225 6.59081 50.3068 6.65515 50.4065 6.69716C50.5062 6.73917 50.6194 6.75699 50.7318 6.74838C50.8443 6.73977 50.951 6.70512 51.0387 6.64876L52.7537 5.86772C53.009 5.73792 53.2177 5.55834 53.3598 5.34627C53.502 5.1342 53.5727 4.89677 53.5652 4.65682C53.3506 2.33625 52.8218 0.040576 51.9881 -2.19082C51.9563 -2.28348 51.8971 -2.36883 51.8153 -2.43983C51.7336 -2.51082 51.6317 -2.56544 51.518 -2.59915C51.4043 -2.63286 51.2821 -2.64471 51.1615 -2.63371C51.0409 -2.62272 50.9253 -2.5892 50.8243 -2.53592Z" fill="#6311CB"/>
<path d="M57.6805 -7.94826C57.6339 -8.04388 57.5606 -8.12992 57.4659 -8.19989C57.3712 -8.26986 57.2577 -8.32195 57.1339 -8.35225C57.0101 -8.38255 56.8793 -8.39027 56.7512 -8.37483C56.6231 -8.35938 56.5011 -8.32119 56.3943 -8.2631L54.6947 -7.50023C54.4591 -7.38611 54.2813 -7.21058 54.1919 -7.00391C54.1024 -6.79723 54.1069 -6.57235 54.2047 -6.36803C54.5109 -5.76258 54.8018 -5.15713 55.0928 -4.46692C56.1197 -2.00168 56.7373 0.558594 56.9302 3.14965C56.9205 3.23922 56.9442 3.32907 56.9983 3.40812C57.0525 3.48716 57.1347 3.55193 57.2349 3.59444C57.335 3.63694 57.4487 3.65531 57.562 3.64728C57.6752 3.63925 57.7829 3.60516 57.8719 3.54924L59.5869 2.76822C59.8412 2.63756 60.0491 2.4578 60.1911 2.24593C60.3331 2.03406 60.4045 1.79706 60.3984 1.55731C60.1602 -1.02772 59.5304 -3.5808 58.5227 -6.04714C58.2854 -6.70709 57.9944 -7.33675 57.6805 -7.94826Z" fill="#6311CB"/>
<path opacity="0.4" d="M34.241 11.3111C34.2026 11.2596 34.1404 11.222 34.0675 11.2062C33.9946 11.1904 33.9168 11.1976 33.8506 11.2263L33.1309 11.5533C32.9701 10.7722 32.7864 9.99726 32.5643 9.23439L33.5367 8.79242C33.592 8.75809 33.6297 8.70908 33.6428 8.65447C33.656 8.59985 33.6437 8.54333 33.6082 8.49533C33.5727 8.44734 33.5164 8.41113 33.4498 8.3934C33.3832 8.37567 33.3107 8.37761 33.2457 8.39888L32.4189 8.7803C32.1739 8.01138 31.9059 7.24852 31.592 6.50381L32.5184 6.08605C32.5844 6.05634 32.6328 6.00713 32.6529 5.94922C32.673 5.89131 32.6632 5.82946 32.6256 5.77727C32.588 5.72509 32.5258 5.68684 32.4526 5.67094C32.3793 5.65504 32.3011 5.6628 32.2351 5.69251L31.4006 6.07394C31.0791 5.3474 30.7422 4.62692 30.3517 3.9246C30.3546 3.9065 30.3546 3.88819 30.3517 3.8701L31.2705 3.45235C31.3034 3.43787 31.3324 3.41833 31.3557 3.39488C31.379 3.37143 31.3962 3.34453 31.4062 3.31577C31.4161 3.28701 31.4188 3.25697 31.4139 3.2274C31.409 3.19783 31.3967 3.16932 31.3777 3.14356C31.3392 3.09209 31.277 3.05447 31.2041 3.03865C31.1313 3.02283 31.0534 3.03005 30.9872 3.0588L30.122 3.45235C29.7239 2.74397 29.2799 2.04164 28.7975 1.33932L29.7086 0.921556C29.7416 0.907083 29.7706 0.887545 29.7939 0.864094C29.8172 0.840642 29.8343 0.813755 29.8443 0.784994C29.8543 0.756233 29.8569 0.726182 29.852 0.69661C29.8471 0.667037 29.8348 0.638539 29.8158 0.61278C29.7774 0.561314 29.7152 0.523689 29.6423 0.507868C29.5694 0.492048 29.4916 0.499275 29.4254 0.528018L28.5219 0.94578C28.0319 0.267675 27.5113 -0.404376 26.9448 -1.07037L27.9784 -1.53657C28.0115 -1.55094 28.0405 -1.57054 28.0637 -1.59415C28.0868 -1.61777 28.1036 -1.64491 28.1129 -1.67386C28.1223 -1.70282 28.124 -1.73299 28.1179 -1.76249C28.1119 -1.79199 28.0983 -1.82019 28.0779 -1.84535C28.0596 -1.87143 28.0349 -1.89435 28.0052 -1.91278C27.9756 -1.93121 27.9416 -1.94477 27.9052 -1.95266C27.8688 -1.96056 27.8308 -1.96263 27.7934 -1.95876C27.756 -1.95489 27.72 -1.94514 27.6874 -1.93011L26.6309 -1.4397C26.0184 -2.13597 25.3829 -2.82618 24.6939 -3.51034C24.6432 -3.54966 24.5761 -3.57297 24.5051 -3.57587C24.4342 -3.57876 24.3644 -3.56104 24.3089 -3.52605C24.2533 -3.49106 24.2159 -3.44121 24.2036 -3.3859C24.1913 -3.3306 24.205 -3.27364 24.2422 -3.22578C24.9159 -2.56583 25.5437 -1.89379 26.1332 -1.21568L25.1533 -0.767647C25.0997 -0.743068 25.0578 -0.705283 25.0339 -0.660074C25.0101 -0.614865 25.0057 -0.564725 25.0213 -0.517331C25.0369 -0.469937 25.0718 -0.427907 25.1205 -0.397666C25.1692 -0.367424 25.2291 -0.350634 25.2911 -0.349884C25.3384 -0.338238 25.3892 -0.338238 25.4365 -0.349884L26.4548 -0.810033C27.0137 -0.144037 27.542 0.521963 28.0243 1.20007L26.8835 1.72076C26.8294 1.7456 26.7872 1.78391 26.7635 1.82972C26.7398 1.87554 26.736 1.92626 26.7526 1.97398C26.7692 2.0217 26.8053 2.06372 26.8553 2.09349C26.9053 2.12326 26.9664 2.13908 27.029 2.13851C27.0738 2.15007 27.122 2.15007 27.1668 2.13851L28.2999 1.62388C28.7822 2.3262 29.2263 3.03458 29.6244 3.74296L28.4454 4.28181C28.3912 4.30665 28.349 4.34497 28.3253 4.39079C28.3016 4.4366 28.2978 4.48733 28.3144 4.53504C28.331 4.58276 28.3672 4.62478 28.4172 4.65454C28.4672 4.68431 28.5282 4.70015 28.5908 4.69957C28.6396 4.70093 28.6877 4.69036 28.7286 4.6693L29.8541 4.15466C30.2446 4.86909 30.6197 5.60775 30.9183 6.35245L29.7163 6.90341C29.6627 6.92799 29.6208 6.96578 29.597 7.01098C29.5731 7.05619 29.5687 7.10633 29.5843 7.15373C29.6 7.20112 29.6348 7.24316 29.6835 7.2734C29.7323 7.30364 29.7922 7.32043 29.8541 7.32117C29.9015 7.33282 29.9522 7.33282 29.9996 7.32117L31.1097 6.81259C31.4236 7.56335 31.6915 8.32016 31.9289 9.09514L30.7345 9.64005C30.7016 9.65453 30.6726 9.67406 30.6493 9.69751C30.626 9.72096 30.6088 9.74785 30.5988 9.77662C30.5889 9.80538 30.5862 9.83543 30.5911 9.865C30.596 9.89457 30.6083 9.92307 30.6274 9.94883C30.6521 9.98271 30.6879 10.0107 30.731 10.0299C30.7741 10.0491 30.8229 10.0587 30.8724 10.0578C30.9197 10.0695 30.9704 10.0695 31.0178 10.0578L32.0744 9.5795C32.2964 10.3424 32.4725 11.1234 32.6256 11.9044L31.3317 12.5099C31.2776 12.5347 31.2354 12.573 31.2117 12.6189C31.188 12.6647 31.1842 12.7154 31.2008 12.7631C31.2174 12.8108 31.2535 12.8529 31.3035 12.8826C31.3535 12.9124 31.4146 12.9282 31.4772 12.9276C31.526 12.929 31.5741 12.9184 31.615 12.8974L32.7175 12.3948C32.8859 13.3454 33.0007 14.3141 33.0696 15.295C33.0736 15.3522 33.1051 15.4062 33.1578 15.4456C33.2106 15.485 33.2804 15.507 33.3529 15.5069C33.3901 15.5053 33.4266 15.498 33.4602 15.4853C33.4939 15.4726 33.524 15.4547 33.5489 15.4328C33.5738 15.4108 33.5929 15.3852 33.6053 15.3574C33.6177 15.3296 33.623 15.3002 33.6209 15.2707C33.552 14.2173 33.4218 13.1759 33.2381 12.1527L34.1415 11.741C34.2057 11.7389 34.2671 11.7196 34.3157 11.6862C34.3642 11.6529 34.3969 11.6075 34.4085 11.5575C34.4201 11.5075 34.4098 11.4558 34.3794 11.4111C34.3489 11.3663 34.3001 11.331 34.241 11.3111Z" fill="black"/>
<g opacity="0.15">
<path d="M37.1627 55.5639C36.9192 53.8597 36.8322 52.1438 36.9024 50.4297C37.1321 49.7698 40.608 40.3308 47.0085 37.3943C47.3976 37.201 47.8244 37.0599 48.2717 36.9766C48.4421 36.9436 48.617 36.9273 48.7923 36.9282C50.492 36.9282 51.2499 38.7929 51.9849 40.5972C52.262 41.3363 52.5995 42.0603 52.9955 42.7647C53.4319 43.4912 54.1746 44.4539 55.5833 44.4539C56.2041 44.4342 56.8079 44.2882 57.3365 44.0301C60.399 42.6436 61.2947 38.8898 62.2364 34.918C62.6131 33.1396 63.1244 31.3806 63.7677 29.6506C64.7017 27.3317 65.9114 25.8968 67.5957 25.134C68.0232 24.9176 68.5132 24.7905 69.0197 24.7646C70.8036 24.7646 71.4773 27.2773 72.1281 29.7051C72.4099 30.9764 72.8457 32.2234 73.4296 33.4286C74.0804 34.5971 74.9609 35.1663 76.0404 35.1663C76.6752 35.1414 77.2917 34.9893 77.8319 34.7243C81.6063 33.0048 82.7471 30.0805 83.8496 27.2591C84.7913 24.8373 85.6717 22.5971 88.16 21.4528C88.7148 21.1719 89.3544 21.0131 90.0127 20.9927C90.2916 20.992 90.5687 21.0288 90.8319 21.1017C90.9004 21.5518 90.9388 22.0045 90.9468 22.4579L90.9927 28.1733C91.054 29.2692 91.1535 30.1289 91.276 30.8676L37.1627 55.5639Z" fill="#6311CB"/>
<path d="M91.7184 31.0187C91.5576 30.165 91.4657 29.2023 91.3968 28.1549L91.3586 22.4394C91.3477 21.9128 91.2966 21.3871 91.2054 20.8653C90.8357 20.7234 90.4296 20.6509 90.0187 20.6534C89.2903 20.6727 88.5817 20.8462 87.9669 21.1559C82.4086 23.7109 84.5293 31.2851 77.6312 34.4334C77.1394 34.6807 76.5748 34.8226 75.9928 34.8451C74.9592 34.8451 74.2702 34.2397 73.7496 33.2952C72.1265 30.4011 72.1647 24.4496 68.9721 24.4496C68.3948 24.4717 67.835 24.6137 67.3491 24.8613C65.3738 25.7634 64.1871 27.4889 63.3602 29.5596C61.3008 34.6575 61.4233 41.8199 57.1358 43.7513C56.6749 43.9804 56.1482 44.1137 55.6046 44.1388C54.5864 44.1388 53.9126 43.5334 53.3767 42.6312C52.0522 40.4274 51.5852 36.607 48.783 36.607C48.5796 36.6082 48.3768 36.6264 48.1782 36.6615C47.6916 36.7548 47.2266 36.908 46.8001 37.1156C39.9785 40.2518 36.4874 50.381 36.4874 50.381C36.4109 52.284 36.521 54.1888 36.8166 56.0783L37.5822 55.7211C37.5225 55.4951 37.4791 55.2667 37.452 55.0369C37.2696 53.5218 37.2057 51.9992 37.2606 50.4779C37.5822 49.5818 41.0045 40.5061 47.1753 37.6665C47.53 37.492 47.9177 37.3632 48.3237 37.2851C48.4639 37.2572 48.6079 37.243 48.7524 37.2427C50.1535 37.2427 50.8732 38.9985 51.5622 40.6938C51.8423 41.4475 52.185 42.1857 52.5881 42.9037C52.8714 43.3638 53.7136 44.7745 55.5434 44.7745C56.2356 44.7571 56.9095 44.5941 57.4957 44.3023C60.7342 42.8492 61.6376 39.0228 62.587 34.9723C62.9664 33.2082 63.4777 31.4635 64.1182 29.7472C65.0216 27.5131 66.17 26.1145 67.7472 25.4122C68.1104 25.2218 68.5298 25.1091 68.9645 25.0853C70.4192 25.0853 71.0929 27.5737 71.6824 29.7715C71.9669 31.0633 72.4078 32.3305 72.9993 33.5555C73.7113 34.833 74.7142 35.4869 75.9851 35.4869C76.7109 35.466 77.4164 35.2925 78.0293 34.9844C81.9416 33.1983 83.1589 30.0802 84.2307 27.3315C85.1495 24.9945 86.0069 22.7906 88.365 21.7069C88.857 21.4544 89.4252 21.3102 90.0111 21.2891C90.1608 21.2879 90.3101 21.3022 90.4551 21.3315C90.5394 21.9733 90.547 22.4334 90.547 22.4394V28.1852C90.6083 29.1721 90.6925 30.0015 90.7997 30.6796C90.8327 30.9044 90.8865 31.127 90.9604 31.3456L91.6725 31.0187" fill="black"/>
</g>
<g opacity="0.4">
<path d="M36.4877 47.4922V50.3802C36.4106 52.2832 36.5206 54.188 36.8169 56.0775L91.7111 31.0179C91.5503 30.1642 91.4508 29.2015 91.3895 28.1481L91.3512 22.4386C91.3512 22.4386 91.3512 13.8957 84.4608 17.032C77.2487 20.3256 79.2853 30.7757 74.171 33.1127C69.0567 35.4498 70.7411 26.1379 63.8812 29.2742C57.0213 32.4104 60.4513 39.3791 53.5914 42.5093C46.7316 45.6395 50.1615 29.8433 43.3016 32.9735C36.4418 36.1037 36.4877 43.8898 36.4877 47.4922Z" fill="#6311CB"/>
</g>
<path opacity="0.4" d="M33.9887 60.485C33.9386 60.4847 33.8896 60.4739 33.8466 60.4537C33.8035 60.4334 33.768 60.4046 33.7437 60.37C33.7247 60.3442 33.7124 60.3157 33.7075 60.2862C33.7026 60.2566 33.7052 60.2265 33.7152 60.1978C33.7252 60.169 33.7423 60.1421 33.7656 60.1187C33.7889 60.0952 33.8179 60.0757 33.8509 60.0612L92.2362 33.6212C92.3013 33.5927 92.378 33.5857 92.4496 33.6016C92.5212 33.6174 92.5821 33.6549 92.619 33.706C92.6383 33.7314 92.6511 33.7595 92.6566 33.7888C92.662 33.8182 92.66 33.8481 92.6508 33.8768C92.6415 33.9055 92.6252 33.9325 92.6026 33.9562C92.5801 33.9798 92.5518 33.9997 92.5195 34.0147L34.1342 60.4548C34.0895 60.474 34.0396 60.4844 33.9887 60.485Z" fill="black"/>
<path d="M43.378 34.4996C43.3021 34.4996 43.2292 34.4762 43.1749 34.4344C43.1206 34.3925 43.089 34.3356 43.087 34.2756V33.8215C43.086 33.7919 43.0926 33.7624 43.1064 33.7348C43.1203 33.7072 43.1411 33.6822 43.1676 33.6612C43.1942 33.6403 43.2258 33.6238 43.2607 33.6128C43.2955 33.6019 43.3328 33.5967 43.3703 33.5975C43.4454 33.5975 43.5175 33.6211 43.5706 33.6631C43.6237 33.7051 43.6536 33.7621 43.6536 33.8215V34.2756C43.6518 34.3335 43.6223 34.3888 43.5713 34.4303C43.5202 34.4718 43.4511 34.4966 43.378 34.4996Z" fill="white"/>
<path d="M43.5021 51.8638C43.4313 51.8626 43.3635 51.8411 43.3113 51.8032C43.2592 51.7653 43.2263 51.7136 43.2189 51.6579C43.2189 51.3673 43.1576 51.0525 43.1346 50.7861C43.1326 50.7567 43.1379 50.7272 43.1502 50.6994C43.1626 50.6716 43.1818 50.646 43.2067 50.624C43.2316 50.6021 43.2617 50.5843 43.2953 50.5716C43.3289 50.5589 43.3654 50.5515 43.4026 50.55C43.4399 50.5456 43.4779 50.5477 43.514 50.556C43.5502 50.5644 43.5836 50.5788 43.612 50.5984C43.6404 50.618 43.663 50.6422 43.6784 50.6694C43.6938 50.6965 43.7016 50.726 43.7012 50.7558C43.7012 51.0464 43.7548 51.331 43.7854 51.6156C43.7897 51.645 43.7865 51.6748 43.776 51.7033C43.7656 51.7318 43.7481 51.7583 43.7246 51.7814C43.7011 51.8045 43.6721 51.8237 43.6391 51.8378C43.6062 51.8519 43.57 51.8608 43.5328 51.8638H43.5021ZM43.372 50.1322C43.2961 50.1322 43.2233 50.1088 43.1689 50.067C43.1146 50.0251 43.0831 49.9681 43.0811 49.9082C43.0811 49.6599 43.0811 49.3693 43.0811 49.0363C43.0811 48.9769 43.1109 48.9199 43.164 48.8779C43.2171 48.8359 43.2892 48.8123 43.3643 48.8123C43.5328 48.8123 43.6476 48.9092 43.6553 49.0363C43.6553 49.3633 43.6553 49.6418 43.6553 49.9021C43.6563 49.9321 43.6497 49.9618 43.6359 49.9897C43.6222 50.0176 43.6015 50.043 43.5751 50.0645C43.5486 50.0859 43.5171 50.103 43.4822 50.1146C43.4473 50.1262 43.4098 50.1322 43.372 50.1322ZM43.372 48.3946C43.2975 48.393 43.2265 48.3689 43.1738 48.3273C43.1211 48.2856 43.0906 48.2295 43.0887 48.1705V47.2987C43.0906 47.2398 43.1211 47.1837 43.1738 47.142C43.2265 47.1003 43.2975 47.0762 43.372 47.0747C43.4465 47.0762 43.5174 47.1003 43.5701 47.142C43.6229 47.1837 43.6533 47.2398 43.6553 47.2987V48.1705C43.6533 48.2305 43.6217 48.2875 43.5674 48.3293C43.513 48.3712 43.4402 48.3946 43.3643 48.3946H43.372ZM43.372 46.6569C43.2969 46.6569 43.2248 46.6333 43.1717 46.5913C43.1185 46.5493 43.0887 46.4923 43.0887 46.4329V45.561C43.0907 45.5011 43.1222 45.4441 43.1766 45.4023C43.2309 45.3604 43.3038 45.337 43.3796 45.337C43.4542 45.3386 43.5251 45.3627 43.5778 45.4043C43.6305 45.446 43.661 45.5021 43.6629 45.561V46.4329C43.6629 46.4923 43.6331 46.5493 43.5799 46.5913C43.5268 46.6333 43.4548 46.6569 43.3796 46.6569H43.372ZM43.372 44.9193C43.2975 44.9177 43.2265 44.8936 43.1738 44.852C43.1211 44.8103 43.0906 44.7542 43.0887 44.6953V43.8052C43.0999 43.7514 43.1349 43.7024 43.1875 43.6671C43.24 43.6318 43.3068 43.6124 43.3758 43.6124C43.4448 43.6124 43.5116 43.6318 43.5642 43.6671C43.6168 43.7024 43.6518 43.7514 43.6629 43.8052V44.6771C43.6656 44.711 43.6587 44.745 43.6427 44.7766C43.6268 44.8082 43.6022 44.8366 43.5707 44.8597C43.5392 44.8829 43.5016 44.9002 43.4606 44.9105C43.4197 44.9208 43.3763 44.9238 43.3337 44.9193H43.372ZM43.372 43.1816C43.2969 43.1816 43.2248 43.158 43.1717 43.116C43.1185 43.074 43.0887 43.017 43.0887 42.9576V42.0918C43.0887 42.0324 43.1185 41.9754 43.1717 41.9334C43.2248 41.8914 43.2969 41.8678 43.372 41.8678C43.4471 41.8678 43.5192 41.8914 43.5723 41.9334C43.6254 41.9754 43.6553 42.0324 43.6553 42.0918V42.9576C43.6591 42.9913 43.6534 43.0251 43.6383 43.0567C43.6233 43.0884 43.5994 43.1169 43.5685 43.1402C43.5376 43.1635 43.5004 43.1809 43.4597 43.1913C43.4191 43.2016 43.376 43.2045 43.3337 43.1998L43.372 43.1816ZM43.372 41.444C43.3345 41.4448 43.2972 41.4396 43.2623 41.4286C43.2275 41.4177 43.1958 41.4012 43.1693 41.3802C43.1428 41.3593 43.122 41.3342 43.1081 41.3067C43.0943 41.2791 43.0876 41.2496 43.0887 41.22V40.3542C43.0887 40.2948 43.1185 40.2378 43.1717 40.1958C43.2248 40.1538 43.2969 40.1302 43.372 40.1302C43.4471 40.1302 43.5192 40.1538 43.5723 40.1958C43.6254 40.2378 43.6553 40.2948 43.6553 40.3542V41.22C43.657 41.2524 43.6495 41.2848 43.6334 41.3147C43.6173 41.3445 43.5929 41.3712 43.5621 41.3927C43.5312 41.4141 43.4948 41.4299 43.4552 41.4388C43.4157 41.4476 43.3742 41.4494 43.3337 41.444H43.372ZM43.372 39.7064C43.3345 39.7072 43.2972 39.702 43.2623 39.691C43.2275 39.68 43.1958 39.6636 43.1693 39.6426C43.1428 39.6216 43.122 39.5966 43.1081 39.569C43.0943 39.5415 43.0876 39.512 43.0887 39.4823V38.6165C43.0887 38.5565 43.1183 38.4989 43.1712 38.4559C43.2241 38.413 43.2962 38.388 43.372 38.3865C43.4098 38.3864 43.4473 38.3924 43.4822 38.4041C43.5171 38.4157 43.5486 38.4328 43.5751 38.4542C43.6015 38.4757 43.6222 38.5011 43.6359 38.5289C43.6497 38.5568 43.6563 38.5866 43.6553 38.6165V39.4823C43.657 39.5148 43.6495 39.5471 43.6334 39.577C43.6173 39.6069 43.5929 39.6336 43.5621 39.655C43.5312 39.6765 43.4948 39.6922 43.4552 39.7011C43.4157 39.71 43.3742 39.7118 43.3337 39.7064H43.372ZM43.372 37.9748C43.2962 37.9732 43.2241 37.9482 43.1712 37.9053C43.1183 37.8623 43.0887 37.8047 43.0887 37.7447V36.8789C43.0999 36.825 43.1349 36.7761 43.1875 36.7407C43.24 36.7054 43.3068 36.686 43.3758 36.686C43.4448 36.686 43.5116 36.7054 43.5642 36.7407C43.6168 36.7761 43.6518 36.825 43.6629 36.8789V37.7507C43.661 37.7829 43.6509 37.8144 43.6331 37.8433C43.6153 37.8722 43.5902 37.8979 43.5594 37.9189C43.5286 37.9399 43.4927 37.9556 43.4538 37.9652C43.415 37.9748 43.3742 37.9781 43.3337 37.9748H43.372ZM43.372 36.2371C43.2975 36.2356 43.2265 36.2115 43.1738 36.1698C43.1211 36.1281 43.0906 36.072 43.0887 36.0131V35.1473C43.0887 35.0863 43.1194 35.0278 43.1739 34.9846C43.2285 34.9415 43.3025 34.9172 43.3796 34.9172C43.4548 34.9172 43.5268 34.9408 43.5799 34.9828C43.6331 35.0249 43.6629 35.0818 43.6629 35.1413V36.0131C43.6622 36.0455 43.6528 36.0775 43.6354 36.1068C43.6179 36.1362 43.5929 36.1623 43.5618 36.1834C43.5307 36.2046 43.4943 36.2203 43.455 36.2296C43.4157 36.2388 43.3744 36.2414 43.3337 36.2371H43.372Z" fill="white"/>
<path d="M43.6898 53.1715C43.6213 53.1708 43.5553 53.1509 43.5035 53.1155C43.4516 53.0801 43.4173 53.0313 43.4065 52.9778L43.3376 52.5237C43.3336 52.4943 43.3369 52.4645 43.3474 52.4361C43.3579 52.4078 43.3754 52.3813 43.3989 52.3582C43.4224 52.3352 43.4513 52.316 43.4842 52.3018C43.517 52.2876 43.553 52.2787 43.5902 52.2755C43.6274 52.2723 43.6651 52.275 43.701 52.2833C43.7369 52.2916 43.7704 52.3054 43.7995 52.324C43.8287 52.3425 43.8529 52.3654 43.8709 52.3914C43.8888 52.4174 43.9001 52.4459 43.9041 52.4753L43.973 52.9172C43.9784 52.9467 43.9763 52.9767 43.9669 53.0055C43.9574 53.0343 43.9408 53.0614 43.918 53.085C43.8952 53.1087 43.8667 53.1286 43.834 53.1434C43.8014 53.1583 43.7654 53.1678 43.728 53.1715H43.6898Z" fill="white"/>
<path d="M84.5087 17.7104C84.4315 17.7104 84.3575 17.6862 84.303 17.643C84.2484 17.5999 84.2178 17.5414 84.2178 17.4803V17.0323C84.2178 16.9713 84.2484 16.9128 84.303 16.8696C84.3575 16.8265 84.4315 16.8022 84.5087 16.8022C84.5845 16.8038 84.6566 16.8288 84.7095 16.8717C84.7624 16.9147 84.792 16.9723 84.792 17.0323V17.4803C84.792 17.5403 84.7624 17.598 84.7095 17.6409C84.6566 17.6839 84.5845 17.7088 84.5087 17.7104Z" fill="white"/>
<path d="M84.67 35.0743C84.5992 35.0731 84.5314 35.0516 84.4792 35.0137C84.4271 34.9758 84.3942 34.9242 84.3868 34.8685C84.3485 34.5778 84.3255 34.263 84.3025 33.9966C84.2983 33.9365 84.324 33.8776 84.3741 33.8323C84.4242 33.787 84.4947 33.7591 84.5705 33.7544C84.6079 33.7519 84.6456 33.7555 84.6812 33.765C84.7169 33.7745 84.7497 33.7896 84.7776 33.8094C84.8056 33.8293 84.8281 33.8534 84.8439 33.8804C84.8596 33.9074 84.8682 33.9366 84.8691 33.9663C84.8691 34.257 84.9227 34.5415 84.9533 34.8261C84.9575 34.856 84.9541 34.8863 84.9432 34.9151C84.9323 34.9439 84.9141 34.9708 84.8898 34.9939C84.8655 35.0171 84.8356 35.0362 84.8018 35.05C84.7679 35.0638 84.731 35.0721 84.693 35.0743H84.67ZM84.5399 33.3427C84.464 33.3427 84.3912 33.3193 84.3368 33.2775C84.2825 33.2357 84.2509 33.1787 84.2489 33.1187C84.2489 32.8705 84.2489 32.5799 84.2489 32.2469C84.2489 32.1874 84.2788 32.1305 84.3319 32.0885C84.385 32.0464 84.4571 32.0228 84.5322 32.0228C84.6073 32.0228 84.6794 32.0464 84.7325 32.0885C84.7856 32.1305 84.8155 32.1874 84.8155 32.2469C84.8155 32.5738 84.8155 32.8523 84.8155 33.1126C84.8165 33.1426 84.8099 33.1724 84.7962 33.2002C84.7824 33.2281 84.7617 33.2535 84.7353 33.275C84.7089 33.2964 84.6773 33.3135 84.6424 33.3251C84.6075 33.3368 84.5701 33.3427 84.5322 33.3427H84.5399ZM84.5399 31.6051C84.5027 31.6051 84.4658 31.5993 84.4315 31.588C84.3971 31.5768 84.3659 31.5603 84.3396 31.5395C84.3133 31.5187 84.2924 31.494 84.2782 31.4668C84.2639 31.4396 84.2566 31.4105 84.2566 31.3811V30.485C84.2566 30.4256 84.2864 30.3686 84.3396 30.3266C84.3927 30.2846 84.4647 30.261 84.5399 30.261C84.6157 30.261 84.6886 30.2844 84.7429 30.3262C84.7973 30.3681 84.8288 30.425 84.8308 30.485V31.3508C84.8318 31.3807 84.8253 31.4105 84.8115 31.4384C84.7977 31.4663 84.777 31.4917 84.7506 31.5131C84.7242 31.5346 84.6926 31.5516 84.6577 31.5633C84.6229 31.5749 84.5854 31.5809 84.5475 31.5809L84.5399 31.6051ZM84.5399 29.8674C84.464 29.8675 84.3912 29.844 84.3368 29.8022C84.2825 29.7604 84.2509 29.7034 84.2489 29.6434V28.7716C84.2509 28.7127 84.2813 28.6565 84.3341 28.6149C84.3868 28.5732 84.4577 28.5491 84.5322 28.5475C84.6081 28.5475 84.6809 28.5709 84.7353 28.6128C84.7896 28.6546 84.8212 28.7116 84.8232 28.7716V29.6434C84.8212 29.7023 84.7907 29.7584 84.738 29.8001C84.6853 29.8418 84.6144 29.8659 84.5399 29.8674ZM84.5399 28.1298C84.4654 28.1283 84.3944 28.1042 84.3417 28.0625C84.289 28.0208 84.2585 27.9647 84.2566 27.9058V27.0339C84.2566 26.9745 84.2864 26.9175 84.3396 26.8755C84.3927 26.8335 84.4647 26.8099 84.5399 26.8099C84.615 26.8099 84.6871 26.8335 84.7402 26.8755C84.7933 26.9175 84.8232 26.9745 84.8232 27.0339V27.9058C84.8235 27.9379 84.8151 27.9698 84.7986 27.9991C84.782 28.0285 84.7576 28.0547 84.7271 28.0759C84.6966 28.0972 84.6607 28.113 84.6218 28.1223C84.5829 28.1316 84.5419 28.1341 84.5016 28.1298H84.5399ZM84.5399 26.3921C84.464 26.3922 84.3912 26.3688 84.3368 26.3269C84.2825 26.2851 84.2509 26.2281 84.2489 26.1681V25.2963C84.2601 25.2424 84.2951 25.1935 84.3477 25.1581C84.4003 25.1228 84.467 25.1034 84.5361 25.1034C84.6051 25.1034 84.6718 25.1228 84.7244 25.1581C84.777 25.1935 84.812 25.2424 84.8232 25.2963V26.1681C84.8223 26.2 84.8131 26.2314 84.7962 26.2603C84.7792 26.2892 84.7548 26.3149 84.7246 26.336C84.6944 26.3571 84.6589 26.3729 84.6205 26.3826C84.5822 26.3923 84.5417 26.3955 84.5016 26.3921H84.5399ZM84.5399 24.6545C84.502 24.6553 84.4644 24.6501 84.4291 24.6392C84.3939 24.6283 84.3617 24.612 84.3346 24.5911C84.3075 24.5702 84.2859 24.5452 84.2712 24.5176C84.2565 24.4901 84.2489 24.4604 84.2489 24.4305V23.5647C84.2421 23.5318 84.2444 23.4981 84.2557 23.4659C84.267 23.4338 84.287 23.404 84.3143 23.3785C84.3416 23.3531 84.3756 23.3327 84.4139 23.3187C84.4522 23.3047 84.4939 23.2974 84.5361 23.2974C84.5782 23.2974 84.6199 23.3047 84.6582 23.3187C84.6965 23.3327 84.7305 23.3531 84.7578 23.3785C84.7851 23.404 84.8051 23.4338 84.8164 23.4659C84.8277 23.4981 84.83 23.5318 84.8232 23.5647V24.4305C84.8235 24.4626 84.8151 24.4945 84.7986 24.5238C84.782 24.5532 84.7576 24.5794 84.7271 24.6006C84.6966 24.6219 84.6607 24.6377 84.6218 24.647C84.5829 24.6563 84.5419 24.6589 84.5016 24.6545H84.5399ZM84.5399 22.9169C84.502 22.9177 84.4644 22.9125 84.4291 22.9016C84.3939 22.8907 84.3617 22.8743 84.3346 22.8534C84.3075 22.8326 84.2859 22.8076 84.2712 22.78C84.2565 22.7524 84.2489 22.7228 84.2489 22.6929V21.8271C84.2479 21.7971 84.2545 21.7673 84.2683 21.7395C84.282 21.7116 84.3028 21.6862 84.3292 21.6647C84.3556 21.6433 84.3871 21.6262 84.422 21.6146C84.4569 21.603 84.4944 21.597 84.5322 21.597C84.608 21.5986 84.6801 21.6235 84.733 21.6665C84.7859 21.7095 84.8155 21.7671 84.8155 21.8271V22.6929C84.8157 22.7244 84.8075 22.7557 84.7914 22.7846C84.7753 22.8135 84.7516 22.8393 84.722 22.8605C84.6924 22.8816 84.6574 22.8976 84.6194 22.9073C84.5814 22.917 84.5413 22.9203 84.5016 22.9169H84.5399ZM84.5399 21.1853C84.502 21.1853 84.4645 21.1793 84.4297 21.1677C84.3948 21.156 84.3632 21.139 84.3368 21.1175C84.3104 21.0961 84.2897 21.0707 84.2759 21.0428C84.2621 21.0149 84.2556 20.9851 84.2566 20.9552V20.0894C84.2566 20.03 84.2864 19.973 84.3396 19.931C84.3927 19.889 84.4647 19.8654 84.5399 19.8654C84.615 19.8654 84.6871 19.889 84.7402 19.931C84.7933 19.973 84.8232 20.03 84.8232 20.0894V20.9552C84.8234 20.9876 84.815 21.0196 84.7985 21.0492C84.782 21.0788 84.7578 21.1054 84.7274 21.1271C84.6971 21.1488 84.6613 21.1652 84.6224 21.1752C84.5834 21.1853 84.5423 21.1887 84.5016 21.1853H84.5399ZM84.5399 19.4476C84.464 19.446 84.392 19.4211 84.3391 19.3781C84.2862 19.3352 84.2566 19.2776 84.2566 19.2176V18.376C84.2678 18.3221 84.3028 18.2732 84.3553 18.2378C84.4079 18.2025 84.4747 18.1831 84.5437 18.1831C84.6127 18.1831 84.6795 18.2025 84.7321 18.2378C84.7846 18.2732 84.8196 18.3221 84.8308 18.376V19.2478C84.8261 19.2782 84.8138 19.3074 84.7946 19.334C84.7755 19.3605 84.7498 19.3837 84.7192 19.4023C84.6885 19.4209 84.6535 19.4345 84.6161 19.4423C84.5788 19.4501 84.5399 19.4519 84.5016 19.4476H84.5399Z" fill="white"/>
<path d="M84.8541 36.3827C84.7856 36.382 84.7196 36.3622 84.6678 36.3267C84.616 36.2913 84.5816 36.2425 84.5708 36.189L84.5019 35.7349C84.4965 35.7058 84.4987 35.6761 84.5082 35.6477C84.5178 35.6192 84.5345 35.5926 84.5574 35.5694C84.5803 35.5462 84.6088 35.5269 84.6414 35.5127C84.674 35.4985 84.7099 35.4896 84.7469 35.4867C84.7841 35.4824 84.8221 35.4841 84.8585 35.4916C84.8949 35.499 84.9291 35.5122 84.9591 35.5302C84.989 35.5482 85.0141 35.5708 85.0329 35.5966C85.0516 35.6224 85.0637 35.6509 85.0684 35.6804L85.1373 36.1285C85.1427 36.1579 85.1406 36.1879 85.1312 36.2167C85.1217 36.2455 85.1051 36.2726 85.0823 36.2962C85.0595 36.3199 85.031 36.3398 84.9983 36.3546C84.9657 36.3695 84.9297 36.379 84.8924 36.3827H84.8541Z" fill="white"/>
<path d="M63.9237 30.733C63.8479 30.7331 63.775 30.7096 63.7207 30.6678C63.6663 30.626 63.6348 30.569 63.6328 30.509V30.0549C63.644 30.0011 63.679 29.9521 63.7316 29.9168C63.7842 29.8815 63.8509 29.8621 63.9199 29.8621C63.9889 29.8621 64.0557 29.8815 64.1083 29.9168C64.1609 29.9521 64.1959 30.0011 64.207 30.0549V30.4848C64.2102 30.516 64.2052 30.5474 64.1925 30.577C64.1797 30.6067 64.1595 30.6339 64.133 30.6572C64.1065 30.6804 64.0742 30.6991 64.0383 30.7122C64.0023 30.7252 63.9633 30.7323 63.9237 30.733Z" fill="white"/>
<path d="M64.0501 42.5938C63.9788 42.594 63.91 42.5729 63.8575 42.5348C63.805 42.4966 63.7726 42.4442 63.7668 42.388C63.7668 42.1095 63.7056 41.8249 63.6826 41.5404C63.6784 41.4803 63.7041 41.4213 63.7541 41.3761C63.8042 41.3308 63.8747 41.3028 63.9506 41.2982C63.9886 41.2948 64.0271 41.2978 64.0637 41.3068C64.1002 41.3159 64.1339 41.3308 64.1627 41.3508C64.1916 41.3707 64.2148 41.3952 64.231 41.4226C64.2472 41.45 64.256 41.4798 64.2568 41.5101C64.2568 41.7886 64.3027 42.0671 64.3334 42.3456C64.3376 42.3751 64.3344 42.4049 64.324 42.4334C64.3136 42.4618 64.2961 42.4884 64.2726 42.5115C64.2491 42.5345 64.22 42.5537 64.1871 42.5679C64.1542 42.582 64.118 42.5908 64.0807 42.5938H64.0501ZM63.9199 40.9046C63.8441 40.9047 63.7712 40.8813 63.7169 40.8394C63.6625 40.7976 63.631 40.7406 63.629 40.6806V39.833C63.628 39.8031 63.6346 39.7733 63.6483 39.7454C63.6621 39.7175 63.6828 39.6921 63.7092 39.6707C63.7356 39.6492 63.7672 39.6322 63.8021 39.6205C63.837 39.6089 63.8744 39.6029 63.9123 39.6029C63.9868 39.6045 64.0577 39.6285 64.1104 39.6702C64.1632 39.7119 64.1936 39.768 64.1956 39.8269V40.6746C64.1956 40.7345 64.166 40.7922 64.1131 40.8351C64.0602 40.8781 63.9881 40.9031 63.9123 40.9046H63.9199ZM63.9199 39.2094C63.8825 39.2102 63.8452 39.205 63.8103 39.194C63.7755 39.1831 63.7438 39.1666 63.7173 39.1456C63.6908 39.1246 63.6699 39.0996 63.6561 39.0721C63.6422 39.0445 63.6356 39.015 63.6367 38.9854V38.1377C63.6366 38.0778 63.6662 38.0201 63.7192 37.9772C63.7721 37.9342 63.8441 37.9092 63.9199 37.9077C63.9578 37.9077 63.9953 37.9136 64.0301 37.9253C64.065 37.9369 64.0966 37.954 64.123 37.9754C64.1494 37.9969 64.1701 38.0223 64.1839 38.0501C64.1977 38.078 64.2042 38.1078 64.2032 38.1377V38.9611C64.2032 39.0206 64.1734 39.0775 64.1202 39.1195C64.0671 39.1616 63.9951 39.1852 63.9199 39.1852V39.2094ZM63.9199 37.5141C63.8441 37.5141 63.7712 37.4907 63.7169 37.4489C63.6625 37.407 63.631 37.3501 63.629 37.2901V36.4425C63.629 36.3831 63.6589 36.3261 63.712 36.2841C63.7651 36.2421 63.8372 36.2185 63.9123 36.2185C63.9501 36.2176 63.9878 36.2228 64.023 36.2337C64.0583 36.2446 64.0904 36.261 64.1176 36.2819C64.1447 36.3028 64.1662 36.3277 64.181 36.3553C64.1957 36.3829 64.2032 36.4125 64.2032 36.4425V37.2901C64.2013 37.349 64.1708 37.4051 64.1181 37.4468C64.0654 37.4885 63.9945 37.5126 63.9199 37.5141ZM63.9199 35.8189C63.8448 35.8189 63.7728 35.7953 63.7196 35.7532C63.6665 35.7112 63.6367 35.6543 63.6367 35.5948V34.723C63.6478 34.6691 63.6828 34.6202 63.7354 34.5848C63.788 34.5495 63.8548 34.5301 63.9238 34.5301C63.9928 34.5301 64.0595 34.5495 64.1121 34.5848C64.1647 34.6202 64.1997 34.6691 64.2109 34.723V35.5706C64.2142 35.6026 64.2089 35.6347 64.1952 35.6649C64.1814 35.6951 64.1597 35.7226 64.1314 35.7455C64.1031 35.7685 64.0689 35.7864 64.0311 35.798C63.9933 35.8096 63.9528 35.8146 63.9123 35.8128L63.9199 35.8189ZM63.9199 34.1296C63.8441 34.1281 63.7721 34.1031 63.7192 34.0601C63.6662 34.0172 63.6366 33.9596 63.6367 33.8996V33.0519C63.6478 32.9981 63.6828 32.9491 63.7354 32.9138C63.788 32.8785 63.8548 32.8591 63.9238 32.8591C63.9928 32.8591 64.0595 32.8785 64.1121 32.9138C64.1647 32.9491 64.1997 32.9981 64.2109 33.0519V33.8996C64.2069 33.9595 64.1735 34.0159 64.1177 34.0566C64.0619 34.0973 63.9882 34.1192 63.9123 34.1175L63.9199 34.1296ZM63.9199 32.4344C63.8441 32.4328 63.7721 32.4079 63.7192 32.3649C63.6662 32.3219 63.6366 32.2643 63.6367 32.2043V31.3627C63.6299 31.3298 63.6322 31.2961 63.6434 31.264C63.6547 31.2318 63.6747 31.202 63.702 31.1766C63.7294 31.1512 63.7633 31.1307 63.8016 31.1167C63.8399 31.1027 63.8816 31.0955 63.9238 31.0955C63.966 31.0955 64.0076 31.1027 64.0459 31.1167C64.0842 31.1307 64.1182 31.1512 64.1455 31.1766C64.1728 31.202 64.1928 31.2318 64.2041 31.264C64.2154 31.2961 64.2177 31.3298 64.2109 31.3627V32.2104C64.207 32.2693 64.1746 32.3247 64.1204 32.3653C64.0663 32.4058 63.9945 32.4284 63.9199 32.4283V32.4344Z" fill="white"/>
<path d="M64.2641 43.878C64.1956 43.8773 64.1297 43.8575 64.0778 43.822C64.026 43.7866 63.9917 43.7378 63.9809 43.6843L63.912 43.2302C63.9066 43.2006 63.909 43.1705 63.919 43.1417C63.929 43.1129 63.9464 43.086 63.9701 43.0627C63.9938 43.0394 64.0233 43.0202 64.0567 43.0063C64.0902 42.9925 64.1269 42.9842 64.1646 42.982C64.2386 42.9751 64.3131 42.9916 64.3719 43.0279C64.4306 43.0642 64.4689 43.1173 64.4785 43.1757L64.5474 43.6238C64.5528 43.6532 64.5507 43.6832 64.5412 43.712C64.5318 43.7408 64.5152 43.7679 64.4924 43.7916C64.4696 43.8152 64.441 43.8351 64.4084 43.8499C64.3758 43.8648 64.3398 43.8743 64.3024 43.878H64.2641Z" fill="white"/>
<path opacity="0.4" d="M43.3353 32.0836C43.8789 31.8354 44.3229 31.9988 44.3229 32.4529C44.2941 32.7109 44.1899 32.96 44.0185 33.1807C43.8471 33.4013 43.6132 33.5874 43.3353 33.7244C42.7917 33.9726 42.3477 33.8031 42.3477 33.355C42.3747 33.0967 42.4782 32.847 42.6497 32.6261C42.8213 32.4053 43.0561 32.2194 43.3353 32.0836Z" fill="black"/>
<path opacity="0.4" d="M63.9251 28.3175C64.4687 28.0692 64.9128 28.2327 64.9128 28.6868C64.8846 28.9441 64.7806 29.1925 64.6091 29.4123C64.4375 29.632 64.2033 29.8169 63.9251 29.9522C63.3816 30.2065 62.9375 30.0369 62.9375 29.5889C62.9645 29.3306 63.068 29.0809 63.2396 28.86C63.4111 28.6392 63.646 28.4533 63.9251 28.3175Z" fill="black"/>
<path opacity="0.4" d="M84.5023 16.2091C85.0459 15.9608 85.4899 16.1303 85.4899 16.5784C85.4629 16.8367 85.3594 17.0864 85.1879 17.3073C85.0163 17.5281 84.7815 17.714 84.5023 17.8498C83.9511 18.0981 83.5146 17.9346 83.5146 17.4805C83.5411 17.222 83.6443 16.9722 83.8159 16.7513C83.9875 16.5303 84.2227 16.3445 84.5023 16.2091Z" fill="black"/>
<path opacity="0.4" d="M34.3677 37.3388C34.4007 37.3244 34.4297 37.3048 34.453 37.2814C34.4763 37.2579 34.4934 37.231 34.5034 37.2023C34.5134 37.1735 34.516 37.1435 34.5111 37.1139C34.5062 37.0843 34.4939 37.0558 34.4749 37.0301C34.456 37.0045 34.4308 36.9821 34.4008 36.9643C34.3709 36.9465 34.3368 36.9335 34.3005 36.9262C34.2641 36.9189 34.2263 36.9174 34.1893 36.9217C34.1522 36.926 34.1166 36.9361 34.0844 36.9514L33.3188 37.2904V34.9594L34.3524 34.4872C34.3854 34.4727 34.4144 34.4532 34.4377 34.4297C34.461 34.4063 34.4781 34.3794 34.4881 34.3506C34.4981 34.3218 34.5007 34.2918 34.4958 34.2622C34.4909 34.2327 34.4786 34.2042 34.4596 34.1784C34.4212 34.1269 34.3589 34.0893 34.2861 34.0735C34.2132 34.0577 34.1354 34.0649 34.0691 34.0936L33.3035 34.4387V31.9806C33.3016 31.9217 33.2711 31.8656 33.2184 31.8239C33.1657 31.7822 33.0948 31.7581 33.0202 31.7566C32.9451 31.7566 32.8731 31.7802 32.8199 31.8222C32.7668 31.8642 32.737 31.9212 32.737 31.9806V34.7233L31.6957 35.1955C31.6634 35.2105 31.6351 35.2304 31.6126 35.2541C31.5901 35.2778 31.5737 35.3048 31.5644 35.3335C31.5552 35.3622 31.5532 35.3921 31.5587 35.4214C31.5641 35.4508 31.5769 35.4789 31.5962 35.5043C31.6209 35.5382 31.6567 35.5662 31.6998 35.5854C31.7429 35.6045 31.7918 35.6142 31.8412 35.6133C31.8924 35.6148 31.943 35.6042 31.9867 35.583L32.7523 35.244V37.575L31.7111 38.0472C31.6569 38.0721 31.6147 38.1104 31.591 38.1562C31.5673 38.202 31.5635 38.2527 31.5801 38.3005C31.5967 38.3482 31.6329 38.3902 31.6829 38.42C31.7329 38.4497 31.7939 38.4656 31.8565 38.465C31.9077 38.4664 31.9583 38.4559 32.002 38.4347L32.7676 38.0957V40.4266L31.7264 40.8989C31.6932 40.9133 31.6642 40.9329 31.641 40.9565C31.6179 40.9801 31.6011 41.0072 31.5918 41.0362C31.5824 41.0651 31.5807 41.0953 31.5868 41.1248C31.5928 41.1543 31.6064 41.1825 31.6268 41.2077C31.6505 41.2427 31.6859 41.2719 31.7291 41.2922C31.7723 41.3124 31.8216 41.323 31.8718 41.3227C31.9203 41.3221 31.9677 41.3117 32.0096 41.2924L32.7752 40.9473V43.2783L31.734 43.7506C31.701 43.765 31.6721 43.7846 31.6488 43.808C31.6255 43.8315 31.6083 43.8584 31.5983 43.8871C31.5883 43.9159 31.5857 43.9459 31.5906 43.9755C31.5955 44.0051 31.6078 44.0336 31.6268 44.0594C31.653 44.094 31.69 44.1228 31.7342 44.1429C31.7784 44.163 31.8285 44.1739 31.8795 44.1744C31.9279 44.1738 31.9754 44.1634 32.0173 44.1441L32.7829 43.799V46.13L31.7417 46.6022C31.7087 46.6167 31.6797 46.6362 31.6564 46.6597C31.6331 46.6831 31.616 46.71 31.606 46.7388C31.596 46.7676 31.5934 46.7976 31.5983 46.8272C31.6032 46.8568 31.6155 46.8853 31.6345 46.911C31.6607 46.9457 31.6976 46.9744 31.7419 46.9946C31.7861 47.0147 31.8361 47.0256 31.8872 47.0261C31.9325 47.0341 31.9796 47.0341 32.025 47.0261L32.7906 46.6809V49.0119L31.7493 49.4842C31.6843 49.5146 31.6367 49.5638 31.6167 49.6214C31.5967 49.679 31.6058 49.7406 31.6421 49.793C31.6683 49.8276 31.7053 49.8564 31.7495 49.8765C31.7938 49.8967 31.8438 49.9075 31.8948 49.908C31.9431 49.9064 31.9902 49.8961 32.0326 49.8777L32.7982 49.5326V51.8636L31.757 52.3359C31.6919 52.3662 31.6443 52.4154 31.6243 52.4731C31.6043 52.5307 31.6135 52.5922 31.6498 52.6446C31.6747 52.6788 31.7104 52.7073 31.7533 52.7275C31.7962 52.7476 31.8449 52.7587 31.8948 52.7597C31.9457 52.7591 31.9956 52.7487 32.0403 52.7294L32.8059 52.3843C32.8059 53.1593 32.8059 53.9342 32.8059 54.7032L31.7417 55.1875C31.6841 55.2106 31.6381 55.2485 31.6114 55.295C31.5848 55.3415 31.579 55.3938 31.5951 55.4433C31.6112 55.4927 31.6481 55.5363 31.6999 55.5669C31.7516 55.5975 31.815 55.6132 31.8795 55.6113C31.9304 55.6107 31.9803 55.6003 32.025 55.5811L32.8442 55.2057C32.9054 56.0533 32.9973 56.901 33.1274 57.7304C33.1382 57.7839 33.1726 57.8327 33.2244 57.8681C33.2762 57.9036 33.3422 57.9234 33.4107 57.9242C33.448 57.9205 33.4841 57.9109 33.5167 57.896C33.5493 57.8812 33.5778 57.8613 33.6007 57.8377C33.6235 57.814 33.6401 57.787 33.6495 57.7582C33.659 57.7293 33.6611 57.6993 33.6557 57.6699C33.5179 56.7799 33.4184 55.8535 33.3571 54.9575L34.3371 54.5094C34.4031 54.4797 34.4515 54.4305 34.4716 54.3726C34.4917 54.3147 34.4818 54.2528 34.4443 54.2007C34.4067 54.1485 34.3445 54.1102 34.2712 54.0943C34.198 54.0784 34.1198 54.0862 34.0538 54.1159L33.3342 54.4428C33.3342 53.6739 33.2882 52.8989 33.3342 52.1239L34.3601 51.6517C34.4246 51.6225 34.472 51.5743 34.4921 51.5177C34.5121 51.4611 34.5032 51.4004 34.4672 51.349C34.4489 51.3229 34.4242 51.3 34.3946 51.2815C34.3649 51.2631 34.3309 51.2496 34.2946 51.2417C34.2582 51.2338 34.2202 51.2317 34.1828 51.2356C34.1454 51.2394 34.1094 51.2492 34.0768 51.2642L33.3112 51.6033V49.2723L34.3371 48.8C34.3711 48.7861 34.4011 48.7668 34.4254 48.7434C34.4497 48.72 34.4677 48.693 34.4784 48.6639C34.4891 48.6349 34.4923 48.6044 34.4877 48.5744C34.4831 48.5443 34.4708 48.5153 34.4517 48.4891C34.4325 48.4629 34.4069 48.4401 34.3762 48.4219C34.3456 48.4038 34.3106 48.3907 34.2735 48.3836C34.2363 48.3764 34.1976 48.3753 34.1599 48.3803C34.1221 48.3853 34.0861 48.3962 34.0538 48.4125L33.2882 48.7516V46.4206L34.3218 45.9484C34.3541 45.9334 34.3824 45.9135 34.4049 45.8898C34.4275 45.8661 34.4438 45.8391 34.4531 45.8104C34.4623 45.7817 34.4643 45.7518 34.4588 45.7225C34.4534 45.6931 34.4406 45.665 34.4213 45.6396C34.3817 45.5891 34.3189 45.5528 34.2461 45.5381C34.1733 45.5234 34.0962 45.5316 34.0308 45.5609L33.2652 45.8999V43.5689L34.2988 43.0967C34.3638 43.0662 34.4108 43.0165 34.4294 42.9586C34.4481 42.9007 34.4369 42.8393 34.3983 42.7879C34.3598 42.7365 34.297 42.6994 34.2237 42.6846C34.1505 42.6698 34.0729 42.6787 34.0079 42.7092L33.2423 43.0482V40.7173L34.2758 40.245C34.309 40.2306 34.338 40.211 34.3612 40.1874C34.3843 40.1638 34.4011 40.1367 34.4104 40.1077C34.4198 40.0788 34.4215 40.0486 34.4154 40.0191C34.4094 39.9896 34.3958 39.9614 34.3754 39.9362C34.358 39.9102 34.3339 39.8874 34.3048 39.8691C34.2756 39.8508 34.2419 39.8376 34.2059 39.8302C34.1699 39.8228 34.1323 39.8214 34.0956 39.8261C34.0589 39.8308 34.0238 39.8415 33.9926 39.8575L33.227 40.1966V37.8111L34.3677 37.3388Z" fill="black"/>
<path d="M105.902 51.3247L51.0387 76.3601C49.1093 77.238 46.3149 77.135 44.9138 76.015C43.5127 74.8949 44.0946 73.1754 46.0239 72.2975L100.842 47.2682C101.764 46.8497 102.832 46.6746 103.889 46.7683C104.946 46.8619 105.938 47.2193 106.721 47.7888C108.161 48.915 107.832 50.4649 105.902 51.3247Z" fill="#6311CB"/>
<path opacity="0.4" d="M35.0075 63.4999C34.9107 63.5107 34.8123 63.493 34.731 63.4501C34.6496 63.4072 34.5911 63.3422 34.5665 63.2674C34.5419 63.1925 34.553 63.1132 34.5976 63.0444C34.6422 62.9756 34.7173 62.9223 34.8085 62.8944L96.5701 34.7228C96.6614 34.6912 96.7641 34.6872 96.8588 34.7116C96.9535 34.736 97.0335 34.7871 97.0837 34.8552C97.1338 34.9233 97.1505 35.0035 97.1306 35.0807C97.1108 35.1579 97.0557 35.2266 96.9759 35.2738L35.2066 63.4756C35.1444 63.4982 35.0754 63.5066 35.0075 63.4999Z" fill="black"/>
<path opacity="0.4" d="M36.2664 66.1466C36.1948 66.1458 36.1247 66.1303 36.063 66.1017C36.0012 66.073 35.95 66.0322 35.9142 65.9832C35.8611 65.91 35.8466 65.8232 35.8738 65.7416C35.901 65.66 35.9678 65.5902 36.0596 65.5472L97.8366 37.3453C97.8822 37.3237 97.9328 37.3096 97.9854 37.3037C98.038 37.2978 98.0915 37.3002 98.1429 37.3109C98.1943 37.3217 98.2424 37.3404 98.2845 37.3661C98.3265 37.3917 98.3617 37.4238 98.3879 37.4604C98.441 37.5336 98.4555 37.6203 98.4282 37.7019C98.401 37.7835 98.3342 37.8534 98.2424 37.8963L36.4884 66.0982C36.4224 66.132 36.3449 66.1489 36.2664 66.1466Z" fill="black"/>
<path opacity="0.4" d="M37.8229 68.6768C37.7311 68.6789 37.641 68.6563 37.5675 68.6127C37.4941 68.5691 37.4414 68.5071 37.4183 68.4368C37.3952 68.3664 37.403 68.292 37.4403 68.2256C37.4776 68.1592 37.5423 68.1048 37.6238 68.0713L99.4085 39.8573C99.4997 39.8257 99.6025 39.8217 99.6972 39.8461C99.7919 39.8705 99.8719 39.9216 99.922 39.9897C99.9722 40.0578 99.9889 40.1381 99.969 40.2152C99.9491 40.2924 99.8941 40.3611 99.8143 40.4083L38.022 68.6283C37.9604 68.6549 37.8927 68.6714 37.8229 68.6768Z" fill="black"/>
<path opacity="0.4" d="M39.6662 71.0868C39.5946 71.086 39.5245 71.0705 39.4628 71.0418C39.4011 71.0132 39.3498 70.9723 39.314 70.9233C39.2868 70.8877 39.2691 70.8482 39.2617 70.8071C39.2543 70.7659 39.2575 70.724 39.2711 70.6839C39.2847 70.6438 39.3084 70.6062 39.3407 70.5735C39.3731 70.5407 39.4135 70.5135 39.4595 70.4934L101.252 42.2794C101.343 42.2478 101.446 42.2438 101.54 42.2682C101.635 42.2927 101.715 42.3438 101.765 42.4118C101.815 42.4799 101.832 42.5602 101.812 42.6374C101.792 42.7145 101.737 42.7833 101.658 42.8304L39.8652 71.0505C39.8046 71.0772 39.7355 71.0898 39.6662 71.0868Z" fill="black"/>
</g>
<path d="M93.5871 24.3692L144.439 1.16225C146.368 0.284345 149.438 -0.236348 151.161 0.314612C152.884 0.865572 152.562 2.29444 150.633 3.17234L99.1914 26.6457C97.262 27.5296 94.5211 27.6204 92.9899 26.9666C91.4587 26.3127 91.6578 25.2471 93.5871 24.3692Z" fill="#6311CB"/>
<path opacity="0.4" d="M99.4852 30.7514C99.4136 30.7506 99.3435 30.7351 99.2818 30.7065C99.22 30.6778 99.1688 30.637 99.133 30.5879C99.0805 30.514 99.0672 30.4267 99.0959 30.345C99.1245 30.2633 99.1929 30.194 99.2861 30.152L157.87 3.40926C157.963 3.36726 158.073 3.35579 158.176 3.37732C158.279 3.39885 158.367 3.45166 158.422 3.5243C158.449 3.5607 158.466 3.60102 158.473 3.64287C158.48 3.68472 158.476 3.72725 158.462 3.76791C158.448 3.80858 158.423 3.84656 158.39 3.8796C158.357 3.91263 158.315 3.94005 158.269 3.96022L99.6842 30.703C99.6248 30.7334 99.5559 30.7501 99.4852 30.7514Z" fill="black"/>
<path opacity="0.4" d="M101.91 32.8216C101.838 32.8208 101.768 32.8053 101.707 32.7767C101.645 32.748 101.594 32.7071 101.558 32.6581C101.505 32.5842 101.492 32.4969 101.521 32.4152C101.549 32.3335 101.618 32.2641 101.711 32.2222L160.387 5.44312C160.432 5.42164 160.482 5.40757 160.534 5.40174C160.586 5.39591 160.639 5.39844 160.69 5.40918C160.741 5.41992 160.788 5.43865 160.83 5.46425C160.871 5.48985 160.905 5.52179 160.931 5.55816C160.984 5.63135 160.998 5.71813 160.971 5.79972C160.944 5.88131 160.877 5.95114 160.785 5.99408L102.109 32.7792C102.048 32.8053 101.98 32.8198 101.91 32.8216Z" fill="black"/>
<path opacity="0.4" d="M111.627 56.5189C111.59 56.519 111.552 56.513 111.517 56.5013C111.482 56.4897 111.451 56.4727 111.424 56.4512C111.398 56.4298 111.377 56.4044 111.363 56.3765C111.35 56.3486 111.343 56.3188 111.344 56.2889V53.8307C111.344 51.9841 111.344 51.9841 111.283 50.7308V50.525C111.108 47.6643 110.414 44.8383 109.223 42.1334C108.035 39.4689 106.245 36.997 103.941 34.8378C103.893 34.7912 103.871 34.7315 103.879 34.6719C103.886 34.6123 103.924 34.5576 103.983 34.5199C104.042 34.4822 104.117 34.4645 104.193 34.4707C104.268 34.477 104.337 34.5066 104.385 34.5532C106.724 36.7554 108.54 39.2743 109.744 41.9881C110.957 44.7191 111.669 47.5736 111.857 50.4644V50.6763C111.926 51.9357 111.926 51.9357 111.918 53.8005V56.2586C111.924 56.2913 111.92 56.3245 111.908 56.356C111.896 56.3875 111.876 56.4165 111.848 56.4412C111.82 56.4659 111.786 56.4856 111.748 56.499C111.71 56.5124 111.669 56.5192 111.627 56.5189Z" fill="black"/>
<path d="M111.035 37.1444C110.774 36.7811 110.491 36.4299 110.192 36.0788C110.117 35.9969 110.064 35.9033 110.037 35.804C110.011 35.7048 110.011 35.6022 110.039 35.5031C110.066 35.404 110.12 35.3107 110.197 35.2293C110.273 35.148 110.371 35.0805 110.483 35.0313L132.87 24.8113C133.105 24.7018 133.384 24.6683 133.65 24.718C133.915 24.7676 134.146 24.8966 134.294 25.0777C134.562 25.4228 134.822 25.7922 135.059 26.1736C135.18 26.367 135.204 26.5894 135.126 26.7961C135.048 27.0027 134.873 27.1783 134.638 27.2876L112.374 37.4471C112.262 37.4982 112.137 37.5309 112.008 37.5433C111.879 37.5557 111.749 37.5476 111.624 37.5193C111.499 37.4911 111.382 37.4434 111.281 37.379C111.18 37.3146 111.096 37.2348 111.035 37.1444Z" fill="#6311CB"/>
<path d="M113.216 41.2493C113.377 41.6549 113.538 42.0545 113.675 42.4602C113.704 42.5509 113.76 42.6351 113.837 42.7061C113.914 42.7771 114.011 42.8329 114.12 42.8693C114.229 42.9057 114.347 42.9216 114.465 42.9157C114.584 42.9099 114.698 42.8824 114.801 42.8356L167.911 18.5873C168.155 18.4673 168.345 18.2904 168.456 18.0811C168.567 17.8718 168.594 17.6403 168.531 17.4188C168.386 17.001 168.233 16.5953 168.08 16.2079C168.052 16.1103 167.993 16.0198 167.91 15.9443C167.827 15.8689 167.722 15.8109 167.604 15.7755C167.485 15.7401 167.358 15.7284 167.232 15.7416C167.107 15.7547 166.988 15.7921 166.885 15.8506L113.76 40.0989C113.523 40.2176 113.342 40.3943 113.243 40.6019C113.145 40.8096 113.136 41.0369 113.216 41.2493Z" fill="#6311CB"/>
<path opacity="0.7" d="M113.216 41.2493C113.377 41.6549 113.538 42.0545 113.675 42.4602C113.704 42.5509 113.76 42.6351 113.837 42.7061C113.914 42.7771 114.011 42.8329 114.12 42.8693C114.229 42.9057 114.347 42.9216 114.465 42.9157C114.584 42.9099 114.698 42.8824 114.801 42.8356L167.911 18.5873C168.155 18.4673 168.345 18.2904 168.456 18.0811C168.567 17.8718 168.594 17.6403 168.531 17.4188C168.386 17.001 168.233 16.5953 168.08 16.2079C168.052 16.1103 167.993 16.0198 167.91 15.9443C167.827 15.8689 167.722 15.8109 167.604 15.7755C167.485 15.7401 167.358 15.7284 167.232 15.7416C167.107 15.7547 166.988 15.7921 166.885 15.8506L113.76 40.0989C113.523 40.2176 113.342 40.3943 113.243 40.6019C113.145 40.8096 113.136 41.0369 113.216 41.2493Z" fill="white"/>
<path d="M114.762 46.8314C114.831 47.2795 114.885 47.7154 114.931 48.1332C114.919 48.2226 114.941 48.3129 114.994 48.3925C115.047 48.4721 115.129 48.5375 115.229 48.5803C115.329 48.6231 115.443 48.6415 115.556 48.633C115.669 48.6245 115.777 48.5896 115.865 48.5327L151.848 32.1069C152.104 31.9781 152.313 31.7986 152.454 31.5861C152.595 31.3737 152.664 31.1357 152.652 30.896C152.606 30.46 152.545 30.0302 152.484 29.5943C152.483 29.502 152.449 29.412 152.386 29.3341C152.324 29.2563 152.235 29.1937 152.13 29.1535C152.025 29.1133 151.908 29.0969 151.792 29.1063C151.676 29.1158 151.566 29.1505 151.473 29.2068L115.49 45.6266C115.242 45.7563 115.043 45.937 114.915 46.1492C114.787 46.3615 114.734 46.5973 114.762 46.8314Z" fill="#6311CB"/>
<path opacity="0.15" d="M114.762 46.8314C114.831 47.2795 114.885 47.7154 114.931 48.1332C114.919 48.2226 114.941 48.3129 114.994 48.3925C115.047 48.4721 115.129 48.5375 115.229 48.5803C115.329 48.6231 115.443 48.6415 115.556 48.633C115.669 48.6245 115.777 48.5896 115.865 48.5327L151.848 32.1069C152.104 31.9781 152.313 31.7986 152.454 31.5861C152.595 31.3737 152.664 31.1357 152.652 30.896C152.606 30.46 152.545 30.0302 152.484 29.5943C152.483 29.502 152.449 29.412 152.386 29.3341C152.324 29.2563 152.235 29.1937 152.13 29.1535C152.025 29.1133 151.908 29.0969 151.792 29.1063C151.676 29.1158 151.566 29.1505 151.473 29.2068L115.49 45.6266C115.242 45.7563 115.043 45.937 114.915 46.1492C114.787 46.3615 114.734 46.5973 114.762 46.8314Z" fill="black"/>
<path d="M115.057 52.6376V53.9211C115.057 54.3571 115.447 54.5266 115.929 54.3147L131.333 47.2854C131.59 47.1529 131.803 46.974 131.955 46.7634C132.107 46.5528 132.193 46.3167 132.206 46.0745V44.7909C132.206 44.349 131.816 44.1855 131.333 44.3913L115.929 51.4267C115.673 51.5592 115.46 51.7381 115.308 51.9487C115.156 52.1593 115.07 52.3954 115.057 52.6376Z" fill="#6311CB"/>
<path opacity="0.5" d="M115.057 52.6376V53.9211C115.057 54.3571 115.447 54.5266 115.929 54.3147L131.333 47.2854C131.59 47.1529 131.803 46.974 131.955 46.7634C132.107 46.5528 132.193 46.3167 132.206 46.0745V44.7909C132.206 44.349 131.816 44.1855 131.333 44.3913L115.929 51.4267C115.673 51.5592 115.46 51.7381 115.308 51.9487C115.156 52.1593 115.07 52.3954 115.057 52.6376Z" fill="white"/>
<path opacity="0.4" d="M169.935 32.4099C169.858 32.4099 169.784 32.4342 169.729 32.4773C169.674 32.5204 169.644 32.579 169.644 32.64V33.7359L165.54 35.6067V34.7893C165.529 34.7355 165.494 34.6865 165.441 34.6512C165.389 34.6159 165.322 34.5965 165.253 34.5965C165.184 34.5965 165.117 34.6159 165.065 34.6512C165.012 34.6865 164.977 34.7355 164.966 34.7893V35.867L160.862 37.7439V36.9387C160.869 36.9058 160.867 36.8721 160.855 36.8399C160.844 36.8078 160.824 36.778 160.797 36.7525C160.77 36.7271 160.736 36.7067 160.697 36.6927C160.659 36.6787 160.617 36.6714 160.575 36.6714C160.533 36.6714 160.491 36.6787 160.453 36.6927C160.415 36.7067 160.381 36.7271 160.353 36.7525C160.326 36.778 160.306 36.8078 160.295 36.8399C160.284 36.8721 160.281 36.9058 160.288 36.9387V38.0043L156.184 39.8751V39.088C156.184 39.028 156.155 38.9704 156.102 38.9274C156.049 38.8845 155.977 38.8595 155.901 38.858C155.863 38.8579 155.826 38.8639 155.791 38.8756C155.756 38.8872 155.724 38.9043 155.698 38.9257C155.672 38.9472 155.651 38.9726 155.637 39.0005C155.623 39.0283 155.617 39.0581 155.618 39.088V40.1355L151.506 42.0124V41.2374C151.506 41.178 151.477 41.121 151.424 41.079C151.37 41.037 151.298 41.0134 151.223 41.0134C151.148 41.0134 151.076 41.037 151.023 41.079C150.97 41.121 150.94 41.178 150.94 41.2374V42.2727L146.829 44.1496V43.3867C146.83 43.3571 146.823 43.3276 146.809 43.3C146.795 43.2725 146.775 43.2474 146.748 43.2265C146.721 43.2055 146.69 43.189 146.655 43.1781C146.62 43.1671 146.583 43.1619 146.545 43.1627C146.508 43.1627 146.471 43.1685 146.437 43.1798C146.403 43.191 146.371 43.2075 146.345 43.2283C146.319 43.2491 146.298 43.2738 146.284 43.301C146.269 43.3282 146.262 43.3573 146.262 43.3867V44.4099L142.143 46.2808V45.5361C142.132 45.4822 142.097 45.4333 142.044 45.3979C141.992 45.3626 141.925 45.3432 141.856 45.3432C141.787 45.3432 141.72 45.3626 141.668 45.3979C141.615 45.4333 141.58 45.4822 141.569 45.5361V46.5411L137.465 48.418V47.6854C137.454 47.6316 137.419 47.5826 137.366 47.5473C137.314 47.512 137.247 47.4926 137.178 47.4926C137.109 47.4926 137.042 47.512 136.99 47.5473C136.937 47.5826 136.902 47.6316 136.891 47.6854V48.6784L132.787 50.5492V49.859C132.776 49.8052 132.741 49.7562 132.689 49.7209C132.636 49.6855 132.569 49.6661 132.5 49.6661C132.431 49.6661 132.364 49.6855 132.312 49.7209C132.259 49.7562 132.224 49.8052 132.213 49.859V50.8338L128.109 52.7107V52.0083C128.098 51.9545 128.063 51.9055 128.011 51.8702C127.958 51.8349 127.891 51.8155 127.822 51.8155C127.753 51.8155 127.687 51.8349 127.634 51.8702C127.581 51.9055 127.546 51.9545 127.535 52.0083V52.971L123.432 54.8479V54.1577C123.42 54.1039 123.385 54.0549 123.333 54.0196C123.28 53.9842 123.213 53.9648 123.144 53.9648C123.075 53.9648 123.009 53.9842 122.956 54.0196C122.904 54.0549 122.869 54.1039 122.857 54.1577V55.1083L118.754 56.9791V56.307C118.743 56.2532 118.708 56.2042 118.655 56.1689C118.602 56.1336 118.536 56.1142 118.467 56.1142C118.398 56.1142 118.331 56.1336 118.278 56.1689C118.226 56.2042 118.191 56.2532 118.18 56.307V57.2394L114.619 58.8681C114.586 58.8826 114.557 58.9021 114.534 58.9256C114.511 58.949 114.494 58.9759 114.484 59.0047C114.474 59.0334 114.471 59.0635 114.476 59.0931C114.481 59.1226 114.493 59.1511 114.512 59.1769C114.538 59.2115 114.575 59.2403 114.62 59.2605C114.664 59.2806 114.714 59.2914 114.765 59.2919C114.814 59.2911 114.862 59.2784 114.903 59.2556L118.18 57.7601V58.6804C118.191 58.7343 118.226 58.7832 118.278 58.8186C118.331 58.8539 118.398 58.8733 118.467 58.8733C118.536 58.8733 118.602 58.8539 118.655 58.8186C118.708 58.7832 118.743 58.7343 118.754 58.6804V57.4998L122.857 55.6289V56.519C122.869 56.5728 122.904 56.6218 122.956 56.6571C123.009 56.6924 123.075 56.7118 123.144 56.7118C123.213 56.7118 123.28 56.6924 123.333 56.6571C123.385 56.6218 123.42 56.5728 123.432 56.519V55.3565L127.535 53.4796V54.3696C127.546 54.4235 127.581 54.4724 127.634 54.5078C127.687 54.5431 127.753 54.5625 127.822 54.5625C127.891 54.5625 127.958 54.5431 128.011 54.5078C128.063 54.4724 128.098 54.4235 128.109 54.3696V53.2192L132.213 51.3484V52.2203C132.224 52.2741 132.259 52.3231 132.312 52.3584C132.364 52.3937 132.431 52.4131 132.5 52.4131C132.569 52.4131 132.636 52.3937 132.689 52.3584C132.741 52.3231 132.776 52.2741 132.787 52.2203V51.0699L136.891 49.1991V50.0588C136.902 50.1126 136.937 50.1616 136.99 50.1969C137.042 50.2323 137.109 50.2517 137.178 50.2517C137.247 50.2517 137.314 50.2323 137.366 50.1969C137.419 50.1616 137.454 50.1126 137.465 50.0588V48.9387L141.569 47.0618V47.9095C141.58 47.9633 141.615 48.0123 141.668 48.0476C141.72 48.0829 141.787 48.1023 141.856 48.1023C141.925 48.1023 141.992 48.0829 142.044 48.0476C142.097 48.0123 142.132 47.9633 142.143 47.9095V46.8318L146.247 44.9609V45.7904C146.249 45.8493 146.279 45.9054 146.332 45.9471C146.385 45.9888 146.456 46.0129 146.53 46.0144C146.567 46.0144 146.604 46.0086 146.638 45.9973C146.673 45.9861 146.704 45.9696 146.73 45.9488C146.757 45.928 146.777 45.9033 146.792 45.8761C146.806 45.8489 146.813 45.8198 146.813 45.7904V44.7006L150.925 42.8237V43.641C150.925 43.7004 150.954 43.7574 151.008 43.7994C151.061 43.8414 151.133 43.865 151.208 43.865C151.283 43.865 151.355 43.8414 151.408 43.7994C151.461 43.7574 151.491 43.7004 151.491 43.641V42.533L155.602 40.6561V41.4614C155.602 41.5208 155.632 41.5778 155.685 41.6198C155.739 41.6618 155.811 41.6854 155.886 41.6854C155.96 41.6839 156.031 41.6598 156.084 41.6181C156.137 41.5764 156.167 41.5203 156.169 41.4614V40.3958L160.273 38.525V39.312C160.284 39.3659 160.319 39.4149 160.371 39.4502C160.424 39.4855 160.491 39.5049 160.56 39.5049C160.629 39.5049 160.696 39.4855 160.748 39.4502C160.801 39.4149 160.836 39.3659 160.847 39.312V38.2646L164.951 36.3877V37.1445C164.962 37.1984 164.997 37.2474 165.049 37.2827C165.102 37.318 165.169 37.3374 165.238 37.3374C165.307 37.3374 165.373 37.318 165.426 37.2827C165.479 37.2474 165.514 37.1984 165.525 37.1445V36.1092L169.628 34.2384V34.9952C169.64 35.0491 169.675 35.098 169.727 35.1333C169.78 35.1687 169.847 35.1881 169.916 35.1881C169.985 35.1881 170.051 35.1687 170.104 35.1333C170.156 35.098 170.191 35.0491 170.203 34.9952V32.6218C170.197 32.567 170.167 32.5155 170.118 32.4766C170.069 32.4378 170.004 32.4141 169.935 32.4099Z" fill="black"/>
<path d="M124.907 62.1917C123.854 62.384 122.846 62.7069 121.921 63.1483C116.24 65.788 111.639 72.3935 111.639 77.897C111.639 78.0484 111.639 78.1877 111.639 78.3269L121.905 74.6095L124.907 62.1917Z" fill="#6311CB"/>
<path d="M124.911 62.192L121.917 74.6098L132.092 69.9418C132.168 69.4415 132.206 68.938 132.207 68.4342C132.191 63.9054 129.129 61.4957 124.911 62.192Z" fill="#6311CB"/>
<path d="M130.806 74.1251C131.453 72.7784 131.885 71.3729 132.092 69.9414L121.917 74.6094L130.806 74.1251Z" fill="#6311CB"/>
<path d="M111.65 78.3151C111.88 83.5219 116.397 85.6955 121.925 83.1587C125.753 81.4271 129.03 77.9094 130.806 74.0769L121.917 74.5613L111.65 78.3151Z" fill="#6311CB"/>
<path opacity="0.7" d="M124.911 62.192L121.917 74.6098L132.092 69.9418C132.168 69.4415 132.206 68.938 132.207 68.4342C132.191 63.9054 129.129 61.4957 124.911 62.192Z" fill="white"/>
<path opacity="0.15" d="M130.806 74.1251C131.453 72.7784 131.885 71.3729 132.092 69.9414L121.917 74.6094L130.806 74.1251Z" fill="black"/>
<path opacity="0.5" d="M111.65 78.3151C111.88 83.5219 116.397 85.6955 121.925 83.1587C125.753 81.4271 129.03 77.9094 130.806 74.0769L121.917 74.5613L111.65 78.3151Z" fill="white"/>
<path d="M111.651 78.6483C111.575 78.6471 111.501 78.6305 111.437 78.5999C111.38 78.5722 111.333 78.534 111.3 78.4886C111.266 78.4432 111.248 78.392 111.245 78.3396C111.245 78.1943 111.245 78.0489 111.245 77.8976C111.245 72.2972 115.946 65.5585 121.726 62.8764C122.689 62.4162 123.738 62.081 124.835 61.8834C124.9 61.872 124.968 61.8738 125.032 61.8886C125.096 61.9034 125.155 61.9308 125.202 61.9682C125.25 62.0044 125.285 62.0493 125.305 62.099C125.325 62.1487 125.329 62.2015 125.317 62.2527L122.308 74.6826C122.297 74.7322 122.271 74.779 122.233 74.8191C122.194 74.8591 122.144 74.8912 122.086 74.9127L111.819 78.6302C111.765 78.6446 111.708 78.6508 111.651 78.6483ZM124.398 62.6281C123.594 62.8181 122.822 63.0865 122.101 63.4273C116.558 66.0005 112.049 72.4485 112.011 77.831L121.527 74.392L124.398 62.6281Z" fill="white"/>
<path d="M121.918 74.9308C121.833 74.9321 121.749 74.9108 121.681 74.8702C121.619 74.8339 121.571 74.7846 121.543 74.7279C121.514 74.6712 121.507 74.6094 121.52 74.5493L124.521 62.1376C124.535 62.0752 124.573 62.0175 124.629 61.9721C124.685 61.9267 124.757 61.8958 124.835 61.8833C125.703 61.7093 126.611 61.6952 127.487 61.8421C128.363 61.9891 129.184 62.2932 129.888 62.731C131.642 63.8571 132.614 65.8853 132.614 68.4343C132.613 68.9502 132.574 69.4657 132.499 69.9782C132.491 70.027 132.469 70.0737 132.434 70.1146C132.4 70.1555 132.354 70.1897 132.3 70.2143L122.117 74.8884C122.056 74.9145 121.988 74.929 121.918 74.9308ZM125.302 62.4706L122.516 73.9742L131.756 69.736C131.817 69.3017 131.847 68.8652 131.848 68.4282C131.848 66.073 130.983 64.2204 129.414 63.2153C128.839 62.8607 128.173 62.6102 127.463 62.4815C126.752 62.3528 126.015 62.3491 125.302 62.4706Z" fill="white"/>
<path d="M121.918 74.9307C121.832 74.9309 121.748 74.9093 121.679 74.8689C121.61 74.8286 121.56 74.7716 121.535 74.7067C121.505 74.6385 121.507 74.5643 121.539 74.4968C121.571 74.4294 121.632 74.3729 121.711 74.3373L131.894 69.6632C131.958 69.6334 132.03 69.6177 132.104 69.6177C132.178 69.6177 132.251 69.6334 132.315 69.6632C132.378 69.6954 132.428 69.7406 132.461 69.7941C132.493 69.8475 132.506 69.907 132.499 69.966C132.284 71.4165 131.842 72.8402 131.182 74.2041C131.154 74.2602 131.107 74.3091 131.046 74.3454C130.985 74.3818 130.913 74.4041 130.837 74.41L121.941 74.8943L121.918 74.9307ZM131.595 70.5412L123.618 74.1739L130.508 73.7985C131.004 72.7433 131.368 71.6523 131.595 70.5412Z" fill="white"/>
<path d="M117.547 84.5576C116.574 84.5628 115.615 84.3733 114.76 84.0066C112.616 83.0621 111.368 81.052 111.246 78.3396C111.242 78.2761 111.263 78.2132 111.305 78.1592C111.347 78.1051 111.409 78.0625 111.483 78.0369L121.75 74.3194C121.795 74.3137 121.842 74.3137 121.888 74.3194L130.776 73.8351C130.844 73.8296 130.912 73.8385 130.974 73.8608C131.036 73.8832 131.089 73.9182 131.128 73.9622C131.17 74.0034 131.197 74.0527 131.206 74.1048C131.215 74.1569 131.207 74.2101 131.182 74.2589C129.329 78.2488 125.823 81.7786 122.125 83.486C120.743 84.1521 119.165 84.5215 117.547 84.5576ZM112.065 78.5031C112.226 80.8765 113.32 82.6201 115.127 83.4193C116.934 84.2185 119.239 84.0248 121.704 82.8805C125.134 81.3184 128.342 78.1156 130.179 74.4526L121.995 74.9006L112.065 78.5031Z" fill="white"/>
<path d="M154.992 49.0593C151.646 52.244 149.357 56.6941 149.357 60.6053C149.29 62.1088 149.74 63.5985 150.659 64.9161L159.647 55.913L154.992 49.0593Z" fill="#6311CB"/>
<path d="M164.284 44.7972C162.643 44.7851 161.032 45.1466 159.644 45.8385C157.864 46.6866 156.288 47.7771 154.989 49.0595L159.644 55.9011L164.284 44.7972Z" fill="#6311CB"/>
<path d="M168.977 47.395C168.586 46.6553 167.937 46.0186 167.106 45.5588C166.276 45.0991 165.297 44.8351 164.284 44.7976L159.645 55.9137L168.977 47.395Z" fill="#6311CB"/>
<path d="M168.98 47.395L159.647 55.9137L150.659 64.9289C152.42 67.1993 155.781 67.7442 159.647 65.9824C165.328 63.385 169.937 56.7795 169.937 51.2154C169.983 49.9014 169.656 48.5959 168.98 47.395Z" fill="#6311CB"/>
<path opacity="0.7" d="M164.284 44.7972C162.643 44.7851 161.032 45.1466 159.644 45.8385C157.864 46.6866 156.288 47.7771 154.989 49.0595L159.644 55.9011L164.284 44.7972Z" fill="white"/>
<path opacity="0.15" d="M168.977 47.395C168.586 46.6553 167.937 46.0186 167.106 45.5588C166.276 45.0991 165.297 44.8351 164.284 44.7976L159.645 55.9137L168.977 47.395Z" fill="black"/>
<path opacity="0.5" d="M168.98 47.395L159.647 55.9137L150.659 64.9289C152.42 67.1993 155.781 67.7442 159.647 65.9824C165.328 63.385 169.937 56.7795 169.937 51.2154C169.983 49.9014 169.656 48.5959 168.98 47.395Z" fill="white"/>
<path d="M150.656 65.237C150.59 65.232 150.528 65.2152 150.472 65.1879C150.416 65.1606 150.369 65.1236 150.334 65.0796C149.38 63.7124 148.911 62.1662 148.979 60.6053C148.979 56.7244 151.169 52.2198 154.706 48.8535C154.749 48.815 154.802 48.7847 154.861 48.7647C154.921 48.7448 154.986 48.7358 155.05 48.7385C155.117 48.7439 155.182 48.7622 155.238 48.7917C155.294 48.8213 155.34 48.8612 155.372 48.908L160.019 55.7557C160.056 55.8098 160.072 55.8714 160.065 55.9328C160.059 55.9941 160.029 56.0525 159.981 56.1008L150.97 65.1159C150.932 65.153 150.884 65.1831 150.83 65.204C150.775 65.2249 150.716 65.2362 150.656 65.237ZM154.92 49.6346C151.728 52.8435 149.76 57.009 149.76 60.6053C149.716 61.8918 150.044 63.1694 150.717 64.341L159.139 55.8647L154.92 49.6346Z" fill="white"/>
<path d="M159.644 56.2225C159.57 56.2235 159.497 56.2081 159.434 56.1782C159.37 56.1483 159.318 56.1049 159.284 56.053L154.637 49.2114C154.599 49.155 154.583 49.0909 154.591 49.0272C154.599 48.9636 154.631 48.9033 154.683 48.8542C156.004 47.5407 157.615 46.4269 159.437 45.5666C160.891 44.84 162.579 44.4615 164.299 44.4768C164.362 44.4784 164.423 44.4919 164.478 44.5161C164.532 44.5403 164.579 44.5746 164.613 44.616C164.65 44.6555 164.674 44.7015 164.683 44.7501C164.693 44.7986 164.687 44.8481 164.667 44.8945L160.027 56.0045C160.001 56.0638 159.954 56.1158 159.891 56.1544C159.829 56.1931 159.754 56.2167 159.675 56.2225H159.644ZM155.472 49.0964L159.552 55.1024L163.725 45.1125C162.349 45.2 161.018 45.5445 159.843 46.1175C158.18 46.9042 156.701 47.9119 155.472 49.0964Z" fill="white"/>
<path d="M159.644 56.2224C159.574 56.2236 159.505 56.2089 159.445 56.1801C159.363 56.1443 159.301 56.0872 159.267 56.0186C159.234 55.9501 159.231 55.8744 159.261 55.8047L163.901 44.6947C163.927 44.6288 163.981 44.5717 164.053 44.5323C164.125 44.4929 164.211 44.4734 164.299 44.4767C165.384 44.518 166.433 44.8008 167.324 45.2924C168.215 45.784 168.913 46.4645 169.336 47.2557C169.37 47.3127 169.382 47.3761 169.371 47.4384C169.36 47.5007 169.327 47.5592 169.275 47.6069L159.942 56.1134C159.906 56.1477 159.86 56.1752 159.808 56.194C159.757 56.2128 159.701 56.2225 159.644 56.2224ZM164.567 45.1306L160.654 54.4908L168.494 47.3465C168.131 46.7437 167.581 46.224 166.893 45.8363C166.206 45.4486 165.405 45.2057 164.567 45.1306Z" fill="white"/>
<path d="M155.278 67.3325C154.272 67.3425 153.28 67.1395 152.407 66.7445C151.533 66.3496 150.809 65.777 150.309 65.0862C150.261 65.0322 150.235 64.9677 150.235 64.9016C150.235 64.8355 150.261 64.771 150.309 64.7169L159.29 55.7078L168.638 47.1891C168.681 47.1479 168.737 47.1162 168.8 47.0971C168.863 47.078 168.931 47.0721 168.998 47.0801C169.063 47.087 169.125 47.1067 169.179 47.1373C169.232 47.168 169.275 47.2087 169.304 47.2557C170.01 48.4951 170.352 49.8445 170.307 51.2033C170.307 56.8521 165.598 63.6029 159.81 66.2426C158.446 66.913 156.883 67.2888 155.278 67.3325ZM151.151 64.9107C152.905 66.9631 155.982 67.2477 159.435 65.6675C165.001 63.1306 169.526 56.6281 169.526 51.179C169.554 50.0842 169.328 48.9946 168.86 47.9641L159.941 56.0892L151.151 64.9107Z" fill="white"/>
<path d="M136.509 56.4218L138.193 55.6529C138.675 55.4349 139.066 55.6166 139.066 56.0525V57.3361C139.052 57.5782 138.966 57.8144 138.814 58.0249C138.663 58.2355 138.45 58.4145 138.193 58.547L136.509 59.3159C136.026 59.5338 135.636 59.3583 135.636 58.9163V57.6388C135.649 57.3957 135.734 57.1585 135.886 56.9469C136.038 56.7353 136.251 56.5553 136.509 56.4218Z" fill="#6311CB"/>
<path d="M136.509 62.1673L138.193 61.3983C138.675 61.1743 139.066 61.356 139.066 61.7979V63.0754C139.054 63.3178 138.968 63.5543 138.816 63.7651C138.664 63.9758 138.45 64.1546 138.193 64.2863L136.509 65.0553C136.026 65.2793 135.636 65.0976 135.636 64.6557V63.36C135.651 63.1207 135.739 62.8879 135.891 62.6805C136.042 62.4732 136.254 62.2973 136.509 62.1673Z" fill="#6311CB"/>
<path opacity="0.7" d="M136.509 62.1673L138.193 61.3983C138.675 61.1743 139.066 61.356 139.066 61.7979V63.0754C139.054 63.3178 138.968 63.5543 138.816 63.7651C138.664 63.9758 138.45 64.1546 138.193 64.2863L136.509 65.0553C136.026 65.2793 135.636 65.0976 135.636 64.6557V63.36C135.651 63.1207 135.739 62.8879 135.891 62.6805C136.042 62.4732 136.254 62.2973 136.509 62.1673Z" fill="white"/>
<path d="M136.509 67.9078L138.193 67.1388C138.675 66.9209 139.066 67.0965 139.066 67.5384V68.8159C139.052 69.058 138.965 69.2939 138.814 69.5044C138.662 69.7149 138.449 69.894 138.193 70.0268L136.509 70.7958C136.026 71.0137 135.636 70.8321 135.636 70.3962V69.1126C135.65 68.8715 135.737 68.6366 135.889 68.4271C136.041 68.2177 136.253 68.0397 136.509 67.9078Z" fill="#6311CB"/>
<path opacity="0.15" d="M136.509 67.9078L138.193 67.1388C138.675 66.9209 139.066 67.0965 139.066 67.5384V68.8159C139.052 69.058 138.965 69.2939 138.814 69.5044C138.662 69.7149 138.449 69.894 138.193 70.0268L136.509 70.7958C136.026 71.0137 135.636 70.8321 135.636 70.3962V69.1126C135.65 68.8715 135.737 68.6366 135.889 68.4271C136.041 68.2177 136.253 68.0397 136.509 67.9078Z" fill="black"/>
<path d="M136.509 73.6474L138.193 72.8785C138.675 72.6605 139.066 72.8422 139.066 73.2781V74.5616C139.052 74.8038 138.966 75.0399 138.814 75.2505C138.663 75.4611 138.45 75.64 138.193 75.7725L136.509 76.5415C136.026 76.7594 135.636 76.5839 135.636 76.1419V74.8644C135.649 74.6213 135.734 74.3841 135.886 74.1725C136.038 73.9609 136.251 73.7809 136.509 73.6474Z" fill="#6311CB"/>
<path opacity="0.5" d="M136.509 73.6474L138.193 72.8785C138.675 72.6605 139.066 72.8422 139.066 73.2781V74.5616C139.052 74.8038 138.966 75.0399 138.814 75.2505C138.663 75.4611 138.45 75.64 138.193 75.7725L136.509 76.5415C136.026 76.7594 135.636 76.5839 135.636 76.1419V74.8644C135.649 74.6213 135.734 74.3841 135.886 74.1725C136.038 73.9609 136.251 73.7809 136.509 73.6474Z" fill="white"/>
<path opacity="0.4" d="M140.795 56.2949C140.695 56.2948 140.596 56.2734 140.51 56.2329C140.424 56.1925 140.353 56.1344 140.305 56.0648C140.232 55.9626 140.213 55.8419 140.252 55.7287C140.291 55.6155 140.384 55.5188 140.512 55.4594L145.634 53.1223C145.763 53.076 145.91 53.0694 146.045 53.1037C146.181 53.1379 146.295 53.2107 146.366 53.3079C146.438 53.4051 146.461 53.5197 146.432 53.6297C146.403 53.7397 146.323 53.8372 146.208 53.9034L141.078 56.2464C140.99 56.2805 140.893 56.2971 140.795 56.2949Z" fill="black"/>
<path opacity="0.4" d="M140.72 62.0894C140.593 62.0917 140.469 62.0601 140.367 61.9998C140.265 61.9395 140.192 61.8539 140.16 61.7568C140.127 61.6597 140.137 61.5567 140.187 61.4644C140.237 61.3721 140.325 61.2958 140.437 61.2479L145.559 58.9108C145.624 58.8735 145.698 58.8473 145.776 58.834C145.855 58.8207 145.936 58.8206 146.015 58.8337C146.093 58.8468 146.168 58.8728 146.233 58.9101C146.298 58.9473 146.352 58.9949 146.393 59.0498C146.433 59.1048 146.458 59.1658 146.467 59.2289C146.476 59.2921 146.468 59.356 146.443 59.4165C146.419 59.477 146.378 59.5328 146.325 59.5802C146.271 59.6277 146.206 59.6657 146.133 59.6919L141.003 62.0289C140.918 62.0692 140.82 62.0902 140.72 62.0894Z" fill="black"/>
<path opacity="0.4" d="M140.609 67.8893C140.484 67.8878 140.364 67.8545 140.265 67.7942C140.167 67.7339 140.096 67.6499 140.063 67.555C140.03 67.46 140.038 67.3592 140.083 67.2677C140.129 67.1762 140.212 67.099 140.318 67.0477L145.447 64.7107C145.577 64.6533 145.729 64.6382 145.872 64.6688C146.016 64.6994 146.138 64.7731 146.213 64.8741C146.282 64.977 146.299 65.0967 146.26 65.209C146.222 65.3214 146.131 65.418 146.006 65.4796L140.877 67.8166C140.797 67.8584 140.704 67.8834 140.609 67.8893Z" fill="black"/>
<path opacity="0.4" d="M140.559 73.6897C140.459 73.6909 140.361 73.6707 140.274 73.6312C140.188 73.5918 140.117 73.5346 140.069 73.4657C139.996 73.3635 139.977 73.2428 140.016 73.1296C140.054 73.0164 140.148 72.9197 140.275 72.8603L145.405 70.5172C145.47 70.4823 145.544 70.4585 145.622 70.4473C145.7 70.4361 145.78 70.4377 145.857 70.452C145.933 70.4663 146.006 70.4929 146.069 70.5304C146.132 70.5678 146.185 70.6151 146.224 70.6694C146.263 70.7237 146.288 70.7838 146.296 70.8459C146.305 70.908 146.297 70.9708 146.273 71.0304C146.249 71.09 146.21 71.1451 146.158 71.1922C146.106 71.2393 146.043 71.2775 145.971 71.3043L140.842 73.6413C140.755 73.678 140.657 73.6948 140.559 73.6897Z" fill="black"/>
<path opacity="0.4" d="M112.283 94.0927C112.183 94.0926 112.085 94.0712 111.998 94.0308C111.912 93.9903 111.841 93.9322 111.793 93.8626C111.721 93.7604 111.702 93.6397 111.74 93.5265C111.779 93.4133 111.872 93.3166 112 93.2572L136.017 82.2925C136.146 82.2351 136.299 82.22 136.442 82.2506C136.585 82.2812 136.708 82.3549 136.783 82.4559C136.853 82.5592 136.869 82.6799 136.829 82.7927C136.789 82.9056 136.696 83.0018 136.568 83.0614L112.559 94.0564C112.472 94.0853 112.377 94.0978 112.283 94.0927Z" fill="black"/>
<path opacity="0.4" d="M113.05 96.9024C112.923 96.9047 112.799 96.8731 112.697 96.8128C112.595 96.7524 112.522 96.6668 112.49 96.5697C112.457 96.4726 112.467 96.3697 112.517 96.2774C112.567 96.1851 112.655 96.1088 112.767 96.0608L136.784 85.1022C136.849 85.0728 136.92 85.0537 136.994 85.0462C137.069 85.0386 137.144 85.0427 137.216 85.0582C137.288 85.0736 137.356 85.1002 137.415 85.1363C137.474 85.1724 137.524 85.2174 137.561 85.2687C137.598 85.3199 137.622 85.3765 137.632 85.4352C137.641 85.4938 137.636 85.5534 137.617 85.6104C137.597 85.6675 137.564 85.7209 137.518 85.7677C137.472 85.8145 137.415 85.8538 137.35 85.8832L113.341 96.8419C113.253 96.8839 113.152 96.905 113.05 96.9024Z" fill="black"/>
<path opacity="0.4" d="M114.161 99.621C114.036 99.6195 113.916 99.5862 113.817 99.5259C113.719 99.4656 113.648 99.3816 113.615 99.2867C113.582 99.1917 113.589 99.0909 113.635 98.9994C113.681 98.9079 113.763 98.8307 113.87 98.7794L137.879 87.8207C137.944 87.7834 138.018 87.7572 138.097 87.7439C138.175 87.7306 138.257 87.7305 138.335 87.7436C138.414 87.7567 138.488 87.7827 138.553 87.82C138.618 87.8572 138.673 87.9048 138.713 87.9597C138.754 88.0147 138.779 88.0757 138.788 88.1389C138.796 88.202 138.788 88.2659 138.764 88.3264C138.739 88.387 138.699 88.4427 138.646 88.4901C138.592 88.5376 138.527 88.5756 138.453 88.6018L114.444 99.5604C114.358 99.5999 114.26 99.6208 114.161 99.621Z" fill="black"/>
<path opacity="0.4" d="M149.963 76.8922C149.863 76.8927 149.766 76.8722 149.679 76.8329C149.593 76.7935 149.522 76.7366 149.473 76.6682C149.4 76.5659 149.381 76.4453 149.42 76.3321C149.459 76.2189 149.552 76.1222 149.68 76.0627L173.689 65.1041C173.819 65.0497 173.971 65.0364 174.113 65.0667C174.255 65.097 174.377 65.1688 174.455 65.2676C174.525 65.3708 174.541 65.4915 174.501 65.6043C174.462 65.7172 174.368 65.8135 174.24 65.873L150.239 76.8316C150.155 76.8699 150.06 76.8907 149.963 76.8922Z" fill="black"/>
<path opacity="0.4" d="M150.733 79.7015C150.634 79.7021 150.536 79.6816 150.45 79.6422C150.364 79.6028 150.292 79.546 150.243 79.4775C150.171 79.3753 150.152 79.2546 150.19 79.1414C150.229 79.0282 150.322 78.9315 150.45 78.8721L174.46 67.9134C174.59 67.859 174.741 67.8457 174.883 67.876C175.025 67.9063 175.147 67.9781 175.225 68.0769C175.295 68.1802 175.312 68.3008 175.272 68.4137C175.232 68.5265 175.138 68.6228 175.011 68.6823L151.009 79.641C150.925 79.6792 150.83 79.7 150.733 79.7015Z" fill="black"/>
<path opacity="0.4" d="M151.844 82.4202C151.744 82.4206 151.645 82.4001 151.558 82.3607C151.47 82.3214 151.398 82.2647 151.347 82.1962C151.278 82.0933 151.261 81.9736 151.299 81.8613C151.338 81.749 151.429 81.6523 151.553 81.5907L175.563 70.6321C175.628 70.6023 175.7 70.5829 175.775 70.5752C175.85 70.5674 175.926 70.5714 175.999 70.5868C176.072 70.6023 176.14 70.6289 176.2 70.6653C176.26 70.7016 176.31 70.7469 176.348 70.7986C176.385 70.8503 176.41 70.9073 176.42 70.9665C176.429 71.0256 176.424 71.0857 176.405 71.1434C176.385 71.201 176.352 71.255 176.306 71.3023C176.26 71.3497 176.202 71.3893 176.137 71.4192L152.097 82.3597C152.02 82.396 151.934 82.4167 151.844 82.4202Z" fill="black"/>
<path d="M120.748 102.703L175.489 77.7099C176.366 77.2899 177.407 77.1375 178.416 77.2813C179.426 77.4251 180.334 77.8552 180.971 78.491C182.142 79.7564 181.667 81.4153 179.738 82.2992L124.982 107.286C123.052 108.164 120.388 107.934 119.232 106.681C118.076 105.427 118.826 103.581 120.748 102.703Z" fill="#6311CB"/>
<path opacity="0.4" d="M129.781 114.945C129.681 114.944 129.583 114.923 129.496 114.884C129.409 114.845 129.336 114.788 129.284 114.721C129.214 114.617 129.197 114.497 129.237 114.384C129.277 114.271 129.371 114.175 129.498 114.115L153.5 103.138C153.63 103.084 153.781 103.071 153.924 103.101C154.066 103.131 154.188 103.203 154.266 103.302C154.336 103.405 154.354 103.525 154.316 103.637C154.277 103.75 154.185 103.847 154.059 103.907L130.049 114.866C129.971 114.911 129.878 114.938 129.781 114.945Z" fill="black"/>
<path opacity="0.4" d="M126.779 113.268C126.654 113.266 126.534 113.233 126.435 113.173C126.337 113.112 126.266 113.028 126.233 112.933C126.2 112.838 126.207 112.738 126.253 112.646C126.299 112.555 126.382 112.477 126.488 112.426L150.497 101.467C150.628 101.412 150.781 101.399 150.923 101.43C151.066 101.462 151.188 101.536 151.263 101.637C151.332 101.74 151.349 101.859 151.31 101.972C151.272 102.084 151.181 102.181 151.056 102.242L127.062 113.207C126.976 113.247 126.878 113.267 126.779 113.268Z" fill="black"/>
<path opacity="0.4" d="M132.954 116.422C132.854 116.421 132.756 116.399 132.67 116.358C132.585 116.318 132.513 116.261 132.464 116.192C132.392 116.09 132.373 115.969 132.411 115.856C132.45 115.743 132.543 115.646 132.671 115.586L156.688 104.622C156.818 104.567 156.969 104.554 157.111 104.584C157.254 104.615 157.376 104.686 157.454 104.785C157.524 104.888 157.54 105.009 157.5 105.122C157.46 105.235 157.367 105.331 157.239 105.391L133.237 116.349C133.151 116.39 133.054 116.415 132.954 116.422Z" fill="black"/>
<path opacity="0.4" d="M164.054 99.3C163.927 99.3023 163.803 99.2707 163.701 99.2103C163.599 99.15 163.526 99.0644 163.494 98.9673C163.461 98.8702 163.471 98.7673 163.521 98.675C163.571 98.5827 163.659 98.5064 163.771 98.4584L187.772 87.4998C187.904 87.4396 188.061 87.4233 188.208 87.4545C188.356 87.4857 188.481 87.5619 188.557 87.6663C188.633 87.7706 188.654 87.8947 188.614 88.011C188.575 88.1274 188.479 88.2266 188.347 88.2868L164.345 99.2394C164.257 99.2809 164.156 99.3019 164.054 99.3Z" fill="black"/>
<path opacity="0.4" d="M161.055 97.6225C160.931 97.6211 160.81 97.5877 160.712 97.5274C160.613 97.4671 160.542 97.3832 160.51 97.2882C160.477 97.1933 160.484 97.0925 160.53 97.001C160.576 96.9095 160.658 96.8322 160.764 96.7809L184.774 85.8283C184.903 85.7709 185.056 85.7559 185.199 85.7865C185.342 85.817 185.464 85.8908 185.539 85.9918C185.609 86.0951 185.626 86.2158 185.586 86.3286C185.546 86.4415 185.453 86.5377 185.325 86.5973L161.323 97.5559C161.241 97.5935 161.15 97.6162 161.055 97.6225Z" fill="black"/>
<path opacity="0.4" d="M167.207 100.777C167.108 100.778 167.01 100.757 166.924 100.718C166.837 100.679 166.766 100.622 166.717 100.553C166.644 100.451 166.625 100.33 166.664 100.217C166.703 100.104 166.796 100.007 166.924 99.9477L190.933 88.9891C190.999 88.9542 191.073 88.9305 191.15 88.9192C191.228 88.908 191.308 88.9096 191.385 88.9239C191.462 88.9382 191.534 88.9649 191.597 89.0023C191.661 89.0397 191.713 89.087 191.753 89.1413C191.792 89.1956 191.816 89.2557 191.825 89.3178C191.833 89.3799 191.825 89.4428 191.801 89.5023C191.778 89.5619 191.739 89.617 191.687 89.6641C191.635 89.7112 191.571 89.7494 191.5 89.7762L167.498 100.717C167.41 100.757 167.309 100.778 167.207 100.777Z" fill="black"/>
<path d="M167.569 114.436C162.363 112.056 153.528 112.232 147.847 114.823C142.166 117.415 141.783 121.447 146.997 123.826C152.211 126.206 161.038 126.036 166.719 123.445C172.4 120.854 172.767 116.821 167.569 114.436ZM164.024 122.21C159.966 124.062 153.658 124.19 149.937 122.488C146.216 120.787 146.484 117.905 150.542 116.052C154.599 114.2 160.908 114.079 164.637 115.78C168.365 117.481 168.082 120.357 164.024 122.21Z" fill="#6311CB"/>
<path d="M153.237 117.287C155.672 116.173 159.462 116.077 161.697 117.118C163.933 118.159 163.764 119.867 161.33 120.981C158.895 122.095 155.105 122.192 152.908 121.144C150.711 120.097 150.803 118.395 153.237 117.287Z" fill="#6311CB"/>
<path opacity="0.5" d="M153.237 117.287C155.672 116.173 159.462 116.077 161.697 117.118C163.933 118.159 163.764 119.867 161.33 120.981C158.895 122.095 155.105 122.192 152.908 121.144C150.711 120.097 150.803 118.395 153.237 117.287Z" fill="black"/>
<path opacity="0.15" d="M167.569 114.436C162.363 112.056 153.528 112.232 147.847 114.823C142.166 117.415 141.783 121.447 146.997 123.826C152.211 126.206 161.038 126.036 166.719 123.445C172.4 120.854 172.767 116.821 167.569 114.436ZM164.024 122.21C159.966 124.062 153.658 124.19 149.937 122.488C146.216 120.787 146.484 117.905 150.542 116.052C154.599 114.2 160.908 114.079 164.637 115.78C168.365 117.481 168.082 120.357 164.024 122.21Z" fill="black"/>
<path d="M153.105 113.243L154.292 114.926C156.588 114.509 158.968 114.474 161.282 114.823L162.89 113.098C159.651 112.611 156.319 112.66 153.105 113.243Z" fill="#6311CB"/>
<path opacity="0.7" d="M153.105 113.243L154.292 114.926C156.588 114.509 158.968 114.474 161.282 114.823L162.89 113.098C159.651 112.611 156.319 112.66 153.105 113.243Z" fill="white"/>
<path opacity="0.4" d="M158 112.408C157.849 112.4 157.708 112.346 157.607 112.256C157.507 112.166 157.455 112.049 157.464 111.93L157.625 109.859L168.175 105.015C168.307 104.955 168.463 104.939 168.611 104.97C168.758 105.001 168.883 105.078 168.959 105.182C169.036 105.286 169.056 105.41 169.017 105.527C168.977 105.643 168.881 105.742 168.749 105.802L158.689 110.404L158.566 111.99C158.557 112.104 158.493 112.21 158.387 112.288C158.282 112.365 158.144 112.408 158 112.408Z" fill="black"/>
<path d="M198.432 100.36C193.218 97.9802 184.39 98.1558 178.702 100.747C173.013 103.338 172.638 107.371 177.852 109.75C183.066 112.13 191.901 111.96 197.582 109.369C203.263 106.777 203.645 102.739 198.432 100.36ZM194.887 108.134C190.829 109.986 184.521 110.113 180.792 108.412C177.064 106.711 177.347 103.829 181.405 101.976C185.462 100.123 191.771 100.002 195.492 101.704C199.213 103.405 198.945 106.281 194.887 108.134Z" fill="#6311CB"/>
<path d="M184.099 103.211C186.533 102.097 190.315 102 192.52 103.042C194.725 104.083 194.595 105.791 192.153 106.905C189.711 108.019 185.936 108.115 183.731 107.068C181.526 106.021 181.664 104.35 184.099 103.211Z" fill="#6311CB"/>
<path opacity="0.5" d="M184.099 103.211C186.533 102.097 190.315 102 192.52 103.042C194.725 104.083 194.595 105.791 192.153 106.905C189.711 108.019 185.936 108.115 183.731 107.068C181.526 106.021 181.664 104.35 184.099 103.211Z" fill="black"/>
<path opacity="0.15" d="M198.432 100.36C193.218 97.9802 184.39 98.1558 178.702 100.747C173.013 103.338 172.638 107.371 177.852 109.75C183.066 112.13 191.901 111.96 197.582 109.369C203.263 106.777 203.645 102.739 198.432 100.36ZM194.887 108.134C190.829 109.986 184.521 110.113 180.792 108.412C177.064 106.711 177.347 103.829 181.405 101.976C185.462 100.123 191.771 100.002 195.492 101.704C199.213 103.405 198.945 106.281 194.887 108.134Z" fill="black"/>
<path d="M198.43 100.359C194.028 98.3492 187.046 98.1675 181.587 99.7235L183.47 101.243C187.39 100.135 192.374 100.268 195.521 101.703C196.045 101.94 196.526 102.231 196.953 102.569L200.467 101.576C199.86 101.1 199.175 100.69 198.43 100.359Z" fill="#6311CB"/>
<path opacity="0.7" d="M198.43 100.359C194.028 98.3492 187.046 98.1675 181.587 99.7235L183.47 101.243C187.39 100.135 192.374 100.268 195.521 101.703C196.045 101.94 196.526 102.231 196.953 102.569L200.467 101.576C199.86 101.1 199.175 100.69 198.43 100.359Z" fill="white"/>
<path opacity="0.4" d="M188.944 98.2944H188.906C188.755 98.2866 188.614 98.232 188.514 98.1424C188.413 98.0528 188.362 97.9355 188.37 97.8161L188.531 95.7394L199.081 90.926C199.21 90.8797 199.357 90.8731 199.492 90.9074C199.628 90.9416 199.742 91.0144 199.814 91.1116C199.885 91.2088 199.909 91.3235 199.879 91.4335C199.85 91.5435 199.77 91.641 199.655 91.7071L189.61 96.2722L189.488 97.8645C189.482 97.9771 189.423 98.0838 189.322 98.1635C189.222 98.2432 189.087 98.2899 188.944 98.2944Z" fill="black"/>
<path opacity="0.4" d="M161.282 129.354C161.155 129.355 161.031 129.323 160.93 129.262C160.829 129.201 160.756 129.116 160.723 129.019C160.69 128.922 160.698 128.82 160.747 128.727C160.795 128.634 160.881 128.557 160.991 128.507L219.269 101.927C219.4 101.868 219.555 101.852 219.701 101.883C219.773 101.899 219.841 101.925 219.9 101.961C219.959 101.998 220.009 102.043 220.046 102.094C220.083 102.145 220.107 102.202 220.117 102.26C220.127 102.319 220.121 102.379 220.102 102.436C220.082 102.493 220.049 102.546 220.003 102.593C219.957 102.64 219.9 102.679 219.836 102.708L161.534 129.294C161.456 129.327 161.37 129.348 161.282 129.354Z" fill="black"/>
<path opacity="0.4" d="M164.4 130.783C164.276 130.781 164.157 130.746 164.06 130.686C163.963 130.625 163.893 130.541 163.861 130.446C163.829 130.352 163.837 130.251 163.883 130.16C163.929 130.07 164.011 129.993 164.117 129.942L222.418 103.338C222.483 103.301 222.557 103.275 222.636 103.261C222.714 103.248 222.796 103.248 222.874 103.261C222.953 103.274 223.027 103.3 223.092 103.338C223.157 103.375 223.212 103.422 223.252 103.477C223.293 103.532 223.318 103.593 223.327 103.656C223.335 103.72 223.327 103.784 223.303 103.844C223.278 103.905 223.238 103.96 223.184 104.008C223.131 104.055 223.066 104.093 222.992 104.119L164.691 130.723C164.603 130.763 164.502 130.784 164.4 130.783Z" fill="black"/>
<path opacity="0.4" d="M167.549 132.2C167.449 132.199 167.351 132.177 167.265 132.136C167.179 132.096 167.108 132.039 167.059 131.97C166.986 131.868 166.967 131.747 167.006 131.634C167.045 131.521 167.138 131.424 167.266 131.364L225.597 104.773C225.728 104.714 225.884 104.698 226.029 104.729C226.175 104.76 226.299 104.836 226.374 104.94C226.45 105.043 226.47 105.166 226.43 105.281C226.391 105.397 226.295 105.495 226.164 105.554L167.863 132.164C167.763 132.196 167.656 132.208 167.549 132.2Z" fill="black"/>
</svg>
