<svg width="135" height="142" viewBox="0 0 135 142" fill="none" xmlns="http://www.w3.org/2000/svg">
<g opacity="0.2">
<path d="M69.5846 119.069L0.564677 46.0622C0.216207 45.6921 0.0285365 45.199 0.0427439 44.6909C0.0569512 44.1828 0.271879 43.701 0.640483 43.351L45.9507 0.524519C46.1337 0.351428 46.349 0.216083 46.5843 0.126213C46.8196 0.0363424 47.0703 -0.0062906 47.322 0.000749134C47.5738 0.00778887 47.8217 0.0643614 48.0516 0.167239C48.2815 0.270116 48.4889 0.417281 48.6619 0.600326L117.677 73.6113C118.026 73.9814 118.214 74.4744 118.199 74.9826C118.185 75.4907 117.97 75.9725 117.602 76.3225L72.3003 119.131C72.1184 119.306 71.9036 119.444 71.6683 119.535C71.433 119.627 71.1819 119.671 70.9295 119.666C70.677 119.66 70.4282 119.604 70.1974 119.502C69.9666 119.399 69.7583 119.252 69.5846 119.069Z" fill="#6311CB"/>
<g opacity="0.3">
<path d="M69.5846 119.069L0.564677 46.0622C0.216207 45.6921 0.0285365 45.199 0.0427439 44.6909C0.0569512 44.1828 0.271879 43.701 0.640483 43.351L45.9507 0.524519C46.1337 0.351428 46.349 0.216083 46.5843 0.126213C46.8196 0.0363424 47.0703 -0.0062906 47.322 0.000749134C47.5738 0.00778887 47.8217 0.0643614 48.0516 0.167239C48.2815 0.270116 48.4889 0.417281 48.6619 0.600326L117.677 73.6113C118.026 73.9814 118.214 74.4744 118.199 74.9826C118.185 75.4907 117.97 75.9725 117.602 76.3225L72.3003 119.131C72.1184 119.306 71.9036 119.444 71.6683 119.535C71.433 119.627 71.1819 119.671 70.9295 119.666C70.677 119.66 70.4282 119.604 70.1974 119.502C69.9666 119.399 69.7583 119.252 69.5846 119.069Z" fill="black"/>
</g>
<path d="M117.169 73.0762L49.157 1.13548C48.9181 0.881725 48.6315 0.677623 48.3135 0.534868C47.9955 0.392113 47.6525 0.31351 47.3041 0.303568C46.9558 0.293626 46.6088 0.352537 46.2832 0.476927C45.9577 0.601317 45.6598 0.78874 45.4068 1.02845L32.5375 13.1977C32.4102 13.3166 32.3143 13.4651 32.2583 13.6301C32.2023 13.795 32.1879 13.9712 32.2164 14.143C33.5051 21.3402 38.6511 27.7749 44.787 32.0379C52.1982 37.1883 60.9829 39.904 69.3128 43.3421C77.6426 46.7801 86.0393 51.3107 91.047 58.8245C95.7694 65.9192 96.8842 74.7172 99.2877 82.9044C99.9413 85.1287 100.758 87.3018 101.731 89.4059C101.802 89.5587 101.908 89.6925 102.041 89.7964C102.174 89.9003 102.329 89.9712 102.494 90.0034C102.66 90.0356 102.83 90.0282 102.992 89.9817C103.154 89.9352 103.303 89.8509 103.426 89.7359L117.067 76.8398C117.322 76.6004 117.528 76.3127 117.671 75.9933C117.815 75.674 117.893 75.3294 117.903 74.9794C117.913 74.6294 117.853 74.281 117.727 73.9543C117.601 73.6277 117.411 73.3292 117.169 73.0762Z" fill="#6311CB"/>
<path d="M32.725 35.3957L32.1275 34.7402L31.2357 35.5518L30.9191 35.2173L31.7797 34.4058L30.0361 32.5641L30.2769 32.3322L34.0807 32.0156L34.4329 32.3902L30.7451 32.7157L32.0829 34.1338L32.8365 33.4158L33.1442 33.7458L32.3906 34.4593L33.006 35.1103L32.725 35.3957Z" fill="white"/>
<path d="M35.074 37.719C34.5255 38.2318 33.7362 38.2363 32.9871 37.447C32.5654 37.029 32.3183 36.4663 32.2959 35.8729L32.7151 35.7837C32.7208 36.2985 32.929 36.7904 33.2948 37.1527C33.8076 37.6967 34.3382 37.7547 34.744 37.3712C35.1498 36.9877 35.132 36.4794 34.5612 35.8774L34.3382 35.6455L34.5879 35.4091L36.5768 35.2442L34.9982 33.5719L35.297 33.291L37.2813 35.3913L37.045 35.6143L35.0071 35.7882C35.6314 36.524 35.5957 37.233 35.074 37.719Z" fill="white"/>
<path d="M37.5938 40.3543C37.0364 40.8805 36.256 40.9028 35.4846 40.1046C35.0625 39.689 34.8166 39.1269 34.7979 38.5349L35.217 38.4458C35.2261 38.9489 35.4308 39.4288 35.7878 39.7835C36.3095 40.3409 36.858 40.3811 37.2549 40.002C37.6518 39.623 37.7008 39.1102 36.9071 38.2674L36.2471 37.5717L38.0308 36.1938L39.7208 37.9775L39.4221 38.2585L38.0263 36.7869L36.8759 37.6565L37.2727 38.1024C38.2047 39.0478 38.169 39.788 37.5938 40.3543Z" fill="white"/>
<path d="M40.3277 43.1993C40.1858 43.3318 40.0179 43.4332 39.8347 43.4971C39.6514 43.561 39.4569 43.586 39.2634 43.5704C39.07 43.5549 38.8819 43.4992 38.7112 43.4069C38.5405 43.3146 38.3909 43.1877 38.272 43.0343C37.4515 42.1648 37.6075 41.1258 38.6376 40.1492C39.748 39.1013 40.8984 39.1592 41.7368 40.0466C42.0055 40.3048 42.1983 40.6318 42.2942 40.992L41.8929 41.1124C41.826 40.8134 41.6706 40.5414 41.4469 40.332C40.7825 39.6275 39.904 39.6007 39.0167 40.439C38.9409 40.5104 38.8517 40.604 38.7625 40.7066C39.0313 40.6287 39.3171 40.6315 39.5843 40.7148C39.8515 40.798 40.0883 40.958 40.2652 41.1748C40.8806 41.8214 40.9252 42.6374 40.3277 43.1993ZM40.0066 42.8782C40.4525 42.4724 40.4124 41.8972 39.9353 41.3933C39.8499 41.2797 39.7422 41.1847 39.6187 41.1144C39.4953 41.044 39.3587 40.9997 39.2174 40.9843C39.0761 40.9688 38.9332 40.9825 38.7974 41.0245C38.6616 41.0664 38.5359 41.1358 38.428 41.2283C38.0668 41.5672 38.0089 42.1871 38.544 42.7489C38.6265 42.8605 38.7318 42.9533 38.8528 43.0211C38.9739 43.089 39.108 43.1304 39.2462 43.1426C39.3844 43.1548 39.5237 43.1376 39.6548 43.092C39.7859 43.0464 39.9058 42.9736 40.0066 42.8782Z" fill="white"/>
<path d="M46.0268 51.1814L46.3166 49.4334L44.5329 49.6207L44.1807 49.2461L46.3612 49.0232L46.6778 46.9719L47.0346 47.3465L46.767 48.992L48.4258 48.818L48.7692 49.1837L46.7046 49.3888L46.3701 51.5605L46.0268 51.1814Z" fill="white"/>
<path d="M48.3818 53.6739L48.6717 51.9214L46.888 52.1087L46.5312 51.7341L48.7118 51.5156L49.0329 49.4644L49.3852 49.8345L49.1221 51.4799L50.7764 51.3105L51.1243 51.6761L49.0552 51.8813L48.7207 54.0529L48.3818 53.6739Z" fill="white"/>
<path d="M50.7358 56.1624L51.0256 54.4144L49.2419 54.6017L48.8896 54.2271L51.0658 54.0086L51.3868 51.9529L51.7391 52.3275L51.476 53.9729L53.1348 53.8035L53.4782 54.1647L51.4091 54.3698L51.0747 56.5414L50.7358 56.1624Z" fill="white"/>
<path d="M53.0854 58.6372L53.3752 56.8892L51.5915 57.0765L51.2393 56.7019L53.4154 56.479L53.7364 54.4277L54.0887 54.8023L53.8256 56.4478L55.4845 56.2739L55.8278 56.6395L53.7587 56.8446L53.4287 59.0163L53.0854 58.6372Z" fill="white"/>
<path d="M61.2241 67.2569L61.5139 65.5089L59.7302 65.6961L59.3779 65.3216L61.554 65.1031L61.8751 63.0474L62.2274 63.4219L61.9643 65.0674L63.6231 64.8935L63.9665 65.2591L61.8974 65.4643L61.563 67.6359L61.2241 67.2569Z" fill="white"/>
<path d="M63.5785 69.7498L63.8684 67.9973L62.0847 68.1846L61.7324 67.8145L63.9085 67.5915L64.2296 65.5403L64.5819 65.9149L64.3188 67.5603L65.9776 67.3864L66.321 67.7521L64.2519 67.9572L63.9174 70.1288L63.5785 69.7498Z" fill="white"/>
<path d="M65.9325 72.2422L66.2268 70.4897L64.4431 70.677L64.0908 70.3025L66.2669 70.084L66.588 68.0327L66.9403 68.4028L66.6772 70.0483L68.336 69.8788L68.6794 70.24L66.6103 70.4452L66.2803 72.6168L65.9325 72.2422Z" fill="white"/>
<path d="M68.2924 74.7305L68.5823 72.9825L66.7986 73.1698L66.4463 72.7952L68.6224 72.5767L68.9435 70.521L69.3002 70.8956L69.0327 72.541L70.6915 72.3671L71.0348 72.7328L68.9658 72.9379L68.6358 75.1095L68.2924 74.7305Z" fill="white"/>
<path d="M78.8596 79.3683L75.5955 82.4586L75.2744 82.1197L78.2443 79.3148L77.5174 78.5478L77.8162 78.2625L78.8596 79.3683Z" fill="white"/>
<path d="M79.3113 84.5008C78.7673 85.018 77.9735 85.018 77.2244 84.2288C76.8027 83.8107 76.5556 83.248 76.5332 82.6546L76.9524 82.5655C76.9607 83.081 77.1685 83.5733 77.5321 83.9389C78.0449 84.4785 78.58 84.5409 78.9858 84.1574C79.3916 83.7739 79.3737 83.2656 78.7985 82.6591L78.58 82.4272L78.8253 82.1953L80.8141 82.0259L79.2355 80.3581L79.5343 80.0728L81.5186 82.173L81.2823 82.4005L79.2489 82.5744C79.8732 83.3191 79.842 84.0147 79.3113 84.5008Z" fill="white"/>
<path d="M82.303 87.8319L81.6832 87.1764L80.827 87.988L80.506 87.6536L81.3666 86.842L79.623 85.0003L79.8683 84.7685L83.6676 84.4563L84.0198 84.8264L80.3321 85.1519L81.6698 86.57L82.4234 85.8565L82.7356 86.182L81.9775 86.8955L82.5973 87.551L82.303 87.8319Z" fill="white"/>
<path d="M84.1232 90.8818L83.8244 91.1627L81.6572 88.8707L81.898 88.6477L84.5111 88.7458C85.2246 88.7726 85.51 88.6343 85.733 88.4248C86.112 88.0636 86.0942 87.5775 85.6215 87.087C85.4739 86.9112 85.2887 86.7711 85.0794 86.6769C84.8702 86.5827 84.6424 86.5369 84.413 86.543V86.097C84.7096 86.0938 85.0033 86.1561 85.2731 86.2794C85.5429 86.4027 85.7821 86.5841 85.9738 86.8105C86.598 87.4749 86.6605 88.2107 86.112 88.728C85.7998 89.0223 85.4297 89.1739 84.5869 89.1739L82.442 89.0981L84.1232 90.8818Z" fill="white"/>
<path d="M20.8229 38.1249C21.0006 37.977 21.2177 37.8844 21.4474 37.8587C21.6771 37.8329 21.9093 37.8751 22.1153 37.98C22.3213 38.0849 22.492 38.2479 22.6063 38.4488C22.7205 38.6497 22.7734 38.8798 22.7582 39.1104L22.3123 39.0836C22.3254 38.9813 22.3153 38.8772 22.2829 38.7792C22.2505 38.6812 22.1966 38.5918 22.125 38.5173C22.063 38.4517 21.9886 38.399 21.9061 38.3622C21.8237 38.3253 21.7348 38.3051 21.6445 38.3026C21.4622 38.2976 21.2854 38.3652 21.1529 38.4906C21.0205 38.6159 20.9432 38.7888 20.9382 38.9711C20.9332 39.1534 21.0008 39.3302 21.1262 39.4627C21.1966 39.5386 21.2834 39.5973 21.38 39.6344C21.4767 39.6715 21.5805 39.686 21.6836 39.6767V40.1226C21.5156 40.1301 21.3482 40.0995 21.1937 40.0331C21.0393 39.9667 20.9018 39.8662 20.7917 39.7392C20.6827 39.6339 20.5965 39.5073 20.5386 39.3673C20.4807 39.2272 20.4524 39.0767 20.4553 38.9252C20.4582 38.7737 20.4924 38.6244 20.5556 38.4867C20.6189 38.349 20.7099 38.2258 20.8229 38.1249Z" fill="white"/>
<path d="M22.96 41.2463L22.2732 40.5239L21.8273 40.7022L21.4795 40.3321L23.7091 39.5518L24.0435 39.9085L23.1517 42.0801L22.7638 41.6922L22.96 41.2463ZM23.1249 40.8761L23.4861 40.0646L22.6567 40.3812L23.1249 40.8761Z" fill="white"/>
<path d="M24.2085 43.244L24.3556 42.5305L24.0569 42.2184L23.6109 42.6286L23.2676 42.2674L24.8283 40.7959L25.466 41.4692C25.8584 41.8839 25.8896 42.3611 25.5373 42.6777C25.4371 42.7823 25.3066 42.8528 25.1642 42.8792C25.0217 42.9056 24.8746 42.8866 24.7436 42.8248L24.5741 43.6453L24.2085 43.244ZM25.1538 41.71L24.8729 41.4157L24.3289 41.9285L24.6098 42.2229C24.8149 42.4414 25.0245 42.4547 25.194 42.2987C25.3634 42.1426 25.3589 41.9285 25.1538 41.6922V41.71Z" fill="white"/>
<path d="M24.8545 43.6186L25.2424 43.4848C25.2799 43.7358 25.3935 43.9693 25.568 44.1537C25.7686 44.3677 25.9203 44.3855 26.0139 44.2964C26.3037 44.0199 25.2469 43.3064 25.8266 42.7579C26.0942 42.5082 26.5133 42.5127 26.9325 42.9541C27.1171 43.1397 27.2468 43.3728 27.3071 43.6275L26.928 43.7746C26.8817 43.5703 26.7834 43.3814 26.6426 43.2262C26.4375 43.0121 26.2815 43.0076 26.1967 43.0968C25.9113 43.3688 26.9637 44.0912 26.3929 44.6308C26.1298 44.8761 25.7062 44.8716 25.2826 44.4257C25.0623 44.2055 24.9132 43.9244 24.8545 43.6186Z" fill="white"/>
<path d="M29.6707 45.8972L28.1099 47.3732L27.771 47.012L28.4087 46.4055L27.7398 45.6965L27.1022 46.303L26.7588 45.9418L28.3195 44.4702L28.6584 44.827L28.043 45.4111L28.7119 46.1201L29.3273 45.536L29.6707 45.8972Z" fill="white"/>
<path d="M29.1486 46.9094C29.3102 46.7377 29.5198 46.6186 29.75 46.5674C29.9802 46.5162 30.2205 46.5353 30.4397 46.6223C30.6589 46.7093 30.847 46.8601 30.9795 47.0552C31.1119 47.2503 31.1828 47.4807 31.1828 47.7165C31.1828 47.9524 31.1119 48.1828 30.9795 48.3779C30.847 48.573 30.6589 48.7238 30.4397 48.8108C30.2205 48.8978 29.9802 48.9169 29.75 48.8657C29.5198 48.8145 29.3102 48.6954 29.1486 48.5237C29.0393 48.4196 28.9523 48.2943 28.8928 48.1556C28.8334 48.0168 28.8027 47.8675 28.8027 47.7165C28.8027 47.5656 28.8334 47.4162 28.8928 47.2775C28.9523 47.1388 29.0393 47.0135 29.1486 46.9094ZM30.415 48.2472C30.484 48.189 30.5401 48.1172 30.5798 48.0362C30.6196 47.9552 30.6421 47.8668 30.6458 47.7767C30.6496 47.6865 30.6346 47.5966 30.6018 47.5125C30.5689 47.4285 30.519 47.3522 30.4551 47.2885C30.3639 47.1869 30.2445 47.1148 30.1121 47.0814C29.9797 47.048 29.8404 47.0548 29.712 47.101C29.5835 47.1472 29.4717 47.2306 29.3908 47.3406C29.31 47.4506 29.2637 47.5822 29.258 47.7186C29.2523 47.855 29.2874 47.99 29.3588 48.1063C29.4301 48.2227 29.5346 48.3152 29.6587 48.3719C29.7829 48.4286 29.9212 48.4471 30.0559 48.4249C30.1906 48.4026 30.3156 48.3408 30.415 48.2472Z" fill="white"/>
<path d="M31.8029 48.1536L32.1418 48.5148L30.8754 49.7188L31.6156 50.4991L31.3213 50.7756L30.2422 49.634L31.8029 48.1536Z" fill="white"/>
<path d="M33.0729 49.5005L33.7418 50.2095C33.8526 50.3086 33.9416 50.4297 34.0033 50.565C34.0649 50.7003 34.0978 50.847 34.0999 50.9956C34.102 51.1443 34.0731 51.2918 34.0153 51.4288C33.9574 51.5658 33.8717 51.6893 33.7637 51.7914C33.6556 51.8936 33.5276 51.9722 33.3876 52.0223C33.2476 52.0725 33.0987 52.093 32.9504 52.0826C32.802 52.0722 32.6575 52.0312 32.5258 51.9621C32.3941 51.8929 32.2783 51.7973 32.1855 51.6811L31.5166 50.972L33.0729 49.5005ZM32.462 51.3823C32.5143 51.4651 32.5843 51.5355 32.6669 51.5883C32.7495 51.6411 32.8426 51.6751 32.9398 51.688C33.037 51.7008 33.1358 51.6921 33.2293 51.6625C33.3227 51.6329 33.4085 51.5831 33.4806 51.5167C33.5527 51.4502 33.6093 51.3688 33.6464 51.278C33.6835 51.1873 33.7002 51.0895 33.6954 50.9916C33.6905 50.8937 33.6642 50.7981 33.6183 50.7115C33.5723 50.6248 33.5079 50.5494 33.4296 50.4904L33.1175 50.1605L32.1543 51.0568L32.462 51.3823Z" fill="white"/>
<path d="M34.6873 53.7321L34.3974 54.0086L33.2559 52.8002L34.8166 51.3286L35.9269 52.5058L35.6416 52.7779L34.8656 51.9618L34.5267 52.2784L35.209 53.0053L34.9281 53.2684L34.2458 52.546L33.8846 52.8849L34.6873 53.7321Z" fill="white"/>
<path d="M35.6098 55.3019L35.757 54.5929L35.4582 54.2807L35.0123 54.691L34.6689 54.3298L36.2297 52.8538L36.8673 53.5316C37.2598 53.9463 37.291 54.4234 36.9387 54.74C36.8385 54.8446 36.708 54.9151 36.5655 54.9415C36.4231 54.9679 36.276 54.9489 36.1449 54.8872L35.9755 55.7077L35.6098 55.3019ZM36.5552 53.7679L36.2743 53.4736L35.7347 53.9909L36.0112 54.2852C36.2207 54.5037 36.4259 54.5171 36.5953 54.3565C36.7648 54.196 36.7603 53.9909 36.5552 53.7679Z" fill="white"/>
<path d="M14.5849 43.7077L15.4143 43.6542C15.3741 43.8042 15.371 43.9617 15.4052 44.1132C15.4394 44.2646 15.5098 44.4055 15.6105 44.5237C15.8736 44.8002 16.1813 44.7913 16.5023 44.4791L17.9293 43.1414L16.9304 42.0845L17.4878 41.5583L19.1422 43.3064L17.1935 45.1436C16.4488 45.8481 15.7354 45.8169 15.0665 45.1124C14.8829 44.9315 14.7438 44.7105 14.6602 44.4668C14.5766 44.223 14.5509 43.9631 14.5849 43.7077Z" fill="white"/>
<path d="M16.9658 46.2096C17.0759 46.1054 17.2228 46.0493 17.3743 46.0534C17.5258 46.0576 17.6694 46.1218 17.7735 46.2319C17.8777 46.342 17.9339 46.4889 17.9297 46.6404C17.9255 46.7919 17.8613 46.9355 17.7512 47.0397C17.6967 47.0912 17.6326 47.1316 17.5625 47.1584C17.4924 47.1851 17.4177 47.1979 17.3427 47.1958C17.2677 47.1937 17.1939 47.1769 17.1253 47.1463C17.0568 47.1157 16.995 47.0719 16.9435 47.0173C16.8919 46.9628 16.8516 46.8987 16.8248 46.8286C16.798 46.7585 16.7853 46.6838 16.7873 46.6088C16.7894 46.5338 16.8062 46.46 16.8368 46.3915C16.8675 46.323 16.9113 46.2612 16.9658 46.2096Z" fill="white"/>
<path d="M24.9654 49.4422L21.0324 51.2972L20.3278 50.5525L21.737 47.9706L19.0614 49.2103L18.3613 48.4701L20.4304 44.644L21.1127 45.362L19.6411 48.0375L22.4237 46.7488L23.0301 47.3909L21.5497 50.0888L24.3412 48.7778L24.9654 49.4422Z" fill="white"/>
<path d="M25.2475 49.7411C25.3002 49.692 25.3625 49.6544 25.4306 49.6307C25.4986 49.6071 25.5708 49.5979 25.6426 49.6038C25.7144 49.6097 25.7841 49.6305 25.8474 49.6649C25.9107 49.6992 25.9661 49.7465 26.01 49.8035C26.0644 49.849 26.1088 49.9053 26.1403 49.9688C26.1718 50.0323 26.1898 50.1017 26.1931 50.1725C26.1965 50.2433 26.1851 50.3141 26.1597 50.3803C26.1344 50.4465 26.0955 50.5067 26.0457 50.5571C25.993 50.6087 25.9301 50.6486 25.861 50.6743C25.7919 50.7 25.7182 50.7109 25.6446 50.7063C25.571 50.7016 25.4993 50.6816 25.4339 50.6475C25.3686 50.6133 25.3112 50.5658 25.2653 50.5081C25.2112 50.4605 25.1676 50.4021 25.1371 50.3368C25.1067 50.2715 25.0901 50.2005 25.0884 50.1285C25.0867 50.0564 25.1 49.9848 25.1274 49.9181C25.1548 49.8514 25.1957 49.7912 25.2475 49.7411ZM24.6277 50.4769L25.2609 51.1457L22.951 53.3263L22.3223 52.6574L24.6277 50.4769Z" fill="white"/>
<path d="M26.722 50.9407L27.3552 51.6096L24.1713 54.624L23.5381 53.9551L26.722 50.9407Z" fill="white"/>
<path d="M27.9397 52.2295L28.573 52.8984L25.3891 55.9084L24.7559 55.2395L27.9397 52.2295Z" fill="white"/>
<path d="M28.9038 53.6071C28.9574 53.5591 29.0203 53.5225 29.0885 53.4996C29.1567 53.4767 29.2289 53.4678 29.3007 53.4737C29.3724 53.4795 29.4422 53.4999 29.5058 53.5336C29.5695 53.5672 29.6256 53.6135 29.6708 53.6696C29.7244 53.7162 29.7679 53.7732 29.7987 53.8372C29.8295 53.9012 29.8469 53.9709 29.8498 54.0419C29.8527 54.1128 29.8411 54.1837 29.8157 54.25C29.7903 54.3163 29.7516 54.3768 29.702 54.4276C29.5903 54.5163 29.4497 54.5604 29.3074 54.5513C29.1651 54.5422 29.0313 54.4805 28.9318 54.3783C28.8324 54.2761 28.7745 54.1406 28.7693 53.9981C28.7641 53.8556 28.812 53.7163 28.9038 53.6071ZM28.2839 54.3474L28.9171 55.0162L26.6117 57.1968L25.9785 56.5279L28.2839 54.3474Z" fill="white"/>
<path d="M30.4418 58.6372L29.1041 59.8813L28.511 59.257L28.8008 58.985C28.6157 59.0127 28.4265 58.99 28.2531 58.9194C28.0797 58.8488 27.9285 58.7328 27.8153 58.5837C27.3025 58.0441 27.2981 57.4376 27.6994 57.0631C28.1007 56.6885 28.6581 56.6974 29.3226 57.3975L29.8265 57.9326C30.1163 57.6606 30.1208 57.3306 29.7774 56.9694C29.5516 56.7343 29.2561 56.5779 28.9346 56.5235L29.1754 55.8457C29.6458 55.9613 30.0712 56.2143 30.3972 56.5726C31.084 57.237 31.1419 57.9549 30.4418 58.6372ZM29.2245 58.5257L29.4608 58.3027L29.0149 57.8568C28.7206 57.5402 28.511 57.5536 28.3549 57.6963C28.1988 57.839 28.2122 58.1021 28.4352 58.3384C28.5321 58.4462 28.6609 58.5203 28.8028 58.55C28.9448 58.5796 29.0924 58.5633 29.2245 58.5034V58.5257Z" fill="white"/>
<path d="M34.7043 63.0965L33.3665 64.3451L32.7378 63.6762L33.9552 62.5257C34.3253 62.1734 34.3387 61.8434 34.0845 61.5759C33.8303 61.3083 33.4111 61.2459 32.9964 61.6339L31.8415 62.7308L31.2083 62.0619L32.4256 60.9115C32.8002 60.5547 32.818 60.2337 32.555 59.9572C32.2919 59.6807 31.8861 59.6317 31.4714 60.0241L30.3432 61.13L29.71 60.4611L32.0154 58.2805L32.6218 58.9182L32.3543 59.1724C32.5412 59.1699 32.7263 59.2086 32.8966 59.2857C33.0669 59.3627 33.2182 59.4763 33.3398 59.6183C33.4882 59.7597 33.5974 59.9371 33.6567 60.1333C33.7161 60.3294 33.7237 60.5376 33.6787 60.7376C33.8966 60.722 34.1152 60.7565 34.3177 60.8384C34.5202 60.9203 34.7012 61.0475 34.847 61.2102C35.3509 61.7587 35.4044 62.4454 34.7043 63.0965Z" fill="white"/>
<path d="M33.9512 64.5325L34.6424 64.3006C34.7253 64.6804 34.9103 65.0304 35.1775 65.3128C35.4673 65.6205 35.6591 65.6607 35.7884 65.5403C36.1629 65.1835 34.4506 64.1534 35.3826 63.2794C35.8285 62.8692 36.5018 62.9717 37.1395 63.6451C37.4361 63.9481 37.6548 64.3183 37.7772 64.7242L37.0905 64.9516C37.0188 64.6402 36.8648 64.3538 36.6446 64.1222C36.3636 63.8235 36.1451 63.7833 36.0247 63.8948C35.6323 64.2694 37.3313 65.3039 36.4216 66.1601C35.9757 66.5659 35.3112 66.4589 34.6379 65.7677C34.3033 65.4243 34.0663 64.9979 33.9512 64.5325Z" fill="white"/>
<path d="M60.5957 90.3201C61.5856 89.3837 62.6648 89.4015 63.3649 90.1373C64.065 90.8731 64.0204 91.9567 63.026 92.8931C62.0316 93.8295 60.9613 93.8162 60.2568 93.0759C59.5522 92.3357 59.6057 91.2566 60.5957 90.3201ZM62.3794 92.193C63.0616 91.5509 63.1196 91.0425 62.7896 90.6947C62.4596 90.3469 61.9557 90.3781 61.2735 91.0247C60.5912 91.6713 60.5332 92.1752 60.8588 92.5185C61.1843 92.8619 61.6837 92.8396 62.366 92.193H62.3794Z" fill="white"/>
<path d="M65.1251 96.233C64.5142 96.8127 63.6536 96.6789 63.0516 96.0412C62.2712 95.2118 62.3024 94.204 63.2701 93.2899C64.3091 92.3089 65.4997 92.398 66.3335 93.2899C66.6199 93.575 66.8233 93.9326 66.9222 94.3244L66.1686 94.5474C66.1127 94.28 65.9793 94.0349 65.7851 93.8428C65.6837 93.721 65.5571 93.6225 65.4141 93.5542C65.271 93.486 65.1148 93.4495 64.9563 93.4474C64.7978 93.4453 64.6407 93.4775 64.4959 93.542C64.3511 93.6064 64.2219 93.7014 64.1173 93.8205C64.4919 93.8503 64.8396 94.0265 65.085 94.3111C65.2164 94.4331 65.3219 94.5803 65.3954 94.7439C65.4688 94.9075 65.5085 95.0842 65.5122 95.2635C65.516 95.4428 65.4836 95.621 65.4171 95.7876C65.3506 95.9541 65.2513 96.1056 65.1251 96.233ZM64.4562 95.5908C64.5205 95.5298 64.571 95.4557 64.6044 95.3736C64.6378 95.2915 64.6533 95.2032 64.65 95.1146C64.6466 95.026 64.6244 94.9391 64.5848 94.8598C64.5453 94.7804 64.4893 94.7104 64.4205 94.6544C64.3668 94.5839 64.2991 94.5252 64.2216 94.482C64.1442 94.4387 64.0587 94.4119 63.9704 94.4031C63.8822 94.3943 63.7931 94.4038 63.7086 94.4309C63.6242 94.458 63.5463 94.5022 63.4796 94.5608C63.4161 94.6243 63.3667 94.7004 63.3347 94.7844C63.3027 94.8683 63.2887 94.958 63.2938 95.0477C63.2988 95.1373 63.3228 95.2249 63.364 95.3047C63.4053 95.3845 63.4629 95.4546 63.5332 95.5106C63.5858 95.5816 63.653 95.6407 63.7302 95.6838C63.8074 95.7269 63.8929 95.7531 63.9811 95.7607C64.0692 95.7683 64.1579 95.7571 64.2414 95.7278C64.3248 95.6985 64.4011 95.6518 64.4651 95.5908H64.4562Z" fill="white"/>
<path d="M69.1395 95.1138L69.7059 95.7069L64.3236 98.1148L63.7617 97.5173L69.1395 95.1138Z" fill="white"/>
<path d="M68.7387 100.808L68.1724 101.343L66.0186 99.0734L66.4645 98.6498L68.654 98.7747C68.8026 98.8036 68.9558 98.7999 69.1029 98.7637C69.25 98.7275 69.3874 98.6597 69.5057 98.5651C69.742 98.3421 69.7242 98.0478 69.4209 97.7312C69.3121 97.6051 69.1736 97.5081 69.0179 97.449C68.8622 97.3898 68.6942 97.3703 68.5291 97.3923L68.3775 96.5762C68.6914 96.5399 69.0095 96.5815 69.3035 96.6974C69.5975 96.8133 69.8584 96.9999 70.0631 97.2407C70.6963 97.914 70.7721 98.681 70.2281 99.1983C69.9382 99.4747 69.5949 99.6442 68.8056 99.5907L67.5035 99.5149L68.7387 100.808Z" fill="white"/>
<path d="M71.6326 103.738L71.1867 103.252L70.558 103.845L69.9158 103.167L70.549 102.574L69.0195 100.955L69.4877 100.509L72.7296 100.126L73.4208 100.853L70.3707 101.245L71.1332 102.052L71.6951 101.521L72.3149 102.177L71.753 102.708L72.199 103.198L71.6326 103.738Z" fill="white"/>
<path d="M85.7188 66.597C87.4133 63.9928 86.7489 60.5324 84.4747 58.4187C83.7829 57.7661 82.9813 57.2408 82.1069 56.8669C79.9352 55.9751 77.059 56.6217 75.9175 58.6818C74.9855 60.363 75.3601 62.4633 76.0156 64.2693C76.6978 66.1644 77.7992 68.0997 79.6766 68.8355C81.5539 69.5713 83.6542 68.8979 85.0009 67.4977C85.2704 67.2229 85.511 66.921 85.7188 66.597Z" fill="#6311CB"/>
<path d="M127.075 67.6714H13.0396C8.74453 67.6714 5.2627 71.1532 5.2627 75.4483V153.944C5.2627 158.239 8.74453 161.721 13.0396 161.721H127.075C131.371 161.721 134.852 158.239 134.852 153.944V75.4483C134.852 71.1532 131.371 67.6714 127.075 67.6714Z" fill="#C292FF"/>
<path d="M134.854 75.4486C134.854 75.4486 134.854 75.3549 134.854 75.1677C134.845 74.8882 134.818 74.6096 134.773 74.3338C134.617 73.2481 134.227 72.2092 133.632 71.2881C133.195 70.6106 132.66 70.0019 132.044 69.4821C131.292 68.8655 130.431 68.3937 129.507 68.0909C129.257 68.0061 128.994 67.9571 128.731 67.8813C128.468 67.8055 128.187 67.7965 127.906 67.752L127.045 67.7118H122.238L75.742 67.7475H43.6355H25.7451H14.0129C13.2211 67.7158 12.4282 67.7606 11.645 67.8813C10.068 68.1708 8.62284 68.9511 7.51577 70.1109C6.95671 70.6885 6.49445 71.3526 6.14679 72.0774C5.78834 72.8019 5.55323 73.581 5.45115 74.3828C5.37418 75.1979 5.34886 76.0171 5.37534 76.8354V89.406C5.37534 96.2018 5.37534 103.133 5.37534 110.199V153.9C5.37808 155.765 6.05605 157.566 7.28389 158.97C8.49499 160.366 10.1744 161.271 12.0062 161.516C12.9196 161.595 13.8368 161.62 14.7531 161.592H85.2803H122.136H126.426C127.126 161.613 127.826 161.567 128.517 161.454C129.196 161.323 129.855 161.101 130.475 160.794C130.782 160.643 131.08 160.473 131.366 160.285C131.645 160.089 131.913 159.878 132.169 159.652C132.928 158.984 133.547 158.172 133.989 157.262C134.43 156.353 134.687 155.364 134.742 154.355C134.787 149.004 134.742 143.858 134.769 138.952C134.769 119.332 134.8 103.439 134.809 92.4605C134.809 86.9712 134.809 82.7127 134.831 79.8186C134.831 78.3783 134.831 77.2769 134.831 76.5322C134.831 75.7875 134.831 75.4129 134.831 75.4129C134.831 75.4129 134.831 75.7919 134.831 76.5322C134.831 77.2724 134.831 78.3783 134.831 79.8186C134.831 82.7127 134.831 86.9534 134.854 92.4605C134.854 103.439 134.854 119.323 134.889 138.952C134.889 143.858 134.92 148.999 134.889 154.364C134.814 155.738 134.377 157.069 133.623 158.221C133.247 158.8 132.797 159.327 132.285 159.79C132.023 160.022 131.747 160.238 131.46 160.437C131.173 160.628 130.875 160.802 130.568 160.959C129.935 161.276 129.261 161.504 128.566 161.637C127.864 161.755 127.151 161.803 126.439 161.779H122.149H85.2937H44.5631H14.7353C13.8085 161.808 12.8808 161.781 11.9572 161.699C10.0698 161.451 8.33881 160.52 7.09215 159.081C5.83334 157.639 5.13672 155.792 5.13009 153.877C5.13009 138.899 5.13009 124.282 5.13009 110.177V89.406C5.13009 86.011 5.13009 82.6517 5.13009 79.3281V76.8443C5.10343 76.0155 5.13024 75.1859 5.21035 74.3605C5.31578 73.5367 5.55845 72.7363 5.92829 71.9927C6.28466 71.2456 6.76063 70.5618 7.3374 69.9682C7.90843 69.381 8.56369 68.882 9.28163 68.4877C10.0033 68.1046 10.7792 67.8339 11.5826 67.6851L12.1846 67.5914L12.7866 67.5602C13.1924 67.5379 13.5892 67.5602 13.9861 67.5602H43.6088H75.7152L122.212 67.6003H126.996L127.866 67.6449C128.147 67.694 128.428 67.7252 128.695 67.7832C128.963 67.8411 129.226 67.908 129.476 67.9972C130.408 68.304 131.274 68.7819 132.031 69.4063C132.65 69.931 133.187 70.5458 133.623 71.2302C134.216 72.159 134.599 73.2059 134.747 74.2981C134.792 74.5753 134.816 74.8556 134.818 75.1364C134.854 75.3549 134.854 75.4486 134.854 75.4486Z" fill="#263238"/>
<path d="M130.313 73.4687C131.199 73.3141 132.104 73.3141 132.989 73.4687C132.104 73.6233 131.199 73.6233 130.313 73.4687Z" fill="#263238"/>
<path d="M119.397 73.4687C121.214 73.3141 123.039 73.3141 124.856 73.4687C123.039 73.6233 121.214 73.6233 119.397 73.4687Z" fill="#263238"/>
<path d="M108.486 73.4685C110.301 73.3139 112.125 73.3139 113.94 73.4685C112.125 73.6232 110.301 73.6232 108.486 73.4685Z" fill="#263238"/>
<path d="M97.5693 73.4687C99.3854 73.3141 101.211 73.3141 103.027 73.4687C101.211 73.6233 99.3854 73.6233 97.5693 73.4687Z" fill="#263238"/>
<path d="M86.6572 73.4685C88.4718 73.3139 90.2963 73.3139 92.1109 73.4685C90.2963 73.6232 88.4718 73.6232 86.6572 73.4685Z" fill="#263238"/>
<path d="M75.7422 73.4687C77.5583 73.3141 79.3842 73.3141 81.2003 73.4687C79.3842 73.6233 77.5583 73.6233 75.7422 73.4687Z" fill="#263238"/>
<path d="M64.8291 73.4685C66.6437 73.3139 68.4682 73.3139 70.2827 73.4685C68.4682 73.6232 66.6437 73.6232 64.8291 73.4685Z" fill="#263238"/>
<path d="M53.9131 73.4687C55.7292 73.3141 57.5551 73.3141 59.3712 73.4687C57.5551 73.6233 55.7292 73.6233 53.9131 73.4687Z" fill="#263238"/>
<path d="M42.9971 73.4687C44.8132 73.3141 46.6391 73.3141 48.4552 73.4687C46.6391 73.6233 44.8132 73.6233 42.9971 73.4687Z" fill="#263238"/>
<path d="M32.0869 73.4684C32.9874 73.3545 33.8957 73.3157 34.8026 73.3524C35.7139 73.315 36.6268 73.3537 37.5316 73.4684C36.627 73.5857 35.7139 73.6245 34.8026 73.5843C33.8957 73.6237 32.9871 73.5849 32.0869 73.4684Z" fill="#263238"/>
<path d="M21.1699 73.4684C22.0748 73.3537 22.9876 73.315 23.899 73.3524C24.8103 73.315 25.7232 73.3537 26.628 73.4684C25.7234 73.5857 24.8103 73.6245 23.899 73.5843C22.9876 73.6245 22.0746 73.5857 21.1699 73.4684Z" fill="#263238"/>
<path d="M13.0406 76.1443C12.9231 75.2576 12.8843 74.3622 12.9246 73.4687L13.0406 73.3528H14.0796L14.9313 73.3795C15.1953 73.3699 15.4595 73.3969 15.7161 73.4598C15.4599 73.5258 15.1956 73.5543 14.9313 73.5445L14.0796 73.5668H13.5801H13.0406L13.1565 73.4509C13.1951 74.3503 13.1563 75.2515 13.0406 76.1443Z" fill="#263238"/>
<path d="M13.0404 86.1463C12.9232 85.3179 12.8843 84.4803 12.9245 83.6446C12.8845 82.8104 12.9233 81.9743 13.0404 81.1475C13.1549 81.9746 13.1938 82.8104 13.1564 83.6446C13.1939 84.4803 13.155 85.3176 13.0404 86.1463Z" fill="#263238"/>
<path d="M13.0417 96.1482C12.8871 94.4855 12.8871 92.8121 13.0417 91.1494C13.1963 92.8121 13.1963 94.4855 13.0417 96.1482Z" fill="#263238"/>
<path d="M13.0417 106.15C12.8871 104.486 12.8871 102.811 13.0417 101.147C13.1963 102.811 13.1963 104.486 13.0417 106.15Z" fill="#263238"/>
<path d="M13.0417 116.161C12.8871 114.497 12.8871 112.822 13.0417 111.158C13.1963 112.822 13.1963 114.497 13.0417 116.161Z" fill="#263238"/>
<path d="M13.0417 126.15C12.8871 124.487 12.8871 122.814 13.0417 121.151C13.1963 122.814 13.1963 124.487 13.0417 126.15Z" fill="#263238"/>
<path d="M13.0417 136.152C12.8871 134.489 12.8871 132.816 13.0417 131.153C13.1963 132.816 13.1963 134.489 13.0417 136.152Z" fill="#263238"/>
<path d="M13.0417 146.154C12.8871 144.491 12.8871 142.818 13.0417 141.155C13.1963 142.818 13.1963 144.491 13.0417 146.154Z" fill="#263238"/>
<g opacity="0.3">
<path d="M49.9625 119.836C49.9625 119.836 49.9893 124.295 48.6248 126.97C47.2602 129.646 46.8411 130.707 43.9872 131.742C41.1333 132.776 5.22754 136.723 5.22754 136.723V124.607L49.9625 119.836Z" fill="black"/>
</g>
<g opacity="0.3">
<path d="M49.3352 103.024C49.3352 103.024 49.7455 98.4715 38.3254 96.7814C25.2643 94.8506 5.26465 92.4783 5.26465 92.4783V101.089L49.3352 103.024Z" fill="black"/>
</g>
<path d="M43.5994 98.8953H6.44952C2.9253 98.8953 0.0683594 101.752 0.0683594 105.276V121.909C0.0683594 125.434 2.9253 128.291 6.44952 128.291H43.5994C47.1236 128.291 49.9805 125.434 49.9805 121.909V105.276C49.9805 101.752 47.1236 98.8953 43.5994 98.8953Z" fill="#B77DFF"/>
<path d="M6.44974 128.286C6.44974 128.286 6.32043 128.286 6.07071 128.286C5.69655 128.271 5.32468 128.221 4.96036 128.134C4.3644 128 3.79179 127.777 3.26139 127.474C2.53488 127.064 1.89682 126.514 1.38406 125.856C0.734475 125.03 0.298014 124.058 0.11318 123.024C0.0202658 122.434 -0.0155763 121.837 0.00615558 121.24C0.00615558 120.625 0.00615558 119.983 0.00615558 119.318C0.00615558 116.665 0.00615558 113.646 0.00615558 110.306C0.00615558 108.634 0.00615558 106.89 0.00615558 105.062C0.0361301 104.098 0.281594 103.154 0.724521 102.297C1.16745 101.44 1.79659 100.694 2.56576 100.112C3.37422 99.4909 4.32138 99.0747 5.32601 98.8996C5.83575 98.815 6.35238 98.7791 6.86891 98.7925H14.8955H43.6308C44.5988 98.7905 45.5549 99.0058 46.4285 99.4225C47.3022 99.8393 48.0712 100.447 48.6786 101.201C49.4831 102.187 49.9767 103.389 50.0967 104.656C50.1457 105.285 50.1279 105.896 50.1324 106.507C50.1324 107.729 50.1324 108.94 50.1324 110.141V117.218C50.1324 118.373 50.1324 119.519 50.1324 120.647C50.1324 121.218 50.1547 121.771 50.1324 122.342C50.1161 122.625 50.0818 122.906 50.0298 123.185C49.9691 123.459 49.8947 123.729 49.8068 123.996C49.4437 125.04 48.8203 125.974 47.9955 126.71C47.1708 127.446 46.1719 127.959 45.0934 128.201C44.8358 128.261 44.5754 128.307 44.3131 128.339C44.05 128.362 43.7869 128.371 43.5238 128.38H38.9977H28.0725L12.2512 128.339L7.94804 128.317H6.83324H6.44974C6.44974 128.317 6.57906 128.317 6.83324 128.317H7.94804L12.2512 128.295L28.0725 128.259H38.9977H41.9898C43.0065 128.232 44.0455 128.344 45.0444 128.081C46.0784 127.834 47.033 127.329 47.8191 126.613C48.6051 125.897 49.1969 124.994 49.5393 123.987C49.9228 122.957 49.8693 121.838 49.8693 120.705V117.276C49.8693 114.966 49.8693 112.603 49.8693 110.199V106.565C49.8693 105.954 49.8693 105.334 49.838 104.737C49.7179 103.515 49.2419 102.355 48.4691 101.401C48.0801 100.929 47.6302 100.511 47.1313 100.157C46.613 99.8157 46.0504 99.5472 45.4591 99.3589C44.8604 99.1845 44.2409 99.0915 43.6174 99.0824H14.8821H6.85553C6.34954 99.0691 5.84342 99.1035 5.34385 99.1849C4.371 99.3534 3.45317 99.7542 2.66832 100.353C1.92022 100.917 1.30768 101.641 0.875595 102.472C0.443507 103.303 0.202809 104.22 0.171145 105.156C0.148849 106.971 0.171145 108.723 0.171145 110.395C0.171145 113.735 0.171145 116.754 0.171145 119.408C0.171145 120.072 0.171145 120.714 0.171145 121.329C0.148663 121.918 0.181509 122.508 0.269249 123.091C0.483246 124.307 1.04546 125.434 1.88767 126.336C2.72987 127.239 3.81586 127.877 5.01387 128.174C5.37502 128.265 5.74373 128.321 6.1153 128.344L6.44974 128.286Z" fill="#263238"/>
<path d="M34.9441 125.383C40.8449 125.383 45.6284 120.599 45.6284 114.699C45.6284 108.798 40.8449 104.014 34.9441 104.014C29.0433 104.014 24.2598 108.798 24.2598 114.699C24.2598 120.599 29.0433 125.383 34.9441 125.383Z" fill="#263238"/>
<path d="M37.6816 123.425C38.5855 123.09 39.4426 122.64 40.2323 122.087C41.0724 121.471 41.8021 120.718 42.3906 119.858C43.1232 118.815 43.6081 117.618 43.8083 116.359C44.0084 115.101 43.9185 113.813 43.5455 112.594C43.2541 111.593 42.7925 110.651 42.181 109.807C41.6047 109.036 40.9301 108.343 40.1743 107.747C40.1743 107.747 40.2412 107.773 40.3483 107.845C40.5133 107.947 40.6726 108.059 40.8254 108.179C41.3869 108.621 41.8877 109.136 42.3148 109.709C42.9558 110.558 43.4419 111.513 43.7507 112.531C44.1472 113.779 44.2465 115.102 44.0406 116.395C43.8346 117.688 43.3291 118.915 42.5645 119.978C41.9578 120.846 41.2031 121.601 40.3349 122.208C39.752 122.62 39.116 122.952 38.4442 123.193C38.2636 123.263 38.0789 123.321 37.8912 123.367C37.8258 123.4 37.7546 123.42 37.6816 123.425Z" fill="#FAFAFA"/>
</g>
</svg>
